<mxfile host="app.diagrams.net" modified="2024-07-18T10:50:11.957Z" agent="Mozilla/5.0 (Windows NT 10.0; Win64; x64) AppleWebKit/537.36 (KHTML, like Gecko) Chrome/126.0.0.0 Safari/537.36" etag="b9MDKJfteD2FEQEqy-vo" version="24.7.1" type="device">
  <diagram name="ページ1" id="WZC0p6EqI7H_TtYnzWE9">
    <mxGraphModel dx="2325" dy="526" grid="1" gridSize="10" guides="1" tooltips="1" connect="1" arrows="1" fold="1" page="1" pageScale="1" pageWidth="827" pageHeight="1169" math="0" shadow="0">
      <root>
        <mxCell id="0" />
        <mxCell id="1" parent="0" />
        <mxCell id="uIYsc5EEo-gaZTBiMCS1-38" value="" style="shape=image;verticalLabelPosition=bottom;labelBackgroundColor=default;verticalAlign=top;aspect=fixed;imageAspect=0;image=data:image/png,iVBORw0KGgoAAAANSUhEUgAABDoAAASCCAYAAABTtIyhAAAAAXNSR0IArs4c6QAAAARnQU1BAACxjwv8YQUAAAAJcEhZcwAADsMAAA7DAcdvqGQAAP+lSURBVHhe7N0JQFTl3gbwZ0BFUFFcIbdELXFJJA3Rcr1quZViVpiVSqVZ2lXzU9PUXK9JN03TuprdTCoLLbdcioybIrlRirjinhjkggqiwnznf+YcGGCAYRmW4fnde+KcMzNn9nHeZ973/4KIiIiIiIiIyF4Y1P9OOmxU/xIRERERERERlVbzWxrSgo6GX/VVV4mIiIiIiIiISpuzz25Sgw4HbZuIiIiIiIiIqNRj0EFEREREREREdoNBBxERERERERHZDQYdRERERERERGQ3GHQQERERERERkd0ok7OuODg4wMnJCY7KX1mHNvkMEZElRqMRKSkpuHfvHu7cuaPtJSIiIiKikkSfdaXQgg4JDlycnVG+QgWUc3SEo7JYS21AKMtdpQGRmJSE5ORk7ZTCVblyZfU2ym0lIsoP+bxKUj6nbt66hbt372p7bchohFH5qDYofyWUVf6r7jPIurZP/SDXzyfrRERERERlUKFMLytftCU88PDwQO1atdR1pwoV8hRyCDm/XE4uL8eR41VR1uX4haFSpUq4TzmmW7VqDDmIqEDk80o+q9zr1EGN6tVNvcJsQA00hB5eaJ+H8l/9s1H+pn1Kmq8r0i5PRERERFTG5PsbunzZr1O7thoeSA+OwiTHq6Yct47SkJDhJQVR1dUV1d3c8hy+EBHlxsXFRf0cLMzPFz2gMA8t8kO/PAMPIiIiIipr8pUilC9fHrWVL/fy15bKlyunhh3yNz+qVq0KV1dXbYuIqPCVk8+pQgo7JJQoaMCRmXo8GeJCRERERFRG5DnocDAYUKtmzULvxZEdaTzUVK4vr8NYKlasCNcqVbQtIiLbUT+natTQtgrARoEEYw4iIiIiKkvyHHTUqFmzyIeByC+mMhbeWnL78nJ+IqKCqlChAqpVrapt5Y0eRBRWXaLM9OMy8CAiIiKisiBPQYezszMqFlMxT7luWawhdTlsVSCQiCg7VapUUYPZPJFeHEU0tETiDoYdRERERGTvrE4DZMhKfn+tLCzWXL8EHDLLChFRcZAZWawmAYfy2WqrnhyWqGEHa3YQERERkR2zOuhwqlgx779UFjK5fqm9kROZBaEgnCo6o8mDzdCxczd069lbXR7t3B0PNGuuXLd1PUqIqOxysbLnmaoIAw5zRRmsEBEREREVNdO33UmHjQ2/6quuZkemaC0JPSVu3ryJq9euaVtZ1a5VC055GF4jv2zKl35HB0e08PaBV8uHUKtmbXWf/qvnnbvJMKYacePGDUQf/h2HIg8gNTUl7bJEROYu//UX7ty5o21ZJp8uxfXpwc8uIiIiIrJHZ5/dBMxvabC6R4etp5K1lhT8y0lebqf+Zd/JqSK6Pd5X7blRpXIVxJw6gfBff8G2zd9hq7L8FXtZbbTIsf0e64oeT/SDU4WKGcIQIiKdNZ9DBY0Zmjdvri75wZCDiIiIiOyZ6duuFT067vPwKPLZVixJSUnBn5cuaVtZ1a9XT1vLmR5yyH3q1rOPOjQlLu4yDu7dgxPHj8oZ1PNVruKKPk8OgrOLC+7evWvaV9kVp08dx0/bNqm3h7+OEpG569evI+HGDW0rq8L4zPjqyy/Vv88+95z6Nz/42UVERERkW76PPIIhQ4agdu3a2p7snTh5EtOmTdO2So+tP/yAf/3rX/h5505tT/Zk9MWqTz9FgPKY2ILeo8PqoKNe3bol4guxfDG/cPGitpWVtUGH7qE2bfFY138g/q/L+Gn7FvWvZBzly5dDy9Y+uN+zCapWc0Nqaqp2CVPY4lq1GnaHheKPg/u0vdZZvHgxatWqpW1ldOjQIcydO1fbst6UKVPg7u6OMWPGaHts76GHHkLfvn3h6emZNqTpzz//xMaNG7FTeYHL/YyNjc3X/bHWc0oDz8/PL9v7ndNt+FJpJG7YsEH9S2VLy5Yt1dfuBx98gNu3b2t7TaQG0JtvvolNmzbh8OHD2t68S0hIwHVlyU5hDFsplKBDWRhzEBEREdnGAw88oLZF5syZY1V5BQlFpK04tZSFHZ07d8ayjz7C6Ndfx88//6ztzUoeg09XrsQ9pT394osvansLV56HruQn5PDy8tLWLMvtdEsKM2yRwqPNW7XG3Tt3sD8iXA05HBwcleuAGnB0eKwrXKtVU4MNuV59kZldEm/dVC+b1wKl0iiXBroscXFxarihb9syFChMEnK89tprargSHh6Ojz/+WA0M/v77b3h4eGjnKpj+/ftjxYoV2hZR4enZsydat26N//u//8tQ3FjWZZ+cJuexpZISLjDkICIiIrIdNzc33Lt3DwcPHsSePXtyXyIi0KRpU+3Spccvv/yCUUr7cMmHH6qhhyV6Tw5pT7/yyivaXtuxOujIq27duuGdd97B0KFDtT0ZyX45/bHHHtP2FL36De5HjZq1cPHCObUuhzzoRqOp54b7fdKDBXB0LKeOt5eeJOZSU1JQpYor6je8X9tTdgQGBuLWrVtqaLNy5Uq1B4f0jpCgprB6SEgvEU4TTLbwofIB/Pvvv6NZs2ZpYYcecsg+OU3OQ0RERERE1pGw47XRo/HR0qVZwg495BDDhg9HcnKyum5LNgs6ZKiHhAO9e/fOEnbItuyX082HhBS1Oh73wcHggEsXL6bNoqIHGufPnsG+iHD8vv83XPrzAhwcHdSeHRJwCAe1XokBddzvU7cLy4gRI7B8+XI1MPjvf/+LefPmqT0ozM2YMUM9Tc4jp1sq0CrDWaRHhJxH/sp2doKCgtRhHrouXbqol5O/mUlPC+lOJUNUciO3S26ffl/Gjx+vnWIip+n3Q26jHFvIbdXX5TRZbE0eY/PbI8+BPBc66XEj+2Wf/rjK8yDkr2zLZV9//XV1n07uh/nzmdPzQEVDau3Ia14POyZNmqQuesghp+n1eIiIiIiIyDqWwo7iCDmEzYIO+ZX/k08+Udcl1Hj22WfVdfkr20JO37Vrl7peHORBlx4cN25cR7ly5dTeG47KXwkxzp4+hYjdYTiwdw9+379XnWXFpVIltSips7MzEm/dUvt9V3BK7/peUNKI7tSpE/bu3as2rFetWqV2d5IeFDppVMuQETlNzhMfH49GjRppp5rIeRo0aKD2spDz/PTTT3jwwQezbWRLaFG1alX1vGLgwIHqkBp5DjOT+gZSaNHSaZnJ7Tp58qR6XLlPbdu2TQswhEzXq9+PCxcupJ0mPUPktgs5Tb9dtiRDcYR+e06cOIF//OMfWa67SZMmaigkwYXcPwkx5H7I+eQ+duzYMS0gkr/+/v7qseT0rVu3qs+DeYBCxUMPO44dO6Y+J7KU1JBDZlaRehyZF52l0/I7GwsRERERUUHoYYfU7OjVs6dak0M6DBRlyCFsFnQIaQx/qqU3Tz75pDpURf4K2W9NY9mWDAYH3FEaNe3ad8TTAS9h8PPD8MyQYRgweAh69nkSDRo1Vs8nPTp++WkbzsacwoVzZ/Fb+K+IOhSJ8uUKd8rddu3aqQ0vGQ4i5PH56quv1B4UEgJIrwNpkMmLR3/spGEmYYfO/Dx6WCCNcmmEy35L5Fh//PGHWthTGuQuLi451guRqXatIcVJ9fuyZMkSdbhLU7MxZ3Id+v2Qv7YYqtKqVSv1/mdezEnwIOGV7Dd/XM+cOaOGM+bkPPJYyWMr90/IeYXcR3ls9DolEnTIefTT5bKnT59mI5SIiIiISHNG+X6c14VKNjXskJodSvuocuXKCHz55SINOYRNgw6xY8cOfP755+q6XnxUtmV/cUu+nQRjqtFUh8PJSe3hUUFZKleuggYNPdGtxxOoW7+Bet5j0Yexfcv32LpxPX4/sFdpGLvAsZyj8oRlnLWhIKRXhTSEzekNbwkBWrRooa5nbqhLEVBdTuexNMRFJ41xOb179+5qD5DCID0dzCUmJqqPsU6Gecj1Sg+JV199VdtbuMyLvZov5urUqaP2UpEAw5zcfqnPYs78PHJ65tBHjqOrXr067r//fvW50BcJmzIfk4qePAcylEqeDwkXZZEipLKvpD0/Z8+exbuzZmVZdG+MGaPOvGK+HDlyRDuViIiIqGS7v1GjPC9UskmbT35MPnf+vPpDd/v27bVTio7Ngw7xww8/pIUd8le2S4LLsfKLvKkuh9TekC41+iKzqkjDv/EDzdTzSqFSoZxbDUbuq1tXrS9y+ZLpV317II323HpVXL58We1hkrluSF7JMBoZBiMNsh9//DFL+GAvLAUtRTkNMGWlhxwSbBw9ehTz589XF1kviWGH9ISS90nmhYiIiIiopNFrcjg6OqolK2Q2FksFSm2tSIIOIeGG1I4oKSGHkIKj8qu8TBdrTrbLV3BCuXLl4axNHythiB52NPJsgvvqNcDf8XE4f+6Muq8wSIMmc70Nvd7DpUuX1NNF5iKhUo9DJ+cTmYODGjVqpF3eEr1QqNRMyelFKENRJBDJfPy8kjoj586dU4+n1xIpLgkJCWpvmszhTZUqVXJ8zHIjl5X7SSXLG2+8kRZy/Otf/8Lt27fVRdb1sEPOY0sZ53AqPiXldhARERFR6aeHHEKvyWGpQGlRKLKgQ0j38JLk9u0kHDn0O1wqVU6bJUaSp1u3bmLnT1uxcf1aHNgbkd6bQzm9Zu06eNjXD+UrVFAvK8NfCkt4eLjalV4vVimBhhRvlcdNhrBIIBAXF6fuk9OkYS49I6SQqk7OJ+eXF5Fe3FNCBKn/Ice3RD+W9KyQcVRyvJxmB5Gimvfdd5867ESOLZeVv3IZawMLKfgo4YtcVq5f6oOY04feFEUAIvc5KSlJvS49RJLgR+7jtm3b1O38kGEu0vtFD5H056so7hNlb/v27WrhUT3k0Olhh5wm5yEiIiIiIutYCjl05mFHh0ztPluxOuiQ4RwlQWHdDn0a2ag/DiDmxDFUqVIVxtRUtTdHstLgORtzEufPnkbcX7Fp5236oBe69eyNmrXq4Hj0EeWyB9X9+ukFJb0bpGioNPqloT9s2DC114M+jamQqU2lp4DUtNAb0DExMepfnZw/NjZWnfFDjiN1N8LCwtIKg2Yms6xI0Uy9eKk+S4ve6M9MjhkSEqKuP/7445g8ebL6V3pAREVFqftzIy926UUhl33++efVkCUzGfYhYY1My2prH330kTpUSR5XuX8NGzZU76NeIyU/5Dhyv6Q2jazL85WXx4hs4/Dhw+pQFfOQQyf75DQ5j00V0mdGgZWU20FERERkh+Tn8j8vXjRtWEHCgb/++kvbKj1yCjl0etjx8ccfF0nYYeqqMOmwseFXfdXV7NSpXTvHYpZFRYZNXM7hya9fr562ljsJKKS3hkwd26XH42jU5AEkJd5Sn5iYk8dxJV6ux4CqbtVRx90D99Wtp04ne+JYNMJ+2qac73baMajoSc8ICYVY84JKGhkOdV1ZbEmfvUemLy5pU+ISERERkcmXwcFqeQHpLZ4b6Vm/cOFC7ImI0PaUDvLDdHnltlszhaz8CL940SK0aNlS21O4zj67CZjfUmuhWxF0VHdzs8n0n3klvRmuXL2qbWWVl6BD6EGFg4MjWnn7wKvlQ3CtWs0U6mg/dsrpcr64+L8QffgPREUeQEpqCkOOYsagg0oqq4IO5fND+QDRNooWP7uIiIiIio61s45cVdq5Ja3cQ2mT56DD2dkZNWvU0LaKT/zff6v1FLKT16Ajs4oVnVH//kaoXcdD7YIjpOeGzNBy/uzZQq3JQQXDoINKqqLo0UFERERERBnlOeiQX/883N3VYp3FRepz/KnNKpKdggYdREQFJSGHhB25Ka6eFezRQURERET2SA86rC5GKl+ME27c0LaKR26/kGaeJpaIqDhYGyIUV9jAkIOIiIiI7FmekoGbN2/mWlzEVmS4itTnyAmDDiIqCcrlsedbUc19wjlWiIiIiKgsyHMyIDUy7t27p20VDRmy8veVK9pW9opzWA0RkS6voav0r5AQQnrO2YJ+XPbjICIiIqKyIM9BR2pqqhp2yN+iINcTFx9vVQOgQvny2hoRUfHJz1TcEkLYYkiJ+tnJoSpEREREVIbka6zH3bt31aKgOc1+UhgSExPV65Hrs4bMDENEVNykR4c+a1NeSTBRGL071Mtrx2DMQURERERlSb6LWsiXaOnZIb0trA0irCVDY/6Ki1OHq1j7Zb8gDQsiosLmks/gVXp1qMFEAXth6Mdg4VEiIiIiKmvyHXTobt++jdjLl9VgQi1WeueOWlMjL+T8cjm5vBznUmxsnoueulapoq0RERU/FxeXAtUNMo8n1LhXC33lv3oALH/TomDzdcGAg4iIiIjKKNM34UmHjQ2/6quulkblypWDh7u7tkVEVDLITFFXrl7VtoiIiIiIyJbOPrsJmN/SUOAeHcVNumXXrFFD2yIiKjkqVaqk9uwgIiIiIqKiU+qDjlo1a6I8Z1shohKqRvXqrB9ERERERFSESnXQUaNGDTYgiKjEk15nFflZRURERERUJEpl0CEzrNSpXTvfsxoQERUl+cyqVasWiyYTERERERWBUhd0VHJxUUOOChUqaHuIiEqHqlWronatWmoBZSIiIiIiso1SEXRIDY7KlSurM6tUr16djQQiKrVkuJ18lknowcCWiIiIiKjwlcigw9nZGa6urmoRv/s8POBepw7cqlVjwEFEdkOGsUjvtLr33afW8KiqfObJZx8RERERERWMQf3vpMPGhl/1VVczq1ixIpwqVFB7Vcivj46OjtopRERERERERES2d/fePdy5cwd3lSVZWWQ9s7PPbgLmtzRk26NDek/Url1bnb5VelfIL40MOYiIiIiIiIioqJUvV06t2VmtWjW1Z7SbmxsMBlPfjcwsBh2VK1VSLyg9OYiIiIiIiIiIShLJLaTMRYXy5bU96bIEHZWUM0syItMhEhERERERERGVRDISpU6dOlnqeWZIM+REKfpJRERERERERFQayEQm5jIEHXJidmNciIiIiIiIiIhKGpk4RWqL6tKCDicnJ/VEIiIiIiIiIqLSpErlytqaWdDBkIOIiIiIiIiISiPzOqOmcSqTDht9drwIF2dndZOoJEhJScHdu3dx7949pKamqtuyEBERERGRZY6OjmqDT/5KDcby5cur61R6GI3GPJeUyM9l7NGvjy4H5rc0pA9dYY8OKgEk2Lhx4wb+/vtvXL16FTdv3sTt27dx584dhhxERERERLnQfyyU79DyXVq+U8t3a/mOLfup5MtPYMGQI6O0oIMpHxUn+UC+fv26uiQnJ6uJJBERERERFZx8t5bv2PJdOyEhgT8gljDy/BR2+8cWxyxN0gexEBUDGZKiJ81MmImIiIiIbEt6Sus9p+W7OBUfPYiQ3hiF3SNDP15ZDTsYdFCxkQ9WSZSlWx0RERERERUd+Q4uw1kYdhQfWw83sUWAUlow6KBiId3lrl27phYaJSIiIiKioic9qmU4C4eyFK3i6GVR1np2MOigIicfqBJyWJMeSwIplaKdnZ1RqVIlVKlSJW1xcXGBk5NThmmEilpZHvdGREREVJbZy/dA/gBZtOR1Uxy9LOQ6y1LbhUEHFSl5c8l4wNzeZFIcV8KM6tWro2rVqmrIIWGHBBv6IkGHfp5q1aqpp9uSpdtcVruCEREREZV1mb8HluZGpP4dncNYbKs0v0ZKG9O7c9Jh46O/jlRXiWxJusblVHRU/sGQAKNixYr5ChEkiZYPaSbSRERERFTUpCFbmn8Ik57U8iMj2YZ1rw8JQ0znqVKpPLzqVUD9akC96o6oWUnZ52TAzTtGJDk448INB5w6m4BDR6/hekp59TLKlUijyrReBv366HJgfkvtEWDQQUVAn8s7O/Kmlw/WcuXKaXvyRz5Abt26VWhFTkv7P1hERERERNaqXLmy+qMjFQdTyFHZpRwe71wf/bs1QPXU60i4eBlJd1Jw714KUlONqN2wDmo3aQCUu4OYC9Wx8VZ7nNjxPU6E/w+J96Tdkh6WWGLP7Rs96ODQFSoSeviQHRmqIsNPChpyCHnTyge09AyR6y0IhhxEREREVJbId/aCfocuLJ6ennjzzTcxc+ZMPPXUU4XSVigO1jyepiaHAc0aueI/cx7D2MBWaOThDKOhHBKSgTt3U4B7yXBzc0LNejWUg97Fn5cqY73zs0hu1R5eb8zDCy/1RaNq0rPdoPwv++uU9k1JeY5thUEHFYnExMQc30yurq5q2FGYJOgoSN0OhhxERERElF+F3ZB84IEHtDXbktst392Lm/QqGT58OOrWrat+r+/YsSO6dOminVq0atasqYYu8jevrGlTSCghLxefppXxr3+2Qb3aLvjzcg1EpvwDd8rfBzcnoBwq4F4Nb1yv1x8nHLrg+I2W2ObYG4lV3WG8moBrd1Jwtd0LCOzXFK3qKter9ugou2GH6RHn0BWyIamXIZWcsyPDVWQ8YG5kdpU6deqohUkvXryIpKQk7ZTsyZtXrjs/U2ZZ86FERERERJSdwvo+2bp1awwYMAAzZszQ9tieFPwvqtkNJczw8vLKcH3SRnjkkUe0LZO//voLv//+u7Zl8vfff+OPP/7IsQ5gQXl4eKg/oEr749KlS9pe6+T+GpCwwYB6NcvhX682QYPG9ZCQWAU/OvRBlNEdVS79juZ3juBK/Y6Ir9oYtx0rKud2wN1b13GvfAWUd1SO7WCAIeUekh1c0OroajQ49V/M33YXl64qx5YwI5vrt3V7R3rsDx48GLVr18aPP/6IPXv2aKfYTrHV6JDuRv/4xz/UO1paCkbKk9+wYUOcOXNG21NySRDQtGlT1KpVCzVq1MDVq1dx9uxZHD58OK1mxZAhQ9QeFMuWLVO3bU26v2UXSkg6K0tO5EOvZ8+e8Pb2zjBe8MKFC+qbZcuWLTmGHhJyyOOQF/KmFww6iIiIiCi/CqshOWHCBLRo0QKzZ8/GqVOntL22JQ17+YHR1h588EEEBgZqW/kj7bSlS5dqW4XPpkGHcnr58ga8O/Q+eHvVRgWnyogy+GLZpRZIuHYdrs4VUbdZE1RwrQjjnWQYkAqD0r4xODiiXEVnIDUFqcnJgGM5GJW2durpw+gauQCX4m9j8c6/cDcltdiCjscffxzdu3dX1yWIeuedd2yeAehBh2mswKOvzWhwbpO6aksScrz00kto164dKlSogOPHj2unlGyNGzdGgwYN1KlMJUUsieSxlXFrzzzzDJo1a4b69eurXavq1auHli1b4rHHHlOHhsiHQO/evXHfffdhx44d2qVtK7vpZOVNJYFLdm8u+TAZM2YMAgIC1PuReUyeXLZ58+bqm0c+cP7880/tlIz0ZDivKa9hYBDWfzgK7W5+je1HtZ1FaMLKHZj5ZB2s3rBb3R6wcD0+HNUON7/ejmK4OXbjuZmrML6rC77feVjbQ0RERGQ7BW1ISiP7ueeeU9flR799+/ap67YmU80WZBi4tdq0aYMmTZogKipK7a0RExOTp0V6g7i5uak/pNuKtAOlB7o+w2Ne5fgaUE573Kcy+vrWQKLSXKno4oZN11vh2PUKcEq5DTf3Gqhe3QWpt5NQXnp/KP+v4FwZjsrKjWN/IPaXHxG3PwLXz11A3PW7iL/jApeLx9CkXALik1LwZ0LOwYItgw4Z7iNtaSGvp59//tnmUxifa9AX+PWjmaZ7VQQ9OqSxOWLECHVs2blz5/DJJ58gWZKnUkACgoceekhtWF+5cgWHDh3STikZ5Pa9/PLLaS8i+YD47bff1NsqgZL0iOjQoYN6++XDQHp7yJv1rbfeUs9vSzn1ppCEOLsPT/kQl6JDEjDJMX799Vds27YNp0+fVk93cnJSw5t+/fqpXaGEvKbkzWOJHEMeD2vfyGq6KUHHa41x6qMBmLBeO6EISdDRC9vQY8RCdVuCjtcan8JHAyagGG5O9jx74I3APmjlUVX58FUkXsKhzf/Fsi3HYN7PxrXLCEx66lEoZ1NdP/cz/jv/cxw0P5NVx3JFlxGT8NSjHjAd6jrO/fxfzP/8YIbrM/fgyPcwyec6No+djfKTVqEntmPY9C+1U4mIiIhsozB+MR82bBg6deqkrksjUXp35LW3cn5JgFDYdfQyk57bPXr0wNdff52vEGfy5MnqMBtbtm3y26PDmue/WiUHzAiojfp1KsOhXAXcq9QI/77WF+evJMOQeg8OFZ3hoBzj/oa1UMmlPJyquiHhVDQu/vYrbp0/gyqGVJSvUB7Jym1LrVYH1x7she7YhadcfsbRv4AF6/9CQqJtw4XsSJvN399fHYb0008/FUlHhyKddaU0hxxCGsky7ishIUF9E7Vq1Uo7pWSQxr6EHBICvP/++/jiiy/UF1F8fLzay0FeVAsXLlRDDknVJOQoKtk9z/Kmz2naqlGjRqkhh4y5e/vtt7F8+fK0kEPIcSW1HTdunBqACOnyJvfPEvmAltCHrNdlwjKs/3ouBmjbFjn3wP+ND4BPzbs4+s1izF8cjF/jq6LV0+Mx6Tl37UzK2TqOw7svPoqq139F8OL5WLH9FNCgK8a8OwJpz5hVx3JGx3Hv4sVHq+L6r8FYPH8FTIcag3dHWH7ugZbo2awmEk/9im+zH+FEREREVOikkWupZ7O1ZCZB+cFSSLgh7Sp9KEBRKE1ttpLImpDrwboVULeGkzp9rCNScdPBDVcu/QXj3WSUd3VTe3BUdHZSXgsV1X3nvl+DmG8+hevRvWgXfwJjAp/Hu2+/hdatWwJXLsJw7H84Fl8BiYZqeEA5dtP7nLRrKnry+gkODlZLJhT1aA6bBx2lPeTQldSwQ4agSAViqVchj23mhFGSRwlB5Hzh4eEF+qDNj+zGYEnokN0bX8bpSeGhO3fuYP78+WqNEd3TTz+Njz76SC1sI+R5+eyzz7Br1y71tSb1R7IjiaK1Cpq82wM3d3dUzi0c6uqLxi4STLyD97ccxLGDO7By+jIcuF4eDVr1hKm/jjue7tMKVa8fwLLpK7Hj4DHs+nI25m8/h7s1ffC0XjzbmmO5P40+rari+oFlmL5yBw4e24UvZ8/H9nN3UdPnaVisw92lD5pVvY6jm3dqO4iIiIiKTkG+V8osIzJ8WwrxS4NRdOvWLcuQblspypqK0r7Ky/f10sCatlfL+yvCsZyDWmBUzp1qdMaNn7+E4+FQIP4ikHQTFe/exN97f8WZrz7FX/vC4dvWB0Mf74bWp/YjJeqA2mPioWYP4OrFcyif9DfiYq8g7LgjXMo5om3jnIcfFXX7sKjYNOiwl5BDVxLDDr0b29atWy1+EEnAMXLkSHWREKCoG/DZvXFy6gIn3dfE999/rwY4mUlPEHltmfvvf/+rvrakZofU87DEmpldKD/u4m6ieVeJeHV8IfSaKO4yFEXZe+gbmFfFiP3uKC7BBQ18Omp7RM7Hcu/TCh7KvkPfZDgSvjt6CXBpgAyHUjlj0KON4XLpADJchIiIiKgEkMCibdu2ai8N6eIvPZTHjx+PWbNm4cMPP1T3Camtd+DAAXU2QfkhU374e++99zBlyhSMHj0azz//PPr06YNHH31UrVlRWIqiEXzjxg21nSXf41955ZV8hzgyzKaksabtdX+t8spX3VSkptyDc6XKiNp/EC0bN0CTquXguH8LXH7fiqSd6xG/Jwy4cw/lKzqjg3cL7Ij8A3GpBiQdO2yqe5FyF3fUx9KISuVTEH6xEj7ZUxWOhux70Qt7/YHXZkGHNERlPJmEHFKwRYYZSANUehfkthQX6SWQ2yLDPqSHgRS2lLBDCn0WJyncI7flxIkT2p6MpC6FfDBaWoqCfGhZkjmoMOfj46P+DQtT3syZfPPNN+p82nK/zMkH5MGDB9V1/fKZFc74wrZ4ZsZKrN+c/jhuXr8Sc0d1QR3tHLrGfaZg2dfr0x/zzeuxcoqpz8FDA2aop23WT9uxHqsXjlKOboUuY7H4681px12/cgr6ZLryts/MwMr16edRr3vuKHTJcL62GDXX/L5sxvplE9BlwEKsV7Zfa10ZqNwar6mnrcfCAYD7czPxyapPMLW3lgxv2Y5D113Q6un/Q+8HlX3O7ug4Ygx8a17Hoe3fmWpm+EgtjURcOhqrXiRN0ilcTwRcqjYwbVtxLB8p8JF4CVkPdV25Bhfoh0rj/jR8lI+UUwe+QaaLqDVD5n6wCqtWybIUc8f1SB9Go/FUzjPzg0+08yjLJx9g7hu9ITdP98i4pVi1dBw6tnlBOa9+vA8wddCDcFaO2GPcXCzVL//BTLzQJmOq7qxeLv06lr73fxhkfgVERERkt+SHSmnYP/vss+jbt6/aU1vaF9JukmErQupCSM9sacyGhoaq++QHPJl4QGZb1IOSQYMGqT+CXr9+XT1PYcjuu3xhkvsms8nIMHsZui73Jz8k9JFJDHJqZxQ1a4Kimq7lcC/ViErODrieYETE73/h5TfewGMP1IUh+RYqKG0YR4MR5Z0rQSptVHBywomPF2Lv1i0op7RNjRVMPwIfOXwERsdy8qTB4e4d5fxOOJnohtA/04eTW2LLMEvazxJeTZ06Fe3bt9f2Fg2bzbrywgsvqKmckGEKUk1XXrTWLNLoKg6+vr5wd3fPdZEpXPVGs0yNKh9CcXFx6nZRe+KJJ9TpWy2FAkKmlJUpqCwtRUFumyXSK8NSWisFSgcOHIjExER89dVX2t508gEuS3R0dJZjy3Mj/zDI8J3IyEhtb0ZyXKt59cSz7arj6l591pW2mLByJga3qowrx3/EV598jR+OJ8H9/lZo3a4j2tY5jg27TTO/1BmwEIvfaI/qSeew5/vPsfr7w0iofB/qVDiPDT8dRYcXRqAdTmHX9m/w9fd78KfzA/DxaYfW9X/H+v9dVo/R4ckX0EQ5jz7rilfPZ9GuemU07qS03H//HqtW78H1WvejSZPmaOd1B8E/RKnnazthJWYOboXKV47jx68+wdc/HEeS+/1o1bodOratg+PK8eRWDli4FC/4OCM27HMsCf4Bx5PccX8DZ5xZ+Tm2R+/D1Vo+8HI+hXXvfYJ1//sf9hw8j1uNuqJr4yq4fmQrwk5ID6KL+G13Ipr17IrOXfvgqT7/gE+Diri4fT7mbflbvT1o2x0DG5fHxV+34rcMacNF3O/7FBrXTMSlLeHKVu7Hatt9IBqXv4hft/6WMbi4eD98n2qMmomXsCX8orYTaDlsGHrWvITwxaE4onV4atVVuc6qVdGuVU1cDQ/Gis3Kk+vRDC0e8MEDVSPw0++mStqez83EJP9WqHLzBH4KXoFvlBdBYp0H0KJVO3Ro5YKonYchZcDq+vVBuzpV0Ni7Ks5sXIUvIq6jZoMH8IB3CzRr1QEdlOvfuGIVfjpVHg2Ufa28G+P6ll2Qyaqldsm8Ub6orl/HgUQ0aOUL387NcPfHMKgPMREREdk16cF85MgR9cc6vabczp078fHHH2Pjxo347rvv0npuS50DqU8np8v33datW6ddRtoDMsVqYfegl/aOrcmQdRkBIEGPtLOk94q1ZIICfYIDKRoqbYHCnimzILOu5NZjord3JVR0NOBykhuWbr+F2/ec4N20AU599w2Sb9zENbc6cEhJhVFpuhuMqUh2cED9C0fRMPkGHur4GO4f/CJOXv4Lqz9bDcdy5eF4f0s44w6M9+6ggoMRhnIVcPnCOe3asrJljw4ZZvXwww+rbT8J5X755Zcim3XFZnHXnj170hJAaVzq0/9YsxQX6Qpm7aJPVSr3MS+VdwubfCjkpcimpH0yNKRr167aHtvK7o2TXdKqj8vLbjygpNsyi4yl+6yHGLYa21dn7Aj0alABsT9Px9AxC/G18g/Mzq8XYszQ6dgVWwENur6AZ9RzPoO3A1uj8pW9+GjMKMxYuVn5x+hrLJoyAiOmmOZLWT9lKJ4ZNQUL1dM2Y+WUlfj9CuDe2DRsJ1uVq+PK9pEYMWMlNivHXDhmDvYqLf4K9duZiobWGYsRvRqgQuzPmD50DBZ+rdxG9XxDMX1XLCo06IoXTDcSjd0qA1d+x7K5X6v/WH69cAyGTngPuy//gd3KduwdOdcdxMr93Lkbf1wGYr+cjleGvYLZW7ThJc4dMe7dADTDOfy8Yj7mS3HQo9fh0XMaZj5n3j/iOuJNHW6yZ+2xrscjt0OZPIKezapaLkJatTzOLXsL//pyl1YL5DscVd7SHo2194XzIAR0bQBc+hnz3/oXvtx1DMekHsi/3sL8X+NRvsGj6bVFhPIP36XvZmH5joM4tutL/CsoAvGoicYel/DNO+9jy8FjOLhjORZHxCvfFjzQqo1cqCVefKoVqiYewn/f0a5Duezsxb8ivnxjdH3xQfXQREREZP/kR8jp06enDduW2hxSs06GzGduGMoPmeLFF19Uf3CV9ojU75CeobZuRNqS3FchM0UWhPQiKE1qeXfFxSodsXJ/dZy/nIRb169i74pl2Pu/XahZyRkp0uFCeV5Tbt9SGkl3Uc6xAqKqNYBPq5Y47eSKb8PC8f6CD5CSdAvG2o3g0NgbxjtJKFfOEQblvCnKZXJiyx4d5rMDSUBUFD2EdDYLOo4dO4aVK1eqd0YSHAk+pNqqNUtxkWlZrVmkGJAkjfJBcvjw4SzDKIqSzEoiKau1b2jpDibTN3l7e2t7bCu7oCO7F7kMQRHyAZfXmhrSfU8UZnc9c30by7iIk9g9N/O0V/uwLFpNG9Cuj7I5oB3qV1DOuXsRNps6Z1jQGH3GzsVi5T3y9frN2Lz5bbSrrp2Uo3M4tcj8oH/g98s3gcpuyhEVfRtDvZW75yq3KqN9y6IRiwqor95I5R/Uq8rlqrfDW4snYMBD2piWy5eR7U22oMuYALSqGo9fg6bj87Qw4B18p86EEoBBaSMwXOCSXa+5u3chH79WH0t5vWd/KLMP8i5d0dglmyKk10/h1ww1O3bgnOSVNT3wiGw+qjyO5e/i3K+fI3P0GhN8SK0t4mFKK0zuXsKhHWZpSuxRXEqU3YeQcfclJKK85CKAuy8aKy/Z+EObscs8iIlRjq9ctqaH5SFYREREZJ+kTSFDOPTh2AMGDFCHYmQmvcvfeecd9a/80CezLtqqR3xR1m/Q6x8WpKe8/FgqPb9Lk1+P3sS6iJtwKF8OlRzvIf7adfx1NAoPN2sMB/e6uPP3ZRgqVUa11g+jfI2aMNy8jrjKtbHwWnl8dvAkNm7YittX42F0rQWHtr1hqOqBq7eNuBFzBClJN3E3KQ892guZDEuSuovympa6MkVR80Vn0wFMUjdCwg65QzLu7KGHHtJOKb2kMS09CsShQ4fU3h3FSZ+mR7oFWUMPOIpqep/s6mJklzZLQ1VPslu0aKH+tZZ+306ePKn+LWxulSoAN29lqfUgLt9Ruz8A0tGksRsq4yZuncsuMhiAuV8vx5t9W6MObuHU3l3Y/vkc7LJ04MxuXkWOg47cKik3QbluyzcSpltp6g2zfsIcrJBeHl698FrQF9i8eiFGZSzikYs2aOXhorTUj2JzhjQgCVtOXQLKN0CztI5DFupnKJevWVX5o/bQyMOxXKqqYU4GbWrCdCi9r0cuRUhz6xVS0wXlcReJ8dq2uSRTMJMhiLubiIxnNQUudzMfwDxQb1BVeVSUq/KdlFafw7SMQivb9xAlIiKiEkiGnSxevDhtGLaEGZlJ72W918PcuXPVYS+2Ujg17nJWu3Zt9OvXTx2eLvbty/xznXXkcosWLUJ8vKUvcCVXyJZjSLmjfL+8+heSrv4No6Ec/q5WB2731cXeuBtwrNcQ9Ye+itr9/FE/4GVUf6Qj7lyLQ0riTVR0MKJSpYq4V68FHP4xDI5Va8OYcg/Ghg/h2oUzuHpkH+JOFG9F/l9//VXtcVTU7WabV2oxDzskkSzNYUdJCznE7t271XDAz88v11lg5LGXcW/S3U2mYy0K2aXA2Q1NEf/73//Uv1Krw9oUWWq7SG8VKdYkvW4syfBrfz7ckpSgciWLvQnqqENp7uCO9M4ynRGVsut2MKon2lW/g5PrhuOZEWMwRfkHatHXhdQrKKfrrlNBjTjuqDdS7MPXM0ZgQI+ReO+rXYit3BoD35qBUVZnHVrPhGwpp0v6cOAS4pUmfc1mmQpsOjdTg474SzIG07pjHbgkQz9qIuuhJOiIh3ookUMRUqtclzCjvFxVVs7KbVH+JCYWsOfQ9URIvn4pIkidRjnLsmKz6XxERERU5ug1J44eVQvFqZMgtGvXTl0/f/68+p1X6OezlaLo0SE/VkoRVRnaLm2U/PbI+PrrrxEbm69vfsUqIS4W8cd/x1/H/kBKyj212OhJY3l8HHUWic06oVLXIUi6kYSUxLtwrFoF7k8+hWrPvAHDo88i1XcgjN2Go0L3oShXtSZS791FamoKHKvXQ2rlakhWjnfrbtENFylJbB50CD3sEKU17CiJIYeQsWySkEkPCZlWqnPnzlmSVyn6KR+Mzz33nHq+okzUspseSmqLZNd1afv27eoQFilYI1PimpMhUCEhIWlj+IQk3a+++qq6vmHDBvXYlmS331rrjkpPkSboMCVzJei2GOXlDlw5hZ0ySmLdUajn7DDF8iwq0jMEd3Ar1qzHR9uBaJxdMJIXOVx321FecMcVnFJvpLlT2L5yBkbsOgdUcEfjDtruXB3CuUt3lTdHM/TJMF2JO55r5qH8vYRTPyt/jv2Kc9cBj1YBGWY18QzwQQPE49Svx5Qt64517NdzuA4PtArIcCQE+DQA4k9BPZSi5dM+8EhUtrMU57DSz0dx7m55NHj0hawzsQTIFLfXcU6/svw6dhTxMkSlgQ/uHpOhOpmW8+mvcSIiIio7pMHfqFEjdV1CjWeeeUb9EeS1117DzJkz1V7P8l1BPPigbWt65Xeq1/yQ7/FSeLWsuZlwHdfjLsOxnNKGcyyHcg91V2dPKd+gBZzua4qE2L9w8uw1xPx+DKfWf4ff/jkK57/4CIYmbeD4wCNwrFkPSLmjhhxGB+UYqSnKccrDULkG7qQYccdYdMOPLJHXkF5ioCiZWsQ2mHUlMxlzJtOySjVh6XkglXAvX85LNYDiU1JDDp08llKlWKouy+2UysOenp6477771KmmnnrqKTVckjF8a9asKdJxa/JBrRdMykwKilrqDie9Pf7880906NBBnZ64fv36ai8N2a9XpdarSUsV30mTJqmztUgRp//85z8Wh8VIqCIFcPI0LizTrCu3Ii6jTpdO8Pbuip7t7kOFpAqo5TsI4yYNg497En5fNQ3Ljt6SM+JynS7o5O2Nrj3b4b4KSahQyxeDXh+HEV0csSGiKvp2bIS6jVujVtId1Oz0EiYFeqHqHWflmOmzrFiedeUq9n69HaZs30Tdr1z/qdUbsDu76x43CcN83JH0+ypMW3YUMl/NhJXrMaK9O5xTnFGrRXe88o92qFvhInYv2Yx9yhncuwxEp0Z1Ub9xCu60fhpP1tyJmLYz8f74ALS++yPCTiThyJW6eLTDA2jW4VE0k6nLa/uiz4tD0blBRVw/9DUW7ziPe1Ben24+6Ky87319auLu9UR4dB2F4V3rIflQMIK+l/Pcs+5Yf52Dm09n5TPEFz417+J6oge6jhqOrvWScSg4CN+fl55CXTDsRV+4nNuMj3bJ3CYZqbOuKI/r9zszduNT97v8hX0yA8y9I7hQ2QePKo/jo482Q+XEeNx1aYaegWMwVLkPNw99gffU263NuqI8L+rlTIdS1IVfn3aofnVfhllglDOjj7ym9m1B+MUzuFTVdB2+vo1R9fYV5ToawKfnUwgI7I66W3eheDsaEhERUXFo3Lhx2sQBMnOlfL/XvzNXrVpV/Y4sf2UYrfyQFxERoZ5mC1LsNLtJBAqL3F9ZZLiOtAHySp91xZYzdxZk1hWRY88Y5TSjwQGVnCvCQWnHVHroMdxt0wfl728Bg5Mz7l0+B8etnyL560W4+2MI2pRzRmvjPcRXdkNStdow3L2tXF55fSjPk0Fp6hhS78GlciWUO7sff126iFTH7LtNS9vIlr12pMf9+PHj1R/jpVdSVJRplkhbsvmsK5boPTukEGVBhxEUJXkByFISQw6d1NxYuHChGgjI4yvprrygJPCQgEOGuCxYsKDIi/PIh3J2H47ZBSBi//796pRacl9k2l+5b8OHD0+bXnbw4MHqXNkTJkxQi7FKyCH3L7vXlXwoZVcXxBLLgcg+LJzyHtbtjUXlxr0Q+PbbeDuwF+pXOIefP5iACevTg7t9C6fgvXW/40rlxugVqJzv7UB0bVwBV2Va3+2L8PnP53Cnemv0ffNtvDmwMa5ufw+7Cmn0ium69yLW7Lp71a+Acz9/oDxe69OKjZ6/fAfV2/U13Y83n4WX3I+PZmCZdoadi75SZ3Rx7xiIN/s2RuWMs/maHF6Od+Z/g0PxLmjWNQCBAT3hWzMRp35ehnfe3wW9P0Xsl/MRtPkoEms+ioAxkxDYsyYSDwRjsdl5rDtWLL6cH4TNRxNR89EAjJkUiJ7KeQ4EL8b7ekXPHr7ZFyHNgxi5zd8cUGdA6Rk4CZPkuhooH56Z7ltBmK7jEK5XbaVdxxgEdG0Gl3OncEg7DxEREZVeefqRTSM/9OmkAS8N6y+++AJTp05N68mhD1mR7/y2aqjKd/iiqNFhz6x5buQ1cjslFYkpQKV6DdC52mXUrVsT98pXkhPhWLkqUvftQJWrf6LTY/1wf5OH4FalBureiEOqwQGm/ylS7qGcQwqSy7viscpncX+5i7jj6KQeo7hIUKfPiCmlBmw1O6Ylpkd+0mHjo7+OVFeLgrwx9XFlpYV0uZHGcmkh6aubm5tatTinQKEoyIezpdsgb2q5jTl1iZNuezIkp3nz5tqejOS4Usl306ZN2T4/cj0yE0tenj+5TFGMSaTC5oxBUxehj8uvmDzl8/zV5yAiIiIqJPn5TvnPf/5T7Y0tP/jt3LkT69evx61b6b84SeNRhrPohUplBhYZ4lLYpM0mvaZtTX6c7du3r9pLPT+9JaTXgHzPnzZtmran8Hl4eKS1YS9dkqn6rJfba0A/XUKlph388FJ9I67VboZd9/XC8ZjLcHatguR923Hfho/x6MM9kWq8i8dae2C9U31sr/oQqiBFnYLWqbILKjpXgnfyQbT9+1u89+0pXLyaKleg9hqxxNZtHqkjKXUXhUw1O2/ePPU6benXR5cD81tq96qIgw4qW+RD2nwOZXPSBUy63uWmXr166rAnGcYiXcdkil/pISRTFenDWLIjPVpkyQtbv+nJRtxfwNx5jyJx81jMzm99DiIiIqJiIt8/ZRpOGfL/2WefZVtcUxrFvXr1UgMCqV/3008/aacUHvlBsih6dEiYMnLkSLi7579gnTwGUsvPVmwZdKi0MMLDoxZGtKiB6uXuIumhTjhZrysiLhlw7R7gHLoafS4cR4/ej8DZBZhwsxn+qt4QTneT4FyxHOo7JcIvJRKNbu3G+xvP4fczd3IMOURRtHnat2+vzhL022+/FcnoCAYdVKSkuGh2gYQMPZHFFmTcovTmyM8bmGEHEREREeVXfr5LVqtWTe3RLD/mWUN+MJQC/vmdkjU7MsRAflwkE2mryOMhbZq8/oAq8vJaqFOpHIa0r4dqzR9BfOW6SE6Kxf7UVjhtrI37j4bjxdqJ+MVYB79U80KlpMuAgyMcKldH05t70CJuB77b8zdO/5UMA4zK/7K/Tntt6zDooCKVU68OIUmuPtawsEhNDrlOeRMTERERERWl0tyQlMKRti5CWtZY83rQz+NU3oCqD/cCmnZAl3LheMgQhZP37sdZh4ZIuJGitJsc4JL8N45V8YNj9YZIijuHxD9CcWX/z3BUnzZp/9hfiGENBh1U5LKr1aGT5FgCj8L4UJWeHJK4FjTkKM3/QBERERFR8SjN3yGLqjYHZSc9pHCoVA3O9R5EpzqxaO1+ExWUZlKFihVw91YittzriuPJdXHv1F4knYlCarKpjktZ7cmhY9BBRU7eVLkVBZWQQ8Zw5XfObrkOvSZHYb2BGXYQERERUVkg38FlOAy/+9pOcbYt5LpFWQg62B+Jioy8oSTEyKmokT7cRHpj5GUKYrmchBtyWSkSVJhvXv1Y+gcDEREREZElpfn7ovzgyJDD/pWV55dBBxUp+QCVQj45vcHkNClcKr0/9OAiu380pHeIDIm5cuWKGnRI4EFEREREVFTMv6eW1kak3G6GHEVDHuPiCsTK0vPLoIOKnHSJk4rS1gxPkSKmMm/433//jfj4+CyLTFGUU92PwsQPfiIiIiLKrLR/R5Te1kU1lSyZ6K8Z9hi3HQYdVCzkg1RS4woVKmh7iIiIiIioKMl3cfkBkjOs2CcJUspqmMJXNBUbSTKlZkflypXZW4KIiIiIqIjId2/5Di7fxfk9vPjYsmeHfsyy+vwy6KBiV7FiRXWubplelt23iIiIiIhsQ75ry3du+e4t38GpZLBFGCHHLMshFoMOKhHkTShFSqXrnHShK8tvSiIiIiKiwiTfrfVhKrlNDEBkDxh0UIlSvnx5tQtdjRo11A9hSZylaKmMG+QHMhERERFRzuQ7s9TDk+/Q8l1avlPLd2v5ji3ftal0Mu/5zl7wuTO1HCcdNj7660h1lYiIiIiIiIiotPn10eXA/JYG9uggIiIiIiIiIrvBoIOIiIiIiIiI7AaDDiIiIiIiIiKyGww6iIiIiIiIiMhuMOggIiIiIiIiIrvBoIOIiIiIiIiI7AaDDiIiIiIiIiKyGwb1v5MOG/9xcJy6SkRERERERERU2vzY5n1gfktDWtBhnNdCXSUiIiIiIiIiKm0Mk6PUoINDV4iIiIiIiIjIbjDoICIiIiIiIiK7waCDiIiIiIiIiOwGgw4iIiIiIiIishsMOoiIiIiIiIjIbjDoICIiIiIiIiK7waCDiIiIiIiIiOwGgw4iIiIiIiIishsMOoiIiIiIiIjIbjDoICIiIiIiIiK7waCDiIiIiIiIiOwGgw4iIiIiIiIishsMOoiIiIiIiIjIbjDoICIiIiIiIiK7waCDiIiIiIiIiOwGgw4iIiIiIiIishsMOoiIiIiIiIjIbjDoICIiIiIiIiK7waCDiIiIiIiIiOyGQf3vpMNG47wW6ioRERHl3+o9Rqw7aMSBc8DVRG0nlTpuLoBPA2BgGwOGtjd9XSIiMhe+9wAO/n4YZy9cRGJikraX7IWLizMa1quLNq1bwq+dj7aXSjrD5ChgfksDgw4iIqJC8MdFYOzXRuw/a9T2kL14uKEBi54x4KG62g4iKtMu/BmLr0I2oFIlZ6UB/DCaeDZE5UqVtFPJXty8dQsnY84ifO9+3LqVhGf9+6Pefe7aqVRS6UEHh64QEREVkIQc/ZakMuSwU/K8yvMrzzMRlW0Scnz4ySr4tWuDUcOHwrtVc4YcdkqeV3l+5XmW51ued3n+qXRg0EFERFRA0pODw1Tsmzy/8jwTUdkmPTn6P/4PdGzfTttDZYE83/K8y/NPpQODDiIiogKQmhzsyVE2yPMszzcRlU1Sk0OGqzDkKJvkeZfnX14HVPIx6CAiIioAKTxKZQefb6KySwqPSk0OKrvk+ZfXAZV8DDqIiIgKQGZXobKDzzdR2SWzq0jhUSq75PmX1wGVfAw6iIiICoC1OcoWPt9EZZdMIcvCo2WbPP+cSrh0YNBBRERERERERHaDQQcRERERERER2Q2D+t9Jh43GeS3UVSIiIrKe69hUbY3KioRF/J2ISHfuCjBvqxFrImxXqLdBdaChsiwb4qCuF5c3Jr6DDxe8q21RWcXXQclmmBwFzG9p4L/UVHLtmQODwQDDrHBtB5UUsV/6q8+N/5ex2h4iIiIqa/530oiWM1PVkEMCCFstEqb87yTQ+8NU9TqJiHLDoIOIiIhKLGnkLAswYPMbBnWdiEqO+T+YQochvgYcnu5g02XyEwY18NCvk4goJww6SpMLwfCXHg6FtbCnRJlz+8xBrFs1Fa8P7o7urTwyvB48Win7egZiwnsrsW5PNK7d1i5ERFRMJNiQBo40oh5rYsCWN7J2W5dtOU0WIipa0stCSBhpS/I+H/KI6TrOXlH/EBHliEEHkd27htM/BGFIKw84N/KB//A5WPpNKEIPZxx2EntY2bdjJYImBsLfrzncnD0wZ592IhFREdNDDiFd1fWu8eZhh34e6e0hiwQiVHLJr/HyPNqylgMVPf39aGtyPbLI64jKpitXr+HEqdMFWqjsYDFSeyN1LfymAk+vwaW1AXDXdpdK+n15dzeM0/y0nZQnZ9ZhwvDRCPpZQg13ePXzx+hhQ9DNzwuN3Kuhoulcmtu4du0SToeHI3TjGixdtgUjwo14u712shmp0eERsA4Dgy8h5LlS/SojKjAWIy18eoAhJOTo86GpYSy/GkuYIQ0dGav/WFNDhl+SRwUXTSOaxUjzR94r6vP3txGPKs/d5MfTn7vCeN4a1DD17qGiI8+p+fvV1qQeiLz/i+s9yCKUxeeHHT9ji7IUVHW3ahg7crj6N7/4OijZWIyUyM6d3vg6OjTyV0OORk8vxE/nT+PIhiUYPcAPXllCDlER1ao1QpsnAjD+o82ISbqEEU20k+zE7ZNbEPRaHwR+wyKqRCVVdiGH0IMMOY/as8NNO4FKPHkuH1P+TZFgKkAbgqCTGTvkuS3oYv5aKZVSjXhvSio+j9G2xR+pGLTIiGN3te1C8NuqVLRSjnldNhKM+OQbZZ15LZVgEfsOqiGHhBO+bdvke2nauJHaK+SLteu1I5M9Y9BBZIdOfxOI7v2XIhx+GB18BEfWjke3elmjjRxVdId7TW3dTlzbuxITlm3B1XvaDqJSx4C9ixxw/vUi+tX6WQf8tdABG3to2zaWU8ihkwatHnZIcUJ7dXZ9Kv4RZMRZbbvIHFOud2IqPjmmbReShtUNam0FCTV+PaXt1EjtBXkuC7rYuk6EzR014vsk5bGqq20rfj+iLC7KvvLajkJy1hWoKivKcSueNsL/v0YUZWkufRgTkTVOxJxR//bu0RXPDx5QoEXCkr+vXFWPR/aNQQeRnbm9Zw6GDF6J0/DD7P9twZLnvCz03iAiyt00D6URpDSErp/TdtiQNSGHTg877JcRv/wB/FYOsKpz9WUjnh+bqg4jyG3ZEK9dJhtnlYb1b3eBB+/XdhQSNZh63KD2wnm0sWldp59W0KW012j5LUL5TzsDOjuZtqWHR1gkMKajwXb/jjsb8MIbBvQ6YcSHynUVFRmCIqFX2RSHbQvfwRsLfwH7l+ZNQYabCP3y0quD7B+DDiJ7cjMUUwdMRTjcERC8Bm8/WrB/EIioLDPgkTrKn1tKY6uQf93PLC8hh86uw46LRmyQgosxRtS3EFbIMmKH2X2vBSydZcD5HJaV0kvAGWiYY089I36Rxm4q0G+i5et1XZn/x1yCCH2hTK4ZsfYPYGLv9Mfm9l4jFitvC996RlxPyH65nXnYSZLl8+lLVflqcA/p++4Cr4w2YLCnaZuooBKObMb7875DlLZtKzKkRRYiSxh0ENmN2wj/9wQExQLub63ByucaafuJqNQJcFCL7WVdDHhQOblqU4OF05RlvgFvmI5QcO2AZkrD+HYc8Im2yxbyE3Lo7DXs+P0XYLvy2P9oIbA4/7TpPM08zMICBwOquuawVAbOXALqPGhAa+0iltz+w4hPrgELX7NwvVMMeEU5T2fl+aLCd/ZnI/Y8ZEBP/feJVCPWbgUu3wL+Mc2I+jksG5X3qLnfvrJ8Pn1pt1M50+FM+xcY0Upb/810GKJ8S/wzBqev3pY8zaak1oYsUqiUKDMGHZTBtaOhCH7vdfj37ABPgwEGdfFA827dEThxJbYcLWBXr/hobFk1AYEZju+JDj0DMefLcMQWwgBRm9+HkurkGsx+R1LtgQga061YhqvcvhBueuz9PLXH3QCPVt3h/9pSbDmZz8ddec2EfrkUE4Z3R/dWHmnH9fTzx+vvrcPBXLphE5VKvxox4gvLi9RsuH7G8mkjvgI2mI5QYA2bGiAdOv44ZrsgoSAhh8487JDhC3LMUu2yEe9FAP27GvCIhdDimtaobd3A9NcqJ4z4PhUY3FzbtkhpMG9Srt7TgGcezHq9VZOMkI49jzRgb4xCpzzn74YB998nZcG1XT8ZMUv5e+jfDkiYYkB/Zf3HzMGmtjwtb9RM+vfOJgxVlhN9lTMoz/N5C6fJ8ojpEEQlRg1tyEmN6hkrUEvNDSGFShl2UGYMOsjkzBbMGewJN6/uGDJxKdbtiIV7j27opi6NcPvnUKx8LxB9vNzg0W0C1plqAuXBNYS/5w/PWs3RZ3gQVu44jYpdteN3rYjTO1ZiakAHeDTqjqk78tkgtvl9yJ7UxeggDXC/OTiYh7Amv5ez5OD6pdii/G2zYCoC6pn2FZl7p7FuXHc0qt9Bfex332ykPe5+cD4cinXLXkefpl7oPm4LrJ3B/JrMkBLQHB7Ka6Z7wOsIWhWK05Wba68ZLyTtWYelE/3hU6sDXt9o+agyDa4ejKihS8A6df+6gPTAJH3xR/AF9WSi4nfOiG/2WlqUzw05/S4snKYskYVXvPIV+RxRGscR8sFiA4URcujMC5Sqs7GU2rDDiO1fGbGhEvBWD0uBghHHpF5KHQNau5r2WOP3g8Afyt/OXtmHFLeVx2/KZWDakwZTkcpMpE7LL8rf1g1N2/nR58NUtTaD/JXnnITpOf/GfPjJNSPeU953r/gb0NAG39TrqEPStM8SKtnuXcW+9f/BnJnvqlOavjHxXUxc+B/ls95yMc2EU7uwYvFcjNPO+/ZH2xB14w+skO0vjmjnSmc6/wKMmyTnV5apC/CvL3bhdJJ2Bs3vX8jpX+F3bTudVm9EP/Zfv2COcpw52yWRPWK63myuOy9kxpSZk8dlqdEh+xl2UHYYdBCu7ZiKDo36YOo3Sej28hJsjr6KJGMMdm//CT+py27EGI1IOr0bK/7ZDfg5CP5+3THnVysDiZvRWPmCFzpMXIfTTQZi4ZYjuHr3Eo6EascPPYJLd5MQE7oEI7yOYE5PHwR+Y21z2MTm9yEXFduPR9C0NsCeqRi9zMqxgrcPIuifUk/DD7M/HI82BeqCcRChwXK9bTCkh3I7itK90wge3gH+/z6NDgs240icEZcOmT/uSbgUuhADm8Qi9N99MGRWeO5frvYFwadpH0z4MhrOT8/GmvAYJN01IiZcO676mrmKA8GjlUcvHEv7d8CEHRaOWlkPXLSlpbu6272l2b60pRGqlVNPJiIY0MlD+aO8n20xbMU85JDZFwoScugk7JDGc2kOO85uM2J0DDAtwID7f03FoI+MOGbe4EgGflFO7+ylNFa1XbnSClrWaak8p9mFI0lGzPoKaNjOgMEWi5AaERmt/FHaGK3zORuXHmzIc/NoUwN+PaluqiSkkgCkoIsEKPJ6Kk3U51z5KrLkIW2H8nx984nyeD9kwBvKc2buml5Tw2zJUp8jO1K3Q3n9qGoZ0P+yWSgq09pOzDStLRW/pCP477x/478RV+H8UHe8GDAIL/p3xgO4hLDgf+NfP2Ycs5R0+CvM/ngbjtzxRC9/5bwBfZT3/HGsfH8TjmvnMRcbugwz1PM3QK8Bcv5BGPCwGxIOb8P7C77C75nCDqtUbY6n5DgtKysb9dFJbrMsnfLSBS0rCTiyK0TKsIOyw6CjjJMeBb17zkG4eze8vT0aP30yGr2bVbM47KHi/X4Y8f5PiN7+NrohFFMf6405+3JrsiqN4Ne6IXB1LPzeCEFMdAjGP+GVtUFZriIadR2NFUrDeM3QJKwcMxXrrMw6bH8frFERfhMXYrzSjg4fNxUrzb7AZefgstGYugfwm7sU49sWKOUATh7AFikg5z0E3bxNu4rGVYTPG4IhO7phRfQRhLzVG15ZvgRXhHvX8QjZ+xPeVm5b+DujEbQnl8f83m01FFsSfhUxa99GQPtGqJjlNVMNbZ5bgi1bxsMdsQh6YTZCMx3Wvd9CLXAxLWumdFD3d5iyJsN+07IQvU05CFEJYsDehQ7Y+3w2v8Q/aMCPMx3wo+k7XuHpbcCDyjeEsxeURdslt2XOPx1wfrwBBfhRP0PIIf53ovB+2T/3t+lvaQw7bv+RihFbgE7KY/+WNHA9lOfgkhHtpqXiw/2mx+h6hBEfKn97Ns++Z0Zmt5XLLlYaLK/4yqexBdKw/lA5rjMQ9HQ2s3soDeSwo0Bn74I990KeE5l5xdw57cdpCSkKssj0taXxOZ/7igOa6W8J5bE+U9mAlS9mfS4GmdfU0JYPs/mhfMMWY8YispOMGL1Te6/VUT46lD9nL5k2pejpJ5WU57eQZ9qRcCvDbTBbhDxnlk6T0Io9fu7h95DvsO+WB/q+ORHjBnREW++H0Na3MwInTMSLLSviwvZvEXpdO3vyEaz55giS7uuOieOeRS9f5bzeD6PX829gYkc3ZMks/voFK7deQrmHnsWcCfr5H0K3AS9jzpud4X5LOd5GS/FILpxqoYVynOb3KR8oqIIH5DbL0kCCD9th2EGWMOgoyy6swwh1hg4/zF6/GbN7WE5KM6vWYzY2f/M22iiXnPrGUuTUf+H06gkYsjoW7kPXYM3igWiU2y/m5Roh4KN1mH1/MEaPW6LtzEER3AerVe6G2Z9Lo3sLAqcE5zxlWGSQcv/CgfazsfSfbSx/scyD2IOhCJWVHm3gpe4pGtfWT8Xod6A89isxolku96JaN0x4d7Ty+BzE1M9DkWNfmnoDceRgCEa3z/35rPbEVCwdpqzEzsG6/A57IiqplEZvw/LK33vZfOk/pnyvdAUeaZqp4dsl+/H3WZYpWRvNb3iaGsW/a7UvTIw4lghUbWBAkNJozi8JIIQ0cmzFvGdH6WDEH4eVz7N2BiztZXo+pODsnHcM+Fb5UF/8uRH9VqbiE/nurtyv/tJKtYoRa5WG9GXlMoMfyiYcUT42z9wDViqPVWt9WtNMpEjp50rb9OlHrA9YMnusiUENIqQRK9OKmocdUltFwi+Lr888LOYBWqmgtD6bKe/xp6X3lM7ZgLdeszxkxVKNjrdaaidmkrFGhwEbmyufFfoxlb+t6wIREjJqRU8HK8+BLYbJqMGWhUWX02llWvLvCP/jNpx9uqNXlh9hKqJtl4fhikvYu19LCU/8ofbAaP2PznDP9Dy6d+uYpQjx6YgI5XuqBx7v11wmY8rIvTO6KZ8xSQf+sPmsKeYWf7zKNMwln4sUJdVJ2HHiVN56h5P9scFHGpUOtxH60WgEK61xv/eX4u32eWtqV3x0Kha+pXzy7pmA2V9m06SP34KgieuUD8zRWPl+AKyeA6SyH95ethAesbnNLl4E9yGPKvaYipWjlGN+Mx6zN2bX6D6NlVMmmMKZAg9ZMbl0Uo050K1powKHJnkR+s06VMzDY1+tx0CMkH+wl4XiQE6dOup5wcvq8L8aug0Yra4t/d8Bjjkmu6IHDseyTWONCJNfZT0MWGjem0rZ93Xm+h3ZLVK8IQMDOsu4iCtG/CfTtLKfhxjxu9Lg7dQh/7/sn1WOK0MVRq2x3S+2838wDYcozN4itmXAIwEO+Pb5TL/ilzeg5whTj50k5XmadQV4obP1j73U3ZDLSC+By9l1Q6+uNKynOGRsbGeghSUNDHhSpqgtAAki9IVTzCrvbV8HLNGCrcJjxLUEbdXMX38Dzero12VA62bAJ9HKZ8tWI15XXmevtCv850PCLfPn3HwREmpYOk0WuWyZdv0mpINajZq1TNuZ1fNQv1df+Ms0fCU2Vv7WQv3a6mZGDll/ZUxQjg+HWqhjqSAPyqFRfTcgNQ4Xiqjg+5Wrpu/M+hCV/C5E5hh0lFXxWxA8T2ncuysN8pfzU9OhIrq9Mhu9lbV1qzZbLDB5euNSLFWuove749E7r2N6vQdi9BPaenaK4D7kXTX0nrIUAe6xWKocO1T5dyQz6eUSqHwJL5QhK5rbSaagxr1allzexkZgwtA8PPYVfdBB7VkYioNH1T2FolqrDhgoKydjpX1HZCeyDxzMvX1C+Y/yr7lvZ9O26pgREyzNymJp2ZQpDGgHtdDl5T9NxScziDdiwxnlrXy/Ae9Y3asgI6nHIfU0bE2uoyiupyg09DOgl3y8VwJe7mRlA1Cru4G6wNNJwBDlcb9sOiVP9LBkzhOWi5RS0bFYo+OudqKZ67eAB2vm/Dpp+DDQ84gR7bYBSwJs05uDCq68k3Tpy55zefMQoyKc8/I10Kkccj56OThn08ursElIMebVYWrB0fwu+tAVIetNG1v9EyvZKX6slVHXwkOxUvnr/po/uuV32FyTbhjYQ/m7IxihWWpSnEbol1uUv70xsGt+PmgaoduAbtq6Zba/D/lUbyCCFgfAPTYIExZkKrx5JhgTXlhXaENWTGJxWgsNmtfP0r/Rtp7uhg55CrGqwUO9jQdxuzC7Xri7m3oMrT+d85AhotKkl6l45NnTFgIHc+uN+C0ZaN3cAPOsI7+e9jZNK/t7pOWQ4L09pgZzpy5l/BfXIqM8v8FGzEoCpj1rQGtrvrnpdTeU1aWvOGDp80Cdi0ZM2ZbH4OeSEaMlLFFeWy/nODUtFQWLNTqkSGwmZ+KUf20zfS86o7xp7zfvHFBTeS0prdwH2xnwQiHX5qBCULUyaih/Yi/+adrO7MIl9Qc6d3dTF47yaq+Nq/jb0mQsyUm4p63qXJXjI+kSLug1PjK4h9PnlQM514J7FdOeOrVlrNk9JOoFbXWpl3D+L229GMkwFRn6IiTkkJodRAw6yqTbOPC/perakPYF+SBoBJ+u0mgNxcHoTMM0Yg8idIfyt8dAdGti2pVXHvfndNuK4D4UgPvTsxH0tNKcnzUeQWnFTmOx7p3xWFeIQ1aKXatGyGu04nG/qSDogdOFGElUdEam2nZEpd7C1spLOxXYtiW3xqkRn59S/igNlwldTHvyz4An71P+JBjx9V7TniwigLB45YtvYwPe0naRrRjx+1dGDIkEHlEapG9kV2fDXKoRv6w0YsRFYNowA3pWU15HDxvw/kPAN1uN+Mbabm9JRrz3oXJ+Z2DNC9kUKc0jqZ2iDilS/tqyRou9slijQ5+tRae8N48qnxsPehhx+Zyp18dl5TH/XvnG3zBtqh5TePZ5BcDpsGk4mu73Lan5m22DCpdTa7RtLnUyfsK2LF+XbmPfzv1IcHgAndqaEq0azTxRAzeV7977MxUevYfTW8Oy1Npo9HBr5fyXsHXjkayFSmN/Qegx5ZiP+OIBbVcNN0nJjuP3PzL+SpW0/w8LU87qriK2EIe+ZFdzgyEHZYdBR5l0CbFq74WB8GlasK8ueqN198lMHz5nohEsf9s3N/3Sng8Vq+TUdC2C+1AgjRCwYI1y69KLnV7bOBujZfaZQhyyUtwGNimGboE3ryH2aDhCfwjG0vem4vXB3dGhaQdM1U4msgcNuxvwTF3g+ikjJljxRfHzXaapIjt3KGCvjgeB1tWhNJCURrG2q3VLA57uZMCS5w3YON4Be2ca0E8KBjoB/f1N5yEb0AKLQeHK68HbgE2Z63dYcteIDR8Z0e8w8FaAQWkE68GI1AAx4A1lbcpqK4awXDFi1lxluQN88YYDHimEUZESbEhdll9PSQ2VrPVTJAAp6MKZOpQmsPKZ8U1NAx50NeCa8phIr4+mXymfDQOU14D6rd+I31YZ8Y8TymM+zYBXlOd29a/pj1uy8uJYbLZNNpR8CUci/8C+TEtUrPS/KIe2zzyL1s6XsOmDBXh//S7T6RG/YMXCBfiv8h5v/fwgtNWHltzXHU/7KJ8Qx77H9MWbEaoeaxe+WfI+VtzwSAss0tzXCyN7eiDpj6/w9sKvsC3CdN2h6/+Dtz/4BbHK8UY+kV64p/xDj6BtJSAqZBlW/LhfO+8yzN5VDq2l60km7vXqw1n5rv7Tpl+U8+7HN6H5mMHFjBQalTAjc9jBkINywqCjTIrFabUwcSPp8V8g7o181L8Hb2ZMeGNPH1D/drPZUArb34cCuz8ACz/prRY7nfrvpZj9ylLEFuqQFV01uGvdTgu1l0QJcfvCQaxbJYFGB3gaDDBUcYOHVwd07z0Er0+cg6XfhCK2pl++AzWikuiRWgbcvgV8/pWVDY7DptoZx86pk2jkS+fuBvwoY/WV9ToPGvDXv02/GP/vZQNW+hvwwsMG+MqPeklA2H4jjslwmcb5L0pKOYg3YtZ0I/r9AfRSnpdNw6wIOeQy7xrx/ClTyDEtc7FPZwPGPA5cvmjEe2HZvK5Sled1Wyr6zTLic2Vz4xQH9M+2SGneSBHahtWBZcptC3jEkDalrJBZWPSaKgVZpP5LqZai/c03I5T2Kjq3hPq+fPBpreeH8l6eI7VdJDz7jynk2DhBAiwDpKzBni1G/Kb+rG9Up5xt5sFhaUXi+hGsD/4W/820fHdYe3M4N0fgxFEI8KmCv/dvM52+/hdccHkYL06ciMCW5p8K5dDi2XEY1685alzdbzrut7/hfN3HMS7goawzqyjc/zEKM17qiAcQg20hpuve9Mc9NOrzEuaMyTR7i9MDeHHMIPjdl4Qj27/Hf7/6DmFXlNv3anfUd9TOY67Z43jRrxbuHf1JOe5mRCYVQlpqgT7TCkMOsoRBR5nmBufCbXFnUa2ybT7Y0tn+PhREo5dnY2F7YMu41xEUa6shKxXh5mZKe07H2lEpzthQBA32hHN9H/gPl0AjFu49umHEWwuxRPlH86fwI7h0NQlGoxEx4UEYoV2MyB5881Uqmk5Jxdt56Pb79r9T0e4LYw7diHN2RmncPOIK3JYZOq4Ax+SX4b1K41k55qCgVLj+MxW1JynXMT8Vg5R92+W21TXgrbwWm6bsxRvx+UfKc68FDStfN2BJ/1xCDi2c+Id2mS+UBmyWkENTp4cBcyoBn0jD1nysvXKMy3tT8fp0I9ptAaq2M2DfTAd0LuSpPmV6WQk1gn/LGEgMecSAyU8UfJEQpTTbkJ9qsebOGPHh4WymAdbCs8BY4H+T0p/big8Z8P6DynMwNxXf7DTi6ziZrtp0mi1tfkN5voaU1UClFnpNeBcfLrC8vP0Ps2Iqzh7wGzwKc2Zrp89/BzNe64O2NbPOpCLfBxs99iz+b/o7pvPO/ifGDXgINbQKHc4WvjDXaN4LIydMwfvadb8/fRQCH/OEq6UWottDCBijnVdux4jOaOSs3ZfnMxfxqYgWA97A+/PluO9gTp/62v7C1btHV7WIKUMOsoRBB5FNtUG3gdqHr3c3dGtmm1TGo4mpcOvBE5fy/WtuSXJ64+vo4NEdE74BBr67Bj9FX0WSMQa7t/+EFQvGY/RzvdGtvRfcq5XglIuolDn7hRZmTFQa2kqj57ElpllZ3ttrxPZz2pnMfHIBuH5FaSBb6LZM+XQX+E15XMc8awoanm5qRUNQ+SZ3XWmcNnvUdJn+OU0B62DAC48Db3Q14EHz6RaUY0SEAUmeBvxPOcYXAQZULeRviDJdqDRsG7hB7dEx+fH0+ybTjMp2QZeyPmWthJTu7QwYbOk1oJxW0Ut5jbztoM6qlM6AR140YGk94N31yuV7G9C5CGbakNdDmZ9Ctqgcj4EMHNELl9oTCTg4uwplh0FHmWYP1aZK9n24vW8ORk88CPcmjeAeOQfj/51pFpZC4t6mG9SoY1koDtjiCoqQPGZD+i9FePu3sflSDEKmBaBbs2q5d9smKhOMaDc2FfWXFH8X/bPByu2YacSsHKa+pTzyMGDJXAe84ZeXoEFpqD7vgCVPW3eZqp0cMKdX5vMa0H+8A1YOM6B1NW2XDUjDVsKIsh5IWPLIMAckKI+/RXUM+GKRAx7RNrNT8UHldZBdLRfpfZVdgOVgQM9XHXBIuY4lPfjc2JXUOGzbegBJZoVLicoKBh1lkjvcZUpVROP0BXVHvum1ONpUzvTPajnT9rpCLfBprgjuQ0HdPoigN6Yi3H00VobvxtKh7gh/ZzyC9tggiWjig97esrIGoeGlOemIxboFymOGNli4bDZ656H+ij3EdkRUMA3Yu4SIyqQ4bFvyIZZ/tU0rRPoHwn/8Fu/P+RCb/qyIB57slV64tBRq6mkqRic1OQqyTJ/3Pq5cvcahLmUEg44yyQON1EbxOhw5o+7It9Mnd6t/O2SafcO9vjZW78QlpemaP3oAYZnt70PB3Eb4e6MxdY87AhZPRe+a7hj4bpBpFpZ/BiH8pna2QtMGA8f0Vv7GYs6ydfl+zIvdhVCEyFQPPUZjoPr8WunMaURrq0RUOuhTjMqv+zJev6DL4ekOao8BOSZn3yCyT5yWODtuaNTcDddP7ccmrahpcOhxJNXwRcCYMXjDz6zuRykkwYTU45CQImLfwXwvcvnqbtXg+3BevmRSacWgo0yqiOZtBqprW8Jl4tP8Oojd66RJPRAd2mTq69qsDUbL39W7cSRfHQxu48jBddq6JUVwHwrg9p4gjH8nHO5DgzD7aa1bQtosLFNtMoSlUb/RGC1X9c14LNxRSnt1XDgN9Vn3boS8FPq/dmi36XJEVKrIdKPScNHH6xdkkToP+hSmRFQ0Hmtiet9JkVlbk5l1BIc+WVIOD3R7Hv/3dnph0Q/nTsHbr/WBXz37GLLyRI+umDl5nFp8tCCLHIN1PcoG0yfFpMNG47wW6iqVcnvmwOA3FXh6DS6tDUC2Pf/j1yGwlj9Wur+Nn07PRrf8jNqIDIJPmwk4aPG6YhE82ANDvnHH26GnMbtrHq/gdiimNuqOOZJBvLsbxml+pv3mbH4f8ulmOKY+1gFzIgdizekQBGhTv5ocRJCfDybs8cPs8FC83b5wh8uc/k8feL6yBXAfj59OLEQ3G/3bFvulPzwC1mFg8CWEPJe3Ry3Hy+qv3+yec4uuYd1wN/ir06jPxm7j28jukgW53UTZcR2bqq1RfklIURiK6tdembKTiEzvuZYzTZ+BhfU+tsT8vS09uCTcLA5vTDTNaEJlG18HJZthchQwv6WB/1KXVTV7I2Cy0tCLnYOg1fmpo3ENWz5ZqDTb3TH+5YEWAgJ39H5OJvzM31CK06uDTCFHTmx+H/LjNsIXjMacSGDg5wszhRyiDUZ/OFtpiNtmCEujl5dgzVB5TIIwpP8cGwyRKSJ5GfIUuRILf3AvpOePiIqDNGIKYyGioiXhhmnYmOX3ZGEtcj2yFGfIQUSlC4OOMqsiur22FAFK63DLK0MwJ48FMk9/ORojlsWqQzNG97DcK6HagNFY2F5Z+WY8xn+ZhyDiTDAmvHIAo0dJUJIT29+HvLq9YyoGzjoIPLECC4da7hZXse14BE1rY6MhLI0Q8NE6zFYe99ifldvSfypC47WTSoO0IU9bsNua230zHHNGTYDbu7OR26tFpRXJvXaTpUuJiIgKgymAcFB7OtlqkTBFr8NDRGQNBh1lWb2BCPpohNI0DsfUAX0w59dr2gk5O73+dQwJCEasewCC3g1QLp8dpdH6b+m9EIvggCGYuiP3498+uhJD/IZg99AgjA+wYvycze9DHtwMxdQXgpR72xsrFsttyk5F+E1ciPHusM0sLJX98PbGn/C2GnbMQfdW3THhy2hY98iku3ZyC8JPahtFpVo3DJReOliJ2YtzCYFuRmPlawMxFQsx++XmcNZ258S9qY/yqgRCww/m+fEgIiIiIqLSgUFHGec+YAV+Wqs0ymOVRvpjXuj+ylJsOWqpCXgb145uQdBgT3gOXIrwJiOwJnyNhaEZGVVs/zbWyPERjjk9leOPC8bB+KzN19vx0djynj+aewUi1Gs21n0UgEbltBNzYev7YJ1r2DJxCIJigd6fLMGIJtru7FTuhqmfjIa7rWZhqdkNs3ccwZo3/ADlcQkKaA63pn3w+nvBCD0ai2sWru/2tWs4HbkFwR9OwJBWHur5i743SEV0G7dSLap6cFYHdBsjrxftJN29a4j+IQj+bZoj8IQ/Nn85Xg0vrOLdDUOkl9Gq2Zj6TcZeRrcvROM00w8iIiIiolKPQQeh0dMrcODQGozvCoT+53X08XKDweCB5t26o3tPZenWHB4GZ7h59cGEb5Lg9dwSHNi7wuqAQD3+3iUY2CQWof8eAp9azjA07WA6trI09zDAuVZz9Jl4EG0W/ISD29+GXx6LaNr6PuQm9hvTMBi0l94F1vUPqdZvKpZKPQ0bzcKCyl4IWLwbl8JXYPwTym06uQVLJw5Bdy8PuFUxKI9PxsXZzQ2ebfpgyJggBB92ht+w2fCrpx2rKNXsjSXhIRjdHgj/UF4vBni0Mnsey7uhee8JONhGeQ5/WILeeXoO9V5GB7F0sGf6cVt5wLn+1NJb04SKlZuLtkJlAp9vorLLxcUZN2/d0raoLJLnX14HVPJx1hUycxuxkVuwOXgLgvftxpGfo7WCkI3g16MbOvTrBv8BA5XGbz7rWcgv8TvWYOmqdQj9Xyii1YNrx35uIEb06w2vmuo5C8DG96EUu33hILbsCMXu/23Bwb1HEHrY9MgI95bd0NyjEdr08EOHxzqgm7cXqhX3Q3QvFuHfrMGa9SHY8k041P4XTfwwsIc//F8YgoD2MsQlf26f2YKl7wZh5Q+m12Gj9gPRO2A0pr7cDe5l76VBBTRgWSp+OqptkN3r3gxYP4q/ExGVRR+t+BwdfNvCu1VzbQ+VNZGHjmB3xD68FviCtodKGn3WFQYdREREBbB6jxGjvzRqW2Tvlj5nwND2LIhIVBaF7z2gNHSjMGr4UG0PlTXLPl0N71Yt4NfOR9tDJQ2nlyUiIioE0uh9uCEbvmWBPM8MOYjKLmnc3rqVhF179mp7qCyR512ef4YcpQODDiIiogJa9IyBtRvsnDy/8jwTUdn2rH9/bNj6I8OOMkaeb3ne5fmn0oFDV4iIiArBHxeBsV8bsf8sh7HYG+nJISHHQ3W1HURUpl34MxZfhWxApUrO8Gv3MJp4NkTlSpW0U8leSOHRkzFnEb53v9qTQ0KOevflv0YcFQ3W6CAiIrIBqdmx7qARB84BVxO1nVTqSA8OnwbAwDYcrkJElknNjoO/H8bZCxeRmJik7SV7IbOrNKxXF21at+RwlVKEQQcRERERERER2Q0WIyUiIiIiIiIiu8Ogg4iIiIiIiIjsBoMOIiIiIiIiIrIbDDqIiIiIiIiIyG4w6CAiIiIiIiIiu8Ggg4iIiIiIiIjsBoMOIiIiIiIiIrIbDDqIiIiIiIiIyG4w6CAiIiIiIiIiu8Ggg4iIiIiIiIjsBoMOIiIiIiIiIrIbDDqIiIiIiIiIyG4w6CAiIiIiIiIiu8Ggg4iIiIiIiIjsBoMOIiIiIiIiIrIbDDqIiIiIiIiIyG4w6CAiIiIiIiIiu8Ggg4iIiIiIiIjsBoMOIiIiIiIiIrIbDDqIiIiIiIiIyG4w6CAiIiIiIiIiu2FQ/zvpsDH8qVvqKhERERERERFRaeP3XSVgfktDWtBhnNdCXSUiIiIiIiIiKm0Mk6PUoINDV4iIiIiIiIjIbjDoICIiIiIiIiK7waCDiIiIiIiIiOwGgw4iIiIiIiIishsMOoiIiIiIiIjIbjDoICIiIiIiIiK7waCDiIiIiIiIiOwGgw4iIiIiIiIishsMOoiIiIiIiIjIbjDoICIiIiIiIiK7waCDiIiIiIiIiOwGgw4iIiIiIiIishsMOoiIiIiIiIjIbjDoICIiIiIiIiK7waCDiIiIiIiIiOwGgw4iIiIiIiIishsG9b+TDhuN81qoq1Q6GY1GbY2IiIiIiIgKwmAwNZWpdDFMjgLmtzSwR0cpJcGG+UJERERERESFg+2t0o09OkoZ8zdZdutERERERESUf+Y9OrJbp5JH79HBoKMU0cMM/e/Vq1dx/fp13L59GykpKeo+IiIiIiIiKhhHR0dUrFgRVatWhZubm7pPDzkYdpRcDDpKGfOQQ4KNP//8U12vUaMGnJ2d1YWIiIiIiIgKLikpSV3i4+Ph4OCA++67Tw0+GHaUbKzRUYpkDjnOnDkDFxcXNGnSBNWrV2fIQUREREREVIikjSVtraZNm6ptL2mDSVvMvG1GJReDjhLO/I0ki/TkkK5TkigyRSQiIiIiIrIdaXNJ26tatWppverN22hUMjHoKAX0N5PU5EhNTYW7u7t2ChEREREREdmah4eHWhdR2mTmYQeVTAw6SjDzN4+sS+FRqcnBnhxERERERERFR9pg0haTNlnmdhqVPAw6Sjh54+hLcnKyOj6MiIiIiIiIipa0xaRNZt5Go5KJQUcpoL+JpKsUC48SEREREREVPQk6pE3GkKPkY9BRSvCNREREREREVPzYNiv5GHSUUPqbh2khERERERFRyWLeTmN7reRh0FFK8M1DRERERERU/Ng2K/kYdBARERERERGR3WDQQURERERERER2g0EHEREREREREdkNBh1EREREREREZDcYdBARERERERGR3WDQQURERERERER2g0EHEREREREREdkNBh1EREREREREZDcYdBARERERERGR3WDQQURERERERER2g0EHEREREREREdkNBh1EREREREREZDcYdBARERERERGR3WDQQVb5dt16eD7QPNulU9ceWPThUu3cRERERERERMWDQQflak/Eb5g46W11vV7duhaXCxcvqkGHnLf4JGPnDF/4PjkMb85bhbW7Lih7iIiIiIiIqCxh0EFZSGghgYX8FevWf6/+XTB/DsJ+3mFxkdNExG971b/6MYo0+Ij+DHODbyAuOgIbVr2HScGRSNBOomxEr8KgJ8dievAmHIiJR3KKtp+IiIiIiKiUYtBBaaRHhj4MJWDoSwhZ9512ion03MiOftrFi3+qf+WycgxZimRYS3Ikgv65CCe1TdWOYHx/XFsni+KOROBA9A6snjERg0aE4KSjdkIJFhcyEr5P+mPIWwsQxDCLiIiIiIgyYdBBKqnBoYcREloMGjgAvo+0U7etoff+0NWte596jPa+j6QNa7Fd2JGMA4umYmmMtpkmEnMHj8TajDctz+K+G2mqReLbF/0G+udj6QtvtZbJSGyI0w5aItxAeFiYtg7UH9QJLbT1kusGDuwKQ1x0NMK//wwbrjrBVTuFiIiIiIhIGNT/TjpsNM4r+U2cssRoNKp/U1NT1SUlJQUnTpxAq1at1P2FTXpdSCARvPozNZwwJyGI1OiQ/QMHPKntzUiGt8gwFRnCIgGHOTmuHF8CFBnmUrgk5AjAkKXRWj0OJ3SZF4yXj4/FkFUX1D1w64EP1i1C/+w7pORI7UEwOT0QyL9OmB+2HIPdtU1rXY3Bzh++xXc7IhB+MBpxiabdTu5eaNKqDZ7s1he9+nqjvpNpv9WubsIo34nYpm1axfMl5fUwET4u2raIDcHwTtOwU9vMExflMdmsPCbWPjfJYZjeaiRWqxv1MP777RjtpW4QEREREdncoUOH0LRpUzg6OsLBwUFdhMFgalpT8TJMjgLmt9SeDQYdJU5RBx3SYyG7IEKCioDnX8rSayOznIIMGcIiQYicrg9zKbhkRH08DIOCItOKjjYJDMbGid5wSrmAtaP7YVKodoqLN8Z/9jFGe1cxbedBsQUdCdFYu2Aqpq/VQ5wcuNRE/4kf491nvOBq5fCT88EB6DwjUtuyXuDnRzClvbYhChJ0KPovisAHT1j3vCRsGgvvcXkJy5wwdMUezOyU1xSIiIiIiCgrBh0lG4OOEq4ogw69x4X02JAeHZbIeSSo0GtwWDL2jdHaWlaFHnSkxGPn3JcwfHX6eJUm/ouwcnYP1Ncb+omRmDswACvSzlIFfhM/xrJh3laHASJD0NFpFiJW+KOWacsKym14QLkN6rr1QUdC5McY/tIiHNB6b8DNE7061sORTWE4L9stX8IHw+vh8C+bsPb79DoVrk8swMb3+6Y/BtlJVm7X48rt0rIrnydfhV8903oW9y5i58eboHxkKHwx/+dVGXtgJERi9apf8Je2mZuE6M1YHar1tslT+HMBqwf3xPS8ZjOBwYiZ6K1tEBERERHlH4OOko1BRwlX0oKOgirUoCMuAkFjRmLp/vR+DllCDl1iNJaOCECQ2XmdvPwxc/5EDPaysnfHngXwfEF7XIog6EjevwD9nvtMK6zqicHz3sOUp7zgGmfWc8L8dpzdhEmvTsRaLdBpMjoYG8d6I6c+DBnCm7ov4dutE+GT3QVigtHv8dmmoMPlVXwbORY+6gn5E/VxT/QL0oKOllOxfV0Ampi2cnb4Y3QeuMgU9Lh4Y/Aw32yehxuI+i4YO7UQp8uCMHz6VE3TBhERERFRATDoKNn0oIPFSKn0SFEasCHT0K/HMLOQwwk+44PxraWQQ7h4YfQXG/GBv6e2A0iODsGkJzuh37hVCL+Y66AQoLz2tyhc3YH/G5EecgR+GYL5/haGo5QzSyUa9sX8lbPQRds8uXRBWuhhkXIdc2alD8Xp8vrw7EMORcKxSK03h+KpNgUsWBqDA9v03hxA/V5trAs5EI+1H2ghh8Jn4gLMHzsW4y0ufdHiqnZG1MPDDzLkICIiIiIqSxh0UKmQcDgEkwZ2Qr/JIYjSh3O4eMGvoxeSt83CkKctzXaiLU+PxX+OAS0e9jZrVCcjatN7GNK1PXxHLsDa/ReQnKKdVGySsXPRRGxQ758UVV2OKQ+bJRAXT6XXwfCsl7E3Q11/pYGvjz2JxNw1EdnU9TC/DoXnWIzPpbdDVOQmbQ3o0qp5jj1FchWzB2sPa+uoh8HK82eN5LDlmK5nM3VfwhT/7MbZKJTHKW3IDzqhRXrGRUREREREZQCDDirREg4HY/pgX3gPnIa10RmHn3zwfQg+6OuKqMPRViwxqDVoMbbvWIDBXuZN9WTEhX6GSc/1RM8l6UVNi8XZECwJ1m5Bp6n4V6bGfPKtO9oaUL9q1rihRd+X0oaUJIf8gigLwU3cd2MxSr8OeGL0/JfQIqd6HimR+PlrbR1e6NqmYL0jonZ8lt47pK4/urTU1nOSGIGg6cHac+OE/hNH5dwD5Y8IhGvr6OaNFgVKZoiIiIiIqLRh0EElmqubE84fv6FtiSrwG7sKYetmoX9DbVdeyDCPdWHYOM8fLcynSEUPjH8h57oWtha19TMcUNecMHRY3yz1J/6KPaWtAY1rWqhO0bA9ntSDg8QfEX5cW9edDcH/zQhLC3OajJ6N172Ve5wSjaWDAzA9JBoJmcOR6Ahs03tHtPSHX0F6RyRHYO2y9GErPi/3sWIYzA1smzoyrWiqU7epGN8zp9oqyTgQkd4DxaeTdx7qqRARERERkT1g0EGFQp2CVis4Wqjq+mPKeNOMGa4dx2JNWATWjPZFLa0XQi3/5Yg5fsSq5VN/rTeCYxW08J+FjWGb8OnYTqglgUffvujiZjo5R/sWYbil4THZLlOxVrtozsxqV7g8hyfbZ41cLpyK0NaAJvdb6llRF/Uf0lZxASfOmAVEF0Mw/Mlp2KmFFk7dZmHl6xLsJONA0FsIiozE6sn+8O4wDEtDY9ICjwNblqfXxRjUycp6GpbFbVqF1Xpo4tIXLz+Rw/ATzfmQt/DmJi2acemEmdP8c55RJjkCPwdr6/DGkx1zvw4iIiIiIrIvDDqowPRZWyTkiPhtr7a38DTxX4CNWyMQuepV+Fk1DamVXD3RZfRyRERsx/bxneCq7c5RYryFYTE5LTFpU7/mKO4IftZrV3RrgyZZGvMXcD5aW4Uvmlh8HJzUHjC6uBvXtbUbOPBdCMLT6nK8hDXva4FB8kXEoVb6fb8agaCRfeE7cAF2xuzA92nDXAoYGiRG4D9L0gugNhk1DL1yCZbOfzcW/SbrPVCc0GXG7IzT2lqQsCMEq7V1ePdFl/z0+iEiIiIiolKNQQcViB5yiEEDB2DsG6PV9ULlUg8tPLXhCnE7MMlizwnrlp6+zeH13MfpBU2FUz00qVvMhRwunkqrK1H/wXpZQ5fkGETt0dbhhfrZBD716/lqa0D4mXhtrQp8Rgcj4vtZGNwxAJ+unggffdiOkyd6TVyFyLBgzBzslTZ0Jzn6Mwx/fGxaDwynvsPwZL5Dg2Qc+M+stOEn0ptjvHJdObuBC9EX0ofZBK7CstymiE2Jwfef79A2gF4v9EN9bZ2IiIiIiMoOBh1klUUfLoXnA83VYEOXOeRYMH+Oum5TKQn4y2LPCeuWk1eVZvf+Reg3cBEO6K3ovOg0CxEWhsVkvwQjULtojlKS0xr1FutvxESnz7jSqbGFHh+5c/Xyx/xVU9HFUtEKd28MnR2CsM/Hwi9LT4t6eH14D+t6vFggj/ekpWbz3SYewf6Y3B78KvCbLLfnVfg9MQsrx+dePyV5VzDmRmobLgF4oUdOtTyIiIiIiMheMeigPJFgQwKOYgk5CtPVeMSZ9+oo4c4f2pNWK6N+u+bZFti8nhinreVPrfavYs3WReivbQunvm9hqDWzo1iSGImgtz/DSW3TJAYrRozF2vTMLFu12o/FmkW51OUQyZFYMlefmQXwGR8Av2LupENERERERMWDQQdZRYak6MNSJOAotpDD3R+fWuw5kfMSuaivWY8AT4z+eGquNSJKjhs4sie9EGkXr+ynPom7kFbIA34WC5bm7nxoCLZp62oB0PH57M2RcgFrxw3DCr0zh4s3/B7WnoXEMEwasQAHCiVsSsaBRVOR1mnEJQCv+xdkehgiIiIiIirNGHSQ1czDDlFqenKkRGP1ok1pv/Y79R2Ll2Va1RIqOeW2tqZJ2IMf0mZM7YsO2d72GJw0qwXbxD3vE6tmKQA6bWquBUAtkpBjdD9MCk171NF/3sdY89EC9Nfrg8R8hiHjNqFgfVCUh2fXIvwzLU2R6xmLLhmmDiYiIiIiorKEQQfliQQdEm7oS2kQ990iBKWViPDGlNfzX2/CZtwbw09bDT8SkxbKiIRdO7BBW0ffHvDL7sYf/wVr9Zlb0AktHshLmJOMk8Fj0W/ijrRZYtQCoP75mGklMQarM4UcXeZtxAdPVAHceuBfy19KKxKaHDoN/xeiTaubD8n7F2DQsM/ShvU49V2Ad+V6iIiIiIiozGLQQXkmPTlkKRWu7sCcWWbTmo6fhqElcVSDe2O00HshfBeWPhUs4rE1JK07B4Y+ld00uMnYGbwYUdoWnuiLx62dijflAjZM9kfPGekhh+sTC6wqAJrF2U2YNLAvppuFHD7jgzMEJk7tx2L+MH1bud2TZ1tVryOzuLDZ6PecWf0PmTZ3dgkMsYiIiIiIqEgx6CA7pjSiF03EBj00UBrC84fmNq1pVsm37mhrNuToha7+ev2KYMwNCsP5q/GIWj0V0/Wcpu5LeNLXcvRwPmQsRgWnhwtDB1vX4I/b9TGGdOiJN0PSZ0VpMnQ5drzfN/cCoOZSbiAqZBr6PTkRa9MOVQW95m3Et6+mT1tr4gS/sbMQmDYkJgyTpofgfIq2mRvlug6sGIYegcFmIUemaXOJiIiIiKjMYtBBdivhh2lmjX9PBM4Zm6+GcEKc2dCKfYswfKA/+lm9TMVa7aI5Uxr/Q96Cj7Z1cvVIdPbthH6zzOpljB0On8w5hzT6Pw5Az7S6Gso5AxZhSscc+mKkJOP8/mBMH+wL32GLEH5V2688RoPnbcLGaZ1QKw8hR0J0CCYNVG7r5BBE6aGSizfGr/0x+6EvLr54faJZgdiwaZhuzRCW2AgEPd8JgxZEpPU+cfJ6FWvWZjNtLhERERERlTkMOsg+XQzBm5PTC5A2CZyN8fqMHwWRGI+ow9F5WGLSGuS58gzAv+d1ytT7wcT1iVmY2c9sFpWUGzgZ+jGGd1Ua/UGR6SHHw2Px7UTLx5AeLic3zVYu0x6dn5uN1ZE3tP3K8TuOxZqwTZjv75nNZS2Jx7a3fOH95DSsjdZvgRzrLXwbFozR3jnXynB9YiJmdtI2FDvnzsaGWG0js6vRWDsjAN6dhmHp/vTrauK/ANvXjc2+bgkREREREZU5DDrI/iRGYu6IadiZNmTlVcwfm496E8Wgvv9ybF/+Enp5mkICJ3dv9J+4Kn0oSUIEgob1hbeXL3qOXISdsZka/V+8ml7rIwsnNOnWF01c0i8DN1+MXxWGyFWvws/amh5paqLX8OFoom2lH2sYfKwKHmpi8PixaZd3bdMma0+ShEisGOcPL19/TAqOTA+NtOvaPi+PQ2yIiIiIiMjuMeigNBcu5KMipJVseeyM4rFh8jCkzTYKb8z8aGzWIR/51WkWIo4fQYzVSzACtYtaq363iVi2NUK9fHRYMD4I9E0PAFy90dXrToZeIk5efTHF2ka/izemrJyFXp6dMH75JkTuXoXRHc16iuSV16tYuaAveo1dhYj8HMsrAOMHK7dFD1syDz9x9YKPe3JajxWp++GX3+siIiIiIqIygUEHoV7dumjv+wguXLyIRR8u1fYWnomT3laPLdcji23VRP/3d+DbeS+hi3sVdJm3oNhnWand0gst1KUWqha494ETfF5+C/3dPdErYCo+3RqB6O8XIDAvjf66/li2dTlGd/OEayH0hqj/1AIsG20WxuRJFfSardyWbG+/zNqyGDM7Ss+W5di+LwJr8n1dRERERERUFhjU/046bDTOa6GuUslgNBrVv6mpqeqSkpKCEydOoFWrVur+wrYn4jcEDH1JXS/MMEICDl3w6s/UQIWIiIiIiKg0OnToEJo2bQpHR0c4ODioizAYTE1rKl6GyVHA/Jbas8Ggo8Qp6qBDSCghvS8k9ChMEpwsmD+HIQcREREREZVqDDpKNgYdJVxxBB1ERERERESUPQYdJZsedLBGBxERERERERHZDQYdRERERERERGQ3GHQQERERERERkd1g0EFEREREREREdoNBBxERERERERHZDQYdRERERERERGQ3GHQQERERERERkd1g0EFEREREREREdoNBBxERERERERHZDQYdRERERERERGQ3GHQQERERERERkd0wqP+ddNhonNdCXaWSwWg0qn9TU1PVJSUlBSdOnECrVq3U/YXl9PlL2hoREREREZF9aVTfQ1srHIcOHULTpk3h6OgIBwcHdREGg6lpTcXLMDkKmN9SezYYdJQ4RRV0yBuViIiIiIjIHtmi/cSgo+Ri0FHCFVXQQURERERERNZh0FGy6UEHa3QQERERERERkd1g0EFEREREREREdoNBBxERERERERHZDQYdRERERERERGQ3GHQQERERERERkd1g0EFEREREREREdoNBBxERERERERHZDQYdRERERERERGQ3GHQQERERERERkd1g0EFEREREREREdoNBBxERERERERHZDQYdRERERERERGQ3GHQQERERERERkd1g0EFEREREREREdoNBBxERERERERHZDQYdRERERERERGQ3GHQQERERERERkd1g0EFEREREREREdoNBBxERERERERHZDYP630mHjcZ5LdRVKhmMRqP6NzU1VV1SUlJw4sQJtGrVSt1f3G7cSsStm4lIvnsPqdptJRMHgwFO5cuhUmUXVKnkou0lIiIiIqLS7tChQ2jatCkcHR3h4OCgLsKgtAGo+BkmRwHzW2rPBoOOEqekBh137t5DfPwVONy7hyr37qIiUuHIoCODFOVtdRsOuFGuPFLLlUPNmtVRoXw57VQiIiIiIiqtGHSUbHrQwaErZDUJOS5djkfl5Ntwv3sblYwpDDkskMdEHht5jOSxksdMHjsiIiIiIiKyPQYdZDXpyeF27w5cU9lot5Y8VvKYyWNHipR4hC8dCV/v5vD0DcD0TRe0E4iIiIiIiAoHgw6yitTkkOEqDDnyTh4zeezkMSzrola8hCG/eOKD7yPwy0edcX7qcMzdn6ydSkREREREVHAMOsgqUnhUanJQ/shjJ49hwd1A+KJh6DewL7y7fowobW9+HVjUF4PeWoS1uy6gIHFDwg8T4enbV7ldYzF90SKs3hSBqLM3kJyinUEVjZ1fxSBw3ET4NayC+g+/iinjq2DFT9Ha6Ta2f4F2G/2xIlLbV8jiQkbC84HmyjISa2O1nQWRcgFrlcdrdfQNbQcREREREeWGQQdZRWZXkcKjlD/y2MljWHBVUKt6AqIOxyDh4kFEFaQxnRyB71fF4MD3H2N6SHQBgo4b2Ll1E3A1RrldO7B6qXK8ccPQr4cvvLzawPfJsZgevEm5rVZeQ/INJFzVlljl9u2KQLgsm4IRtGgRgmaMVcOKfp3aoOeiSKtvd9z5GO02usK1lrazREvGgaCRmLRpE6Y/2QmDlOcqT8+RDBMKno1RymW91PClObw6+WPUghAcKIwQhoiIiIiohGLQQVaRKWQLt/Doeax+oy88nxqK6ftuafusl3xmOyZNGYNBnx/N2Pi7vQ/Tnx+Ffu9tx8k72r6CuH0VJ/esw5v/nIC5Ufk/oDx2hTUNb5O2PVFfXQvD7oP5/6U/YUcwVqudTOrh9eE94KruzY8q6DV5E75dtRzzJ76KwCd90cLdSTstGXHRO7B6xjSsPeWFLs96YsWM2dh59gbO7/8Yc4NuILC7l3Zek7hNb8Hb19e0dOqLQcOGYYgs42Zj6dKPsTR4B6IOR6vBycmlU7Ek0rrm/+07+vkao3ZNbbXESsaBRQEYsiLGtOn5HKY84wn9Uc1N8vFgjOrQCUNmBGNbdHzaeyQ5NhrbVkzDIOVxnbuHvUSIiIiIyD5xetkSqqRNL3v6/CU0upukbRWGq1g7dSgm7XsI8/87F4PraLtzkHz5KA5c1MOGm9i9Zi6WRlVAl2FT8HLTCure83uWYdKG8+gVOAMveJr2Cae6zeBTJ307i9Q7SLh5F9cvn8Kp0yex//hR7NyzD1HxZuFGxbb4YMUM9M9nI/l0eWc0qu+hbRVENJZ29UfQRWU1YDmip/kiOSEO549E4sC+SOz+ZQ/qvxmCKZ1yahbfwIaxvnjzB2XVeyp+WRughSeFKDEeJ6P3IHzjDqw+2Bz/XvcqWiAe4cun4s3/hCHOyRtDpy3AzL71tAuYyDAY77GblLUqaNKyntq4d23sC596TqjduDkSNs1CUGi8et4m/ouwcnYP1HdUN3N0YEFzDFqhrLSciu3rAtDEtNtKkZj7QADk4gXzEr49PhE+2lZ2zoeMRM/JYaaAwq0HPli3CP3rqifl7uoOvNl1LDZoI6VcO76EKUM7K8/vBfz8n9lYoddEcemED7YuR3930yYRERER5Y7Ty5Zs+vSyDDpKqLITdLTF/C9mYLAV4UHc9hnwfX+ftpU3Xcatxqc93bQtxZXdmD59Nb4/cR4J2q6sKqBW47Z4vKuy+LaDT103OBWgD1R+go7kBK3ORcIFRF2QW5qM89EHsXv7x9iQQ52JLvPC8Kl/Dg/q2WAM6jEbB+CEoav2YGZHa/sKWOFiCN4MSsbLMwLQIv/dRLJKuYHwJS9h+FIZZuMEn/Gr8GmgN1wthhx5DyYCvzyCKQ9rG1kUXdBx/odpGDE2BCdlw6UT5m9ejsHWhhzSE2RBPwxaYZrNpklgMDZO9E7vCZIciaChC3C+ZwBefqIHWtQtxOediIiIqAxg0FGyMego4ewq6IhaCc/x6wHX+mhRp7y2E/jrfAzibkuYUA+10wKEuzivhg8D8O3WEbn+8q2K347hzy/GzrZjEDG7J6wrv3AL2+Y/g1E7K6FJ0zpKQ9AdPu3qwzXlMnZ+vRNRrUfil3l9Ub8QB3flPeiIx9rATpgUpm3mSHo/tIdfZ2+0aNUGPm280cQs18ks6uOe6BekNIY9x2Lj5lfRwooeEVaRhvSTAVgqIy7cX8W3O8bCpzDa0ikXsG3qSIwKkQNXQa95IVjmn7EnSEaFHXQod+3qjbQhINk6uAjeI4OVFV/M/H4xnszSW6ICXN2yf0AS9izAoBc+y2fIoUjYgTfbjsUGdaMHPohYhP45vA6IiIiIKG8YdJRsDDpKOLsMOvLEctCRcOYPRF3RNnQJezF3/npENR2AD4a1yxJ05DpsxVy+QhPr5D/ocEItL0/UljCiamP4edeFU63GqH98MSYFX1AaxAH4dPdUdHExXSpXKdFY+g/T0Jde70dgWd8q2gkFdz44AJ1nSFcTTwR+GYIpDxdCyqHOPOKPST9ITQlPDF3xGWZ2yr0LUIZgInYjRj05G+HK6uBFYZjSPuvtcnKtAqeCBj4ys8tznykrfbFs3wL0ykOPlgKHHIrksNnwCpSgRSHDmmZ0Su/NQUREREQFxqCjZGPQUcJx6IplB1b0xaBvtQ0rZRm2Iq7sxPCRXyPOrIeJKvUqTp66iuSKbmhRP+tP4X9dbodla4da19Mkk8Kr0aExq8XQZHwItr+asahndpJ3zYb3sGAkuwRgTcRU+BVaSzgeG0Z2wpuhymphNbITY7B6nD+mhyarjf+Zaxdh6AP5OGpaAOGL+T+vynOAYFFCNDYsX44lITtw8irg5O6NXsrbc8MOCXqsq8WhyxByePpj2cpZ6JWP25jWU0fhN3s71gzOqdcLEREREeUVg46STQ86CrFjPpHtJERtQtDnq/FzhWcwOiDT0r+tqZBmnbYYmvk0ZWkRa7rstj/VQ5mk3lEOeh5RJ2IyLhJyyOm3r2Y9TVniEgpjKpdC4tYDr4/3VldPBs3Cam2Cjpwl40BoiHoffSa+VIghh8ltfQZdJ6dCCDkiEfScFnJI43/z8vyFHIrzp6JNKy7eaKIHCGd3IGjeRAyRqWqVpaevaQrWtGVBDkVQru7ApB7+eHPFDpyEJ1q09EL95Egt5MibuLDZZiFHAD5dnb+QQ57buEumkEO0aFAPiI3AireGpd83374Y8tYqhHN6WSIiIiKyY+zRUULZR4+Oq9i2aDqWqC24rCzX6MioxdMzMb+TW4EKkeoCgzZhSm4v8xI1dMUKMqzj1Z6mOh7W1Nu4ugmjfCdim0tfLPt+JK6vmoq5wZFIcPNG/7HT8K8ArwIFFFFLe6LfImlsd8L8n7MZeiHFVUVOtzMhAnMHD4PMrurkHYApT1XB/h07sHNXjKl4rJsnWrRtj8H+AXiys2c2BUl1ydg5ow2Gy4iOvosQ+b42lW5aL49sBAYjZqIpSMpMv59O3WZh+1J/06wv8lyM7odJEszI/Q9T7n9uM5ocX4Wefd8zhRzeyvP3mfL8WTsEKYuMNV0GB76KqOCPEaXNvpKBizfGf7EKo1sWctJFREREZOfYo6Nk49CVEs5egg7T8BRtMx8sDjvBHexcMhDDN+Vt2ItVSlvQIS6GYHifadgpQ1gyz7KRScKmsfAetwP1h45Fr12L1CAhnRP6LwrDB0/koWaHhBbmIUPabC4Kz5ewZu1E+Ol1KuIisHTBIny+Ixp+83K4nrgwTB86MmsPFQk31FlCknH+sBZ4KJy8XsWnq8emX08WkQjyDsBS5fFpMW0TNg71NO2WHh07EvCwl0xh64RajRujtvkD51QFrhZDhwtY+0JPTNoDDF1xEDPNp/HdswCeL0h44oTALw/mWNxUxH03Er4TTclEi8nKbRum3bZ8sVC81qUmujw1Ek/1aAzX2D347vPPsCFa7bME1H0J326dWDjFYomIiIjKCAYdJRuHrlARcMPg2ZsQszXjEh00AE20c5hUQJdxK7KcT5asIYfizh/4eZOsVFCLk4YfyHk5mf38saVH8gUcCFmEN4dlHGLh/bg/Rv0nGU/NeEmtB3FyxTCMCkkfvpDRBXz/+Q517fzqRVgR64XA9zchYscC9Fcb9MnYsGNPlul2E5TTJ4VEI0HviaFLicDchzth+IIQhF/UGs8NA/DveVptjpjPMGTwAhzQexRUdwX2RSIuUbmerb9Yntb34g5MMg853LwxdEYwfok8gpiITdi4LkRZNiEy+iB+Wf6S2vshOfpjDAkMxsnMt08Xc0QNgSR88GtuFiQ07IHxgf7o0tEXfh290cS9ClzdzJZse1bcQfJN09r1WxmHMiVcjdfWkhF+JPexRLU6+2Ow9hKPmuePQR9HZn2c80sKmn4fhk9nBKC/ch+7+I/FB18uR6Dey+biZ/g8VAq8EhERERHZF/boKKHsthjp5e0Y/upi7EQz+NQ/igMnPNGl/V3s3AMMnjId8zvl1tdfaUzunAvv+bu1rdxlHrJy4POhmLTXzdQYzyyXYqSq2+4YOm9KnnuS5LdHR1zYAgwf85nlIQgWOWHw0jDM75Gpx0RMMPo9PhtRsp6psGf4vOYYskrWshbRPL92GDpPjQDcxuLbiFfTTzM7XsaeDck4sEBptGvdRZz6LkKENlzk5Gp/9Jwl9TIsDO24uAmjBk7Etquy4YQWwxbh04mdUCuHYSkyy4h3YLByjUD/RREWe4nEhYyE72Tp5hCATw9NRZcC92BIRvis9hiyWmqHKMf8TDmm3I/YMEx/ySykyWHoSwYJkVj66jAE7TeFRa5PTMW38wLQJM9DWDINXVl+EPO7Zb2z5gVLrb6NRERERKRij46SjT06qMgln1Easm8sxs7b9RE4ZywGV5W91fH4qOmY3/4y1s59DYO+PoqEVPXslt05iiWrzEKO1iOxce3XiLSwfNpfO09md67ipIVCo+qSSzFSdTlfhAVJ1d4KppDDycsfM7/cjshDRxBzXFsORSByRwg+nfeS0tjWGrWez2Fwx6wN/qgflOOoa07oMm1qhsKeTR7opK3F4EKctqqJOxNhWmlV01T0VZNwLFI7ni9aNDZvUDvBZ/zytEZ28qaJCAozNeKbdPSHKXMKw9Zdeu8HEY9tH8zSQg5PDH5/IzZOzjnkEE4d+2KoFghsOHTKtJLBDRzYpbX8O3mhRdZ2fz44wW+4Np1vTDCGd9J62HSyMNzGGq7eGP3FRizzN/U2SfhhNvo9twA7Mz0PuauC2maTrLhWtXxna9c069Vy/BTyfDVERERERCUcgw4qAndwcvti9Bu5HNsS6mPo7LmY0qKydprC0R2DJ83F6MbAgVUT4PvWaoSbt4HT3MGBrxZhxWWlqdmlC3rJrt+Xo9/gZ+BtYRm+Qb1QFj6BWYfIpC1fjEEXOZPU6LB0uroUcl2QHBzYuNxUqLLuS/j0y1kY+nA9uGbIFKrAtaEXuvhPxKdhBxGxairmLxwLn8y9AVIi8f1/tF/xvd/ClKcyTjvqWit9+3aGoRMXcPKwtlqvlqmIp+bkIdMwGNRtjxaZi4461sPgaVNNjyWSsfrzTaYGtWd7DG6p7sTOXQfNhq/URK/5P2LN6E4Y/fmXmN+3HpKPb8Lc0X3hrQ7T8UXPYbOxNjrTUAvlepq01dYtNdqTD2K3OswJaNG5TeHVXKnrj0+3rsKUJ71RS3usXT17YPyq5Zii3b8WHtkWDclKuR+95oVg43hTfZXk6M8wvO9YrD1rOtk6TqjXOH2K4ZNnLL6JMnJ1Va+PiIiIiMieMOggm0o4tRNzpwxFz/e342RFT4z+10LMbGthSEjFZhgftAgzO1VCctTXGPL8MxiyYieizAo5JEetxqTg88paW8wc1tPUuyA/PTqscf4q/tJWi088Th439YRAt87ws2IoQ62OARhsYSaN5D2bsFob+tLrhX5okqmnhFOlCtpaDOLUXhWahGjs3mNalfoW6UeORvgPptvm1M07U80VTd2+eCFAWw+LwAH1ufSETy8tVNmk7NPunsqxCvzGLsf49lWQHLkI/fpOxIodetHRGzi5KxiTnuyE4RlqkFzAeb3YbaYgRiTvC8Nada0eHm+r92SIx4aRzdWpVif9YEUYkB13XwS+F4wIqR9y/Agity5CoOMerFaDoUz1QKzihBavBmP7bK3GiUxh++RIrNZfA1Zo0kZ7Xyh2Hjpi6p2UyflTWg8dRf0H62V5zIiIiIiISjsGHWQ78Tvx5viFWHHgFpwaD8CnKxZjfOtK2okWVKyPoZM+xbeBDymNr1sI/3Yh+k3/GlF3lPb27yvRb/x6nFQLl47E4DpawzwfPTpylKI0juXv5ZsWG4lFrWI5bSU0ElH5LlJ5AztDTHUs4BKAFzLX7hCOMu+IuIC/4tLveULYJpgexnro0MqsF0h0GNZeNK0O7pzdLC9OaNzcV1tPwHUtaGnipQ+TCUOUxaEeyu39/GO1J0uXySGIjD6CmOgIbJwmAUAydk4eiaBI7TYeP6gVGgV8HjAPYkQyDoSGaPf7H/B7QN2puIDDocqfqzFwrV2IXXPOhmDUyM8gURw8R+LJfJa+qD94ObYv0KbATQzD9MEBafU7cqU8toP1fCV4QdbLXQzBkmB9Xz0M7pjeA4SIiIiIyF4w6CDbqdkFUwK7YPC4xYj4cAS6WNOmdKgEn0FzEfnFXIxv3wxTXn8GLSoA16/fUk6sgBYBc7Gsp1kFy6YD8MHcuVhjYZmit6dzFYvV/+wLz8eV5cXFCJdddSpn03gvSjXRppPWWr64CIOeX4SdMfFIzmvgcfUXfKcN36j/sj/8LN0x93rw01Z3HtLSh8RILFmiD0/xRxezNnFUaIipQe8SgMd9lQNmc5vizkRqa+mcHvDShrRcwP5jlnpUJOO62o3DC107e8FVep84VkGLoe/hX0/I/hgsXbUDcQnRWP3+Yq1OiNLA75ZxOA6SI7E1xNSod/LvjBYW6n2cv1QIs44kX0D40mHw7mGa4ld6rYye/5LF67NW/acWYaM+e01iNJaOsDLscPRC4JQA7bUbgxUjeqiz4uzcFYENKyZi0ED9NiqPSd+3MFQbZkNEREREZE8460oJZbezrqS5irVTh2LSvraY/4U1NS/u4PyJK6jd1F1rxB3F3McnYIW6nrPMs65YEvV1IPqtilXWKqBW47Z44bWxGN0ih94n+ZCvWVcSIzF3YAC0CUzSOLl7oYmFx+zJd0IQmKknwfngAHSeIYFDPYz/fjtGW/wRX2lMd/VHkNpLwwm1vDxRNTYaJ7UZUPovCkuf0SQ5AtN9h6lDYeqPDcEvcsCYYAyZFAmfZ/ri8bZtUN8VuH7kU/xz9Mem6WW9p+KXtQHasArlPj2g3CdZtTjrRzJ2zmiD4cHKNXebim9n+aNFLdOznvDDRHiPldTGCU4uyUhWG+1O6DJvIz71zxh0JO+aDe9hpp4sGWeFuYFt43wxSg7j5ovx08aiV9vGqK2fnKYCXN2y7FQOfEN5LR7BwT9+QeiOMOzcpQ+vUSjHm7JyOQItDB/Kj/MhI9FzcpjWK8ULo1cGY/zDuR07GSdXj0W/WdrlLHB9YhY2vu+P+gUIY4iIiIjKIs66UrLps64w6Cih7D/oKCgt6JCiobN7WiwyeeDzgRgUfMeqoKMo5Hd6WZl+dMXEMQgKjc+24aoL/PIIpjysbaguYPXgnpguOUeGsCGruO9GotPErI3jJv6LsGZej/THOCUZ5yM3YfV/dqDJ5OUY3FDZFxuC4Z2mYafpHJl4KrcrRLldegM9HhvGjUFoQ3+8MKgvfOpaaLhfVI7XJ733QbbcvBE4bzGmdMuc+qSHJZamlU2O/BiDXlqUy5S9WafaVclwkg4j02qeqFxqosvL7+FfI31znSkmb8yn6q2CXrO/xAeDMw/RsSwhJgxrl63C2rAIU2Cl3MYWHXticMBIDO1YiEN2iIiIiMoQBh0lG4OOEo5Bh/3Jd9ChSb4YjW2/bETojgicOhWDqFjzSMLUC+PlmZl6dGihxNqvQnCgzQKsCcg0vCODZJwMeQ+TFinnVY4ts4gMfn0kXn9CGz6SExm+sSkEX28KQ/jBaMRJCKA2rPvi5bFj0d9sKlurxUVi7apVWB26B1Ex+hAT0/1s8oAvHn9iEJ7s7JntbUuIicDWb4OxGgH4dqJv1nAgVjn+18H4/pcjiDps1itD4+r5Fj7dOixr0KFIDpsN36kH4dfNH08M6oReXvXgZKveESkXsG36YpwcNA2jvS3UVyEiIiKiIsOgo2Rj0FHCMeiwPwUNOoiIiIiIqHgx6CjZ9KCDxUjJKg7KGzeFb958k8dOHkMiIiIiIiKyLQYdZBWn8uVwmy+XfJPHTh5DIiIiIiIisi22XMkqlSq74Ea58toW5ZU8dvIYEhERERERkW0x6CCrVKnkgtRy5ZDgwF4JeSWPmTx28hgSERERERGRbTHoIKvVrFkdV8tVYNiRB/JYyWMmjx0RERERERHZHoMOslqF8uXgUacmbjpVRGz5irhlcGSBUgvkMZHHRh4jeazkMZPHjoiIiIiIiGyP08uWUCVtetnMbtxKxK2biUi+ew+p2m0lE5ldRQqPSk0ODlchIiIiIrIfnF62ZNOnl2XQUUKV9KCDiIiIiIiorGHQUbLpQQeHrhARERERERGR3WDQQURERERERER2g0EHEREREREREdkNBh1EREREREREZDcYdBARERERERGR3WDQQURERERERER2g0EHEREREREREdkNBh1EREREREREZDcYdBARERERERGR3WDQQURERERERER2g0EHEREREREREdkNBh1EREREREREZDcYdBARERERERGR3WDQQURERERERER2g0EHEREREREREdkNBh1EREREREREZDcYdBARERERERGR3WDQQURERERERER2w6D+d9Jho3FeC3WVSgaj0aj+TU1NVZeUlBScOHECrVq1UveXKbEhGN5pNqJeXYWw8d5wQiTmPhCAtX0XYcf7PVDr7A4EfXdEO7O55hg8tgfqK2vJFyNx4EyyaXcmtZr7on5i9qc73e8Nn7pO2hYREREREZVVhw4dQtOmTeHo6AgHBwd1EQaDqWlNxcswOQqY31J7Nhh0lDgMOswkh2F6q5FYHRiMmIneyg5T0LFC396/AJ7PfWY6r7lOsxCxwh+1lNW4kJHwnRxm2p9J4JdH8PKZ7E/vMi8Mn/rX1LaIiIiIiKisYtBRsulBB4euUImWsD8YQcs3QXm5AvuU9UWLlCUYB/Tt4EgkyLpCAouY47KEYX4nbWcmQ5dHIDLCtGyc5qvtTWd+euTyAG1vIUm5gQPBEzHItzk8H2gO78Gzsfa4WS8SCWyU/dkuCyK1M2aSsANvPtATSw9r27qUeOyc1Rdz92vb5pTTwlcot6VTG/XY3o+PxdJd8dqJVkqMweqRI7E2VtvWKfczKmR22rE9ffti1NIIxKVop2cnt8dHdzYMc0d2gpcc27sThltzbFuys+c1+Xgwho8MQZy2rUu+GIYVbwXA19t0u+XYc0MvaKfmoLQ+r0RERERUajHooBIt+UwYli7dZAo2Ijcp6x9n3A49BcsDTixb/f/s/Q9YU2eeN/6/ldmmD/NI1z7Sn7PCtgPobkR3AnYmWp+J1F38swXtGJdZcfACSy9xcItTR0YdXHVwlNKlI10Z8ZKKl6xxhy/pqtD1DzMUc63F7Fchvyrm2go8dcCtj/EZf4YdxvgU8zvn5CQ5CQkERIX0/bquU885Cflzn5M0n8+578+dp4VG61rSi83yXi/l7Zo8g7x3NDjQWrYKK4+qsPyX52AxNeBnSW3YkZaDmi75LpoCb5JFuZwpQgpikPuXavmOvuzCY53SZGPZLHmH6JYZZT9IxVrPgys50LLnNaze34N5e+uF5ziHw2uicDJHuP+J0IJiu9WILSvSsKNJ3qFgq98svE87luw0wmw24dzeVNgO5UBXbBrkWIXQPqKbRqxdXoBW9W7Um8w4/0EOVEeHeuzHKYyOq5Sg2o70tN1o/lLep2Bvu4jbcwtw7Izw2oXXdmAlUJuXPsRjj9fjSkRERETjnzh0hcaUhw8fSsuXX37pfPDggfMPf/iD89NPP5Vv/appc/58utr5zbcOOz/5t4vCctiZJ26/0+a6+dI7zm8K2/of73P+wz5xKXbmpAi3v1HnvO26h/N23TrpPn//G7vz3u9cy9Wj2dK+n18KfPu93xRL+3LqbPKjPILPjzn101Od+6/I2xKb81dvqJ1//rOLzvvynkCuVr4mvPd65z1521e38+jfqJ159XZ52+Y8s2OV81vC6/5WdrbwnK735+PeOWeBsP8nv/F91qv7U53fzKpz/lbeDuj+Neehdd91/vl0jTMte5VTN32d81dfyLfJbredd17/vbwhu/+bIqEt1zlPug+Iv5Da577zk59pBrTFfeH466avch79XN7xJIXJcb1/7bAz57tC235rhTPzb4X7Kz47wd13frzD93M2wHg9rkRERERBiDGZGJuJMZoYq7njNhobxNyGmOJgjw4aP06/i9U5OcLyLs7Ku5RaT4q9PcTFgOab8k4/T6tHR4fJiNZZ2VisvDqPKXh1qQ6OmvNoDdZF/24D9pc9wKY30xAl7/Jx9SNUfZaJNamT5B096LgWgw3VJliqC5As7w0kKtK3wKoqSniMZ4Bn5e2A7nbiKtLwzkkT6vfqES/vVorW6JAQKW/IVH+mwTzh3/tB3mdI7eMw40yNA1n6VJ+2UGkWYXGkBWfMIQyjGGXhclzt/2EF0opRL7yffSvj5L1DUSF+phb4nQP35D3+xutxJSIiIqLxjYkOGj/E4qNSDQ4DcuVdSqHU6PDex7tsmyME5/rKAfu7jmfLf/WoetHZJgSS345HgrzHLfolMajsQrd/QQRZu+F9nPUfvuDhQMu/VAJv6jHPE9tqkF9bitz5gxRPjdJhTX4cqnbuRrNcX8N+1YA9ZQ7krk+TircGNTUN+yoLsUztDsBDdKtTGm70bIRr02EpxyKNHlVCs4TcPl1WNEOLxHi/GXAiYpDwMtDy+RDDM3xqhyRBu7wAexqssAdLRgwpfI5r9OulOFyYhsSAWZdgHOi8ZoYqKV6a2Uja8zSOKxERERGRHyY6aPy42YaWC2ZhaUO3vGvE7nbJjzVw6bgr32fUOHDPDqj8rrRLpsUjBSZ0BOqB4jCj9pANWQV6TyDp424jjtZEI2NB4BoPwamQXHAch18+h7U6uUDkikpE7azEtjkBXuMjc6C5/jgcS9OQEjDaDrF9+u4Jx12FZ59x3eQ1BQkzhH8+6xxQQNNDLJya/xr2dKqxrcYEi7keh9/U4PbRbGheyQlasNNuOYj15RbhFQbyFT6ujjtS0mjP6VS8s1YrPHMgT+C4EhEREREFwEQHjR9DDV35Z3FGFnGpxJlOeWcwXXXyYw1cagPVeRwF82Ji5LXQ2BsNqJmch4y5gcNIW1PDIL0CBuNAa+kqrL20ACUfikG/Cecq9ejZmY61xtEeJuBAR00B1p/QoqTQO0xDpSnAOYsRuYpYPrT2iUPMoF1OAhHe76Fy2PM+wrFCPZJfnISoyTFITMvBvlozzO/NxSdv66BeXoiqBiu67/bCfsOC2tIcpL4DbHhTEySQd/kqHdfWUlcCJW62DmvrpmDbyXIsmybfKHiyx5WIiIiIKDAmOmj8CDJ0xfa5KzMRSo0Of491Olk/tj73RLj+VFDJQzq8enDyaCNi/1aHxAG3iXpw5lcmLF6THrhXwCAcF97F6qoo7PplMTJmTRGC/ilIWFiAw3tT0bL1XZwarR4t/T04tVWPRcei8c7JSmQoAuJAQmufB7AHm4bja8HSEWJPh3LkawIPt4mevw7HPjHh2JopuLw/Gwu0WmizStEeX4jGf1qHRL96I/6+Ssc1eYP8WWk04p30OyhbkoSVB60YbGaUx3dciYiIiIgCY6KDxrTuRrGHhsE1newlg9xjQ7FtsOB2vxgh6VBictfXCF6jw9/jm052oPYvAgR8t3rQAi1ip8rbbtaPUGVRIzc1yPCFAcUqQ9d+yQjHrDTM86s5GfWyDvPQiKaLvfKeR3CzEVteW4T9yMG5D4ux7EV5/yBCa58e3B4QsN9Bj5jriosZvL7IYCKmIFlfiANnzNI5ZDUZsEuvRlTAZISvr9RxjRR7wwjLi2qkZBajrnIVbGXFqL0h3x7AUz2uRERERPSVxEQHjWm2NrGHRoMrsWFpkHtsKLabOtHeKc6eEofYEURDPsVJR634qL8pSPx2jBDEdg6oLWLrtMIxLQmJfgFxx6Vz6J6lHxC0ugQqVjkMjsGuvwP2IW4f0q0GrF9RiNurG6SZWfxnYBkoxPaZnoRlYl2Hz123efT34OpFYNnsQHPAPE5fseMagOqleMTDgu6AJU7G63ElIiIiovGOiQ4a05ILXUkIc2kaUgoqcd5yDZaTxcjKLMV5q3DbwZmwnRPuqItHQghX3/11f6ooRPppiONdRiBxvh6xF41oVtb/6O+ShikkiMMY5F0uXULAa0Xs4qQBs1VIpGKVauSmDbdYpUvCzFQh+GxAi18tEpupAc3Q4NWkQWb2GJIQrB/ajual5TiQFYdQ4/WQ2idqLhYuBWrOmHyGSjguNKAGaVg6d/i9IB7VV+e4Bub4vBOdwmPHBnno8XpciYiIiGh8Y6KDxjz7xVKsLhSCtfqL0uwL9641otZQiDeKGtFxwYj9N4HkhVpF9/b74pB/wDTwSrK/s3sVhUj3Nsp7H4NZemxaaMWOH25HzeUe2G914dSet7DDno2SLL/A1nYNH18FUtQBL/uj+7QBZzVpSAlhOEggUUvzsE0tvJZVOagQi2/esKLZsB2rtwrBZ24hMkb4uC5WfGJ0IDk+Gg6xqKf/0ue6l+80pIKQ2mcSFuesQ6yhAKvLTei41Yvuywex/i0j5m1/C4sny3d7kr4yx9WCipxS1DbJxVqF99kiPPbKvCNQKR47bI4rEREREY1rTHTQGOZAR20BdGuOoGNyKvZ9UIjkSCBWX45juVqkpKpQu8cg3CsVa5aKMzv0onmvHukr8rDnorA5K8Yzy0cwPkNXajcjcZYajn/dLTyG8Dg/Oi7fazRMwbKKehxeaMP+NxZBo1uFo3Y9jtW43pOP315DM7RIjA/UH6ILzXWWERWr9IhQI/fDRhxbE4WTxXosSNVj41E7Ut4zom7T4DOMhMLRB7QIj+upfaJc9lvke/kLrX3EWT3qhOMUc2EzFum0WPSjNiTsNuKAXjz+T8NX5bjGY978OzhZ6irWqtEJj13vwPIKE84VDvbY4/W4EhEREdF4NkH675arTude307W9HQ5nU7p34cPH0pLf38/rl+/jtmzZ0v7vzJuGLF+swWv/6IYiwPM2mEz7cbf38iUhklI2yfyoC00QTVVg4zt72NXqqtPvc0o7N9qkhIb2+ZIu4KzNWDt/EIhKFUheo4eP/tFERb71Vp4aq4exIIf2FBiLhpZHQcam3hciYiIiMaFK1euYPr06YiIiMDEiROlRTRhgiu0pqdrwtZ2oGSWfDSY6BhzmOiggRxoKZ6LLc8bcD5/ZHUcaCzicSUiIiIaL5joGNvciQ4OXSEaN1SYt72NwXDY4XElIiIiIhpNTHQQERERERERUdhgooOIiIiIiIiIwgYTHUREREREREQUNpjoICIiIiIiIqKwwUQHEREREREREYUNJjqIiIiIiIiIKGww0UFEREREREREYYOJDiIiIiIiIiIKG0x0EBEREREREVHYYKKDiIiIiIiIiMIGEx1EREREREREFDaY6CAiIiIiIiKisMFEBxERERERERGFDSY6iIbjZiN25OiRvkKPjYYuOOTdRERERERENDYw0UEUMgdaDjdizntG1H9oxJt3q3HWJt/0SLpQsyIJey4ybUJERERERPSomOigccV2uhCaXCOGk19oLU/D2hpryL0vHBd2Q61NQ/qKAuwor0ZtkxntN3rh6JfvIHN8Ka+ILpcibsbMIEsS1hp75DsGYkf31Wg895xK3h4JC/YIz7XnsrwZIofwuldvbUDHuMqxjOy9joitAWu1haOU0BrME3xPI3HLiLUz8lB7S94mIiIiIhrDmOigcSX6pXg8ZzKj1S7vGIrDjJPVXYh9MQ6hphFU84tg/fg4jv0iD0tmR8FuNmLPW6uw5wIwb20qPvmha+jK0egcLI6W/2hOIbo+u+a3tKEuNw6I1GLJyzHyHQO41YkOxCF2irz9pNw0Yv0bR2CbHIPYoRqn/w5aqgqxUpckJW/UOj3WV5hh80v+BNTfi46mamzMSYNGSvzIf1/agPbBjqMUXJeiVd58rBwW7NEGCOR77bDdnYKo5+VtP62lwvsptchbREREREQ0FjDRQePLDB0ypjXg9IVeadNx04pTQgC+sbZL2vbnMDeiBplYoh1mb4nISYh6UY15C/XI3VqKYycbsEsnPMa0VJQcdw1d2Zc5WPLEgdbyTKxuSsKBjyqR8aK8W2Yz5nl7fOi2oxkmbJwvb0tLoADfddXfex/lkokq4R5Vq/z2BwvC+4THemM7WheU4oNNmsGTQP09qM1Pxdr6Kcj4ZT0sZjPO/WIRHL8qR9m5wXqqCGwm7Fmhw8qaB1i4aTs2zQVS9ppgPVOONV83YrUuExVXg3Qn6XMM0nNHjdjJ8mog/Q50X21Azd5CrF6ug1pqDy0W5Zfi1GcBnk8VhdhpZnT7JTocPV1onxuPmAh5x7B0oWaVnkOSiIiIiIieMCY6aNxw3O2F7YYDqpnAqZ2rsEirRfoeI+7F5eFn+jj5Xkq9OGs0IPZNPeYNM88huWnExrxqtPbJ2yFzoP1gDtY26XC4thiLp8m7FaL1lZ6eH+ZSHZBWDotPb5BCJMv39dJgm899lIsBucI9co/77S/UuP5UqU8IwN/OQc1Lxah/Lw2xQwTx9nPvY8dFPQ4cL0TGrBhETZ6E2DnrcNhkQMnSQXqqiMmUrDw0z6+EqWodls2Kh+oZ+bbIGMzLr0b99ijs/7tytAbKBdztQbu8OlA0VJHyqlv/HbQ3GLAjPw0atQ5vHLAAs3NQUtMIq9gWVhM+0D/A/jQ99lz2f8I4JHxbOG6f98B22YiyzTnC+TUT6lwD8Gk5figmSKyu5Fro4rB8dQyqdh5Beyg9X4iIiIiIaFQw0UFj200jVs9Igna5HivfKML++vNQLS3CMocdiw+aca6iCFkL4xAVKFi/ex6nT8cgY4Fa3jEcXah6YzvsC1OR7B9QD8qBjpoCrL2WhrrjBZgXJe8eRPcNM2L/LAYh3PXRib0z3hYCfRQJbacfMskhJotaGhvwwno9UobVDkB7TRGqYorxwSatfHx60GECEl7yjtGJfb0AG3AER5vkJII0XEXujbLqiLDjCFa6tz2L2HvFhC0697bc++X3bag5akGs/n00XpHPjTQ1YqPkLFeECrELi/DB7hhUvWNEt2uvR8IMHZoLFyF1fydi/7YY9Z+cQ8lcIOv9j3BsfTw++dFfYf2JIXqw+IlamodNjkrUslcHEREREdETw0QHjW3T9Dj2WRvMJ8XhIuXYVVAgBK+Z2LApBhX7By9K2n3agLOabCybJe8YDts1fNKlxZL5A3ssOAaJWbuNhfhhUxSWRDRg9StiEJ4E7apCVF24I9/DnxD8X3Yg6U/l57FUS/U/xN4E3sA+cBHI7qZSrJVqZojPUY2OGfINwfT34NTbeuzAZtS/F0qSQ9SJyw3A4m8NM1nUb8HJAw+waaPieRx2OPyHnESoMe91FU5Zrrm2p+px2N0b5Xi2cPwLUO/e9ixi7xUdSkzubbn3S1QqSmpLkbswDtGD9OCJXaLHMosRzcrRTn0WHDpkAqYU4Fh1ITLmxED1eys+uahD4oxJiJqlR8kvC2Ar3D28gpzC+1u8Ng41tY0ItayM97jOhCZDeL4BQ20cwn0OYr3/kJwAPU5sF6uxcZV8P20a1ldZ0SENm/IbGmUzo0LsCSM/3srNhsB1cPp70WooxErp/BTOu7yDaPH/ENosqNnp6hEjvge1LhMbqwLUc+nrwqnSAvl+4jm8G2dvmqXhWWuNvp8Xx2dG7HC/D40Oa0tN6GYvGSIiIiIKgokOGpcSMrdjU89u/ORE8ARC8wkLFq9JR6y8JyTu4Cl6Ab6fZkHVMYsQVnp1G3OgzjIM6A0g6hYCyEVlnYh/OQ1ZW6thFoL3LutF1G2Ix8dvpyK9wvexJI4utF9UY86fTXJtz87EsQ+OoO5jdxAvLpXImOq62U2cLeUHb3dhSU2bcHsb6r7nQMtn8o0B9eJskR4/cRTiXEUmEkLtnSEVShWe75YZVfJwDikAX1KAiovB2l7wmRln8VeYp8yP3LEJjxWPF/yKrsbGaIHOnsBJq/gpeEFe9bDbcFteHZGoaOExhYC/x300HGg9VISzCwqQqzqHVncC5Hobzs7SIdnd9nHpWLPUhJrGwPVggkmYr0fi6UY035V3DKL72Hb8qCkGG2pMMJ+pRFaEEVsy3kWL58QRXmupHgvePofnvv8+zpnNsDQeRNZkM36yfJXPkBxpRp0176NnbiHqGoX71e7GK58X40eH/F7/TSPWpubgZFQmDov3Ex7v1d53sTLjoN+QGwc+KVuHsrtpKDlpxvnjm/Hq5+VYna/4PEiPlYmyG3Ox7bgJFrMJ9TsXwHYoB7p8ozc5Ifcs2tgUhaz3GmA2N+LYm9E4+qNiNMt3cRPfR3rabrTP3Y16kxnmDwsR2yR81jaHnjwiIiIioq8WJjpofIpQI/+DImBvEWpvyvuUrB+hypKGVyPrXFfHNXpsOT3UsAMLyuboUHFVXJ+ExburkdKUg/U1XZ4ERexCPRb79wYQdJ8oQHqpCruON+BAvg4J7i4F4nCJ+etw7IM82MtLUXvDtdujyyoEdlokuIuVCvcXa2BEDZGIaP+344jaVOgpchqrz0GW8K/j9wNSKS6Oa/jE2IvlGUPX5AikpjAPJ1VijwkhEDY1YN9SG/avScUOU+Dns/1HG7pfjvd9ru5OtEyLR4zfGJ3ol+KASz0Bk0cB9dmFADcOse4Zb4ZtChLmCi/HJveAsJtwtCIem/LWYfnKXtRecB3c1t8cxwuLk5AgbYkmIWm+Fu1tncMLsOOSsGRaI5ouDl3j42y/Fod3ZyL5xUmIjtNh0883I7HPgI+lc1Jw9Qh+VPUAuZUGlGRqECueKy9qkLXbgAOZNxVDcqyo+vEROHIqcawgDYnC47nudxAbZipTSr04W7YbzS8X4wP5ecX75b9Xjoyuchw6p3zNZrTFb8cx8fyeKtZpycSubZnCx8aEFqmXSy9OlW6XHqu+ah1S4qYI57LQ1guF8/94ERKbdqNKHsIj1n3Z0qRFyQfFyJofh2j3/XalS7d79Avv46fu9+F63ui4NOx6fzMSGt5FjVW+HxERERGRAhMdNC7YrQ3Yk6+HVuPqUSB11/87E15YaEfZG6UDCoa2NwkB37RrONkUjW2NbbC+n4STWw1oHay7+81O4XHmIuFP5e1IDbaJyZQyPdYb5STJ5Ll4VWf1BMOi7tPb8cZOB7Z9KASHfrOreMwSZ4ux4PI132DXdq0N3WlJSBxu8iHI+JnatiCRn0qL3HI9Wt/OxB7TID0xgkjIrUadOxCeGoeUgoN4Z6kDNUcbAvfEENt5RjyUuYiO62ZggVqROHCxdYfQQ+JWI6qMVtjFx/28Ey3CP6oRJGxc7qDjovCepsldS4RjcGphKuZNBhIX6GE/3Ih2IcBuOR2NDJ3vkJ1nI1TCySgOwXGJfkkrJV6CpJdkccLjAmevdMrbwaW8Ote3VkvcTMwT/un43HXMOtrOCee1Hsvn+o/NUSFlySop6dAmHpCb1/DJzRhkvK71m1FnEpLnC6/ZzdGGTxocWKZf5JuUipyJZJ3wmj9TvmYVls33bQ/VDDVSYEKHmGwUHuvyaQx8LFGccP7PdaD2kuv8bLc0AGl6LPEv1KvWCo+ncKMNZ7oCvI8ZSUK79ODyfwz/XCYiIiKi8MdEB4154pAQbbYRz2WWw3RZHs5hNaHuFzlIniyEhbeOo1aeblbiMKP2UA9Uf5aDkl1pSBAiJJVGi8V9XejwicotqFi1G83yPvunZrTM1WKmMtIUgsoDlavQWfw+zkpDD6YgWQjW28+3yQG+A467DqS8X46MALOreEUjOl54jj5lSNyL1gsmJCbFD7sQaeJfZsN+rA4t4mvqd6DDWI0aYXWw+iGxS4tRV6lFc+5rWG/w9lIZlBjYC1L+0n8K2kmYpxMiYVNniD0x7qD1vBUps2f6PQ5wr1doyZdjBh9iFKlCd3kmNOqZiFtzBLH5i5Ao3zRsV8VhNTokvOTatN3sEgLxGFdSZtZryI0uR1l+OfZHZ2PZEKVJnn1GeDc9NkUPDyuqigzo8Em8qRA/UwvH1aHbKiHWb1yPH/sX1sDDeUR/5PrnvpgMuiUmg8SeEq59Qd21Sa/pVIFWTiC6Fx22mPzPJy1i/YZQ+ZAf64UX5GFYPp4FnnE/3h2xcw8wNXro816aeacHZcuVr01cXNMpe4aaEREREREpMNFBY5vDjKriLmz4oBr582O8V/HFIR4vapBRWAmz+SJKUr3BleNSI2r7NNhWqCiEKdVlkK88uznsuH25B7elYMk1u0hiatKAgFs1dy3yX27Ar5pcV48TZuugMlnRLgVtKiRklmKbTgh4xYKOecrCjxZXDwRRfyc6TMJ9FTOOuK6mq4TgP9DUuINTzSnEP214gLIlwnOp52J1UxI2ZMYg9jn/NIKvqLmFqP9wLWyleqw+aB062REdjznTgNu3Bw67uN8f/K9VkUII+1mnt7fH3Yv42KTBqy/7B/I9aKm3IvbbM316fwwQpcMuUxu6LGZYzG04V+CfeAmRWBtiXzlui70JAgbtMcgoyERLkwkpAeq73L7VJdzFG6BHv6QWzgVFAuPWNXxSa0Hnl/K2LPZP1cDFTvQ8YmCuei4G6LwTuEbJ/xX/E4XnxGFPwudDJbS+I8DUyD7HTThO4nvJqhDraYht67dsCDA9cTDyYwU6V4RnBR4I7SCfn89+TfhPoJ4w/udU5HPCMRA+yx8GeG3Csi9t8MQQEREREX01MdFBY9vdHnT3aZE4WC5ApQx5e9FsNACZecjw+ZsoxPrPviLWx4hUI0EMeO+ex4mGGCx5OdATTUFsPNDcKQ9fiZuJxTCh3WfERS/O7s3BZZ0BVrHHyZntiK3LxMoqV1f97hPVqJm2CkuUr+HqRdRCjznuXgOWcqhzB59JRik2rQh1ZrGHSxvMFTrgvA0ps4ZOmqhmrcOxf8oDDgivrzxAgVQfaqSsjMEp4zm/13UHLefMQJqyhoVX1J9pkOhJBgH2C404q0lDit/QHsdFA6osGuQuCdJ1wr/HSOQkRE0eUYoDuGVG2Q/SsaUnG8d2p3qSFVJS5pa3V4bDLqzFFWDDUr+eCX0m1B6yIStVMYxCnYQMmD3ngv2SCc1LdQOnFX5pJnIzxZlc5O0RSpyvR+xNI04OmK7WgeYzxwH3c6vnIiPSipOKIVaS/i401wnHzS1KjTka4dy+1AmVWO/DfxnOlMJRc7FwKaRzZcCMKF1C212MQYY09GUKknTCk54wocUvEeMQzhOxZ5JHnAYpkRZ8cu3ewNcmLiM8FYiIiIgovDHRQWPb5BjERjbg4xAKOUrkhMWGlTq/K/5ReO4Fb60DkVjH47Z+rjQEwv4fnbDNl4cq9Dtgv9vrWbovH8ShXwGLZ8ZLf4eoeCzMyUbyZL9gU0y4OIS/EYO8yVps2p6J7gPVKKvIQXqxHRv+sQDJihfVfunXcKRpvfuE5x086RCE3Yqat7Ox/8+KsWF+aJGflOz4IBuozhky2ZGYU4rcnu1YLdY4uSG8v1tCsFz+FnZc0qFkkzdh4EOsyaAxYE+5GbYbjSgrMyFrgxCkyzdLbhixPu8IVJu2IytQbZPpSUKwbsLJph7YR9Iw4nEUXmtrgwE7xJ42urfQmlSMcx8WIlkRwEclaZHSYMTJz4Rj3VQqvM9ryC3J9q2b0tcltHEBaucWIVdZH0OlxZKsLlQdbUT3DRPK9gvvMyNAm0xNw7admUgO2FjDMCsbv8h9BlV5mdhisKBbPEdvWFBTlIn1J7QoKUxzPbfwurI2adBavArrq8zouNULW5cJFblF+Ph5ZVIpBhk/yYaqOg+r9xpdx/fuHXRcbkDV29W+U9AOaRKWFRYj5dJ2pOceRHPXHddjNR3E6lW7Yc8VziM50Rf7eh6yYMD6VaWovSoc37s9aDUI55ixR6pJ4iHWltmuQ0tRnvA+TNL7EO8rfnb3lAapD0NEREREJNly1Uljy8OHD6Xlyy+/dD548MD5hz/8wfnpp5/Kt361/LZunfPPp3/Hqf/xYefJf7vm/O3v7M57nuW+fC+X3x5b5fxmSqUz0Bkt3fbGYefVL2zO6/XFztRvrXP+qke+Uen2OedPvvea81vT1c5vist3XnPmHWpz3vtSvj2Ye23Ooz/OdqZ+R/676Rrnd5ZlOwsOnXdevyffx6PTefR7amdOnU3eFvyu3pk3fZ3z6H/4vqdA7t8T3sOleufRHeuc3/mWxpn20zrn9d/LNw7D/UvvOFOF15lztNM56LPevug89ONVcpt8x5n6w3ecH38u3xZMj9COyzTOb37ru86cQ9c8j3//dqfz4/3ZwmN9x5mp2B/I/f+od/78hysUbeq7+LSf0pfXnPtThNf5vRXOvB2Hnb/6t07n7UGe6Lf/slloR7Xzz7+72bf9f9/tvFz3jjNTeP5vvXUscBv/vs25/2++I7yeod9PcG3Onwvv5+eX5E0P136f9/ml3Xm1/h1n3mLxOYV2ENpX/Gx88oV8u8d95/W6Yqf+u8IxEO73rcVvOfe32KTP0zenv+O8LN9LdO9anfPv//a7wudMbFfxvH3L+fO6a07PaftFnTNHODd/5f8c0n6/1/2F61wR29P9vD+vFx7L//MjnFP7fyh/zsT3sEM8hwO8X8Htf6v0vl/x/Mve7Dx0vnuEbU1EREQ0cmJMJsZmYowmxmruuI3GBjG3IaY4JngSHXtHXNqPHgPxGImED4209Pf34/r165g9e7a0/6vG3mXCyaNG1La1ocN6x9sDIXId6iwFSJY2etFSvg77o0txLDNG2uOjz4qqt9ehrOkOVJpMbNu9GRkzQusBMersZpStM2L6L0qxTFErwnaxGj8/aETzhS6fKUxzj1/DtjnyhqC7Ng/phx1IWZqGNSvTkDxt5O+j21iAPX0F2JcVN7K6F8PRZ8aeVcXoTsrEmrxMzBusuOXT1m9FxYp1+HiGHhl/uxoZc8KjHkT7wUVIv7AO54/69bAZC+yN2PhyAV44Kpzvc+V9RERERGPIlStXMH36dERERGDixInSIpowwRVa09M1YWs7UDJLPhpMdIw5THQQ0agTE02v5eDs3xpxfl2QuihPkZjAW1AUhQOXSrH4UYf5EBERET0GTHSMbe5EB2t0EBGFodaDedhjNKFdqrsh1rUwYMuqPFSpsvGLrKec5LjVgB2bq3Hqchdsd8X6IRacEmvZFJmRsvctJjmIiIiI6JEw0UFEFIZi1WrcbijF6lQtNNpFWLnTiHvzi1Ff61uM9amYHI85X7fg0I/00Gq10C5Zh/2XorGhuhGH9QGGnRERERERDQOHroxRHLpCREREREQ0tnDoytjGoStEREREREREFHaY6CAiIiIiIiKisMFEBxERERERERGFDSY6iIiIiIiIiChsMNFBRERERERERGGDiQ4iIiIiIiIiChtMdBARERERERFR2GCig4iIiIiIiIjCBhMdRERERERERBQ2mOggIiIiIiIiorDBRAcRERERERERhQ0mOoiIiIiIiIgobDDRQURERERERERhg4kOIiIiIiIiIgobTHQQERERERERUdhgooOIiIiIiIiIwgYTHUREREREREQUNpjoICIiIiIiIqKwwUQHEREREREREYWNCdJ/t1x1OvcmSqs0NjidTunfhw8fSkt/fz+uX7+O2bNnS/tHy//q/kJeIyIiIiIiCi/fjP2GvDY6rly5gunTpyMiIgITJ06UFtGECa7Qmp6uCVvbgZJZ8tFgomPMeVKJDiIiIiIiIgoNEx1jmzvRwaErRERERERERBQ2mOggIiIiIiIiorDBRAcRERERERERhQ0mOoiIiIiIiIgobDDRQURERERERERhg4kOIiIiIiIiIgobTHQQERERERERUdhgooOIiIiIiIiIwgYTHUREREREREQUNpjoICIiIiIiIqKwwUQHEREREREREYUNJjqIiIiIiIiIKGww0UFEREREREREYYOJDiIiIiIiIiIKG0x0EBEREREREVHYYKKDiIiIiIiIiMIGEx1EREREREREFDaY6CAiIiIiIiKisMFEBxERERERERGFjQnSf7dcdTr3JkqrNDY4nU7p34cPH0pLf38/rl+/jtmzZ0v7n7be3/eht+8+Hjz4v3AKr4+8JkyciGee+SNMinwWk74eKe8lIiIiIqLx7sqVK5g+fToiIiIwUfjdLy6iCRNcoTU9XRO2tgMls+SjwUTHmDNWEx0P/u+XuP27/x++FD7QD8Ug/tlnIHy65VtJIiZ+7j/AxN/34WvC+gvP/zGe+aOvyTcSEREREdF4xUTH2OZOdDBCpZCJSY7/vP1/8ODrkXgY/TwQ+SyTHIGIbSK0jdhGYltJbSa0HRERERERET1+jFIpZGJPjofPTQL+O4djhExoK7HNxLYjIiIiIiKix4+JDgqJWJNDHK7CJMcICG0mtp3YhkRERERERPR4MdFBIRELj0o1OWhExLYT25CIiIiIiIgeLyY6KCTi7CpS4VEaGaHtpDYkIiIiIiKix4qJDgqJNIXsiAqPOnDjshX/1S9vevSi6W0d8nK2499uuPY8uFAqbBfiYEMXHrh2BXXDkIdtFWb8bsDjPqKLpfirGTPx+ioD5Jc1OoS2e5RpeO1dJtTsLED6Ei3ihNfnWpKgXa7H+p0NaHfIdwyi/eAi799pdqNliPvjcqnieYTl1YNoD6mtHWgpTvL527XGO/JtbhbsUdzus2h0SBfOgaqmLtgDPJ/NmOe5757L8s7B+L+PgEseam/J9w/mlhFrA/7tIEupRf5jX/bThYr7ZaIm1BOt/w5ajeXYmKOHVqN4Hm2a1GZlJr92Vrz3gcfApVtoT7X7cZaUonW4o6tumVGRI56Twt/Kuwbo70V7QynWL9fJzyWetwWoaOoRzhYiIiIiotHHRAc9Rg5cK9fjjVV6FBQ14gtl4HrrHH7dcAe/fTEV33lR3NGLfzceR8cFO/40KQ6D9R35nWk3frbThH8/VIrTV4RQSQhCdy7RI29F8OWNtxvwO/nvB/VHrn/+6y/iIb2sp62/B2eLhMB2SR52GBrR3tUr3yBywGa14qyhAe135V2B9FvR/M898oagz4Az5mGGmDcrcTJw3O7LYcEZ4yOEr3130H6hAXvy0qBdUYpmm7w/bPSi+UyDvC6yoNbUJa8H57hajdWv6LBy60GcumCFTZmQuNsltVnFRcUxDsVNI3ZsNbmSDZE6lHxQiORQR6cJz9lckQONLgdlF5TnpJ++LtTk65D+9hGctd6RExvieduIsrxFSN/aiO7RTlYSERER0VceEx30GKkwc0Mlti2dhBvGAhSVWeSeGg5cO3oQ/44pmIk2HCsvR3XxZhxsEMIgdRRu1Qnb4j5hOXnZN7C/YSjA2lyxt0Uc/uYDA1ZrVNItD7qs6LgafLlhH2bwHeF63KfLgdb9eVhfa5UDxEmYl7kZJZXVOFYtLqXYlZ+NZXOi8Kx0exBWE2pvyuuymhMm2OX10DhQ869m+XUEZ280oGY4vQJmZWOf9F7EpRIl+WlInuy6yWE9grX5BnSMUiCcmFMqP4//kod58nMGNVmLDf5/9142EuWbsXSz723i8nq8fKPC3fM4fVpel7UfbkS7vB7QrQas/8G7aJGTWSp1GnJ3et/L4b2bkZ+ZioSvu24PSZ8Fe97YjmZpIw65H5QjY5q0MSiHtQE78nRQa9Owttw8xDnkQEt5HnY0iWeNCokZRahrNOP88SJkqF2frw5jIXbUB+5tQkREREQ0UhOk/2656nTu9fxkpzHA6XRK/z58+FBa+vv7cf36dcyePVva/6T9r+4v4Iz9hrw1TP09OL1uEf7RlomdVUX4Tq8Bby3ZjWvyzYP5zl4T9uinCBG0FaeFgK7MKF79jsPyqiP4O52wf4R+d3o7th0K8Ar6etAh9pqYHIeEaYGSHTPxg4PF+J/R8uYwTBDa8JvDaUN7Iza+XIBT4rp4xf1kJTKG3c1EHEoyF6trxGBTjwy9EbVGcX8q9pnLsSxYgC8Oe1h1RFpNnKVG+1WrsDbE36AHNRmLsMOi/BsgRTiGh8Vj6CEOXclElbiqK4a5Sg+f5uwzY89rOaiSkjMqZFVfxK75rmMhDl3RbjVJ67nHr2HbHGk1OMX7GPg6HpE4nEUnJwtyDegq1Ei7B9NtyMSCnWLXGK1wLOzCsRDbKAabPjyH/FnSXQYQhx2ll7l6ayTkVqNukxZREdLm4IK+dwdaS/VYWeXqSZKQb0B9gUZo6aEp2z9qvh4p94w4dVXcykbdZ4VIlm6R3TBgZepuaUiLKrMSlp0673PcFc7tV4VzW0yKTStA/a/XITGU90RERET0lF25cgXTp09HREQEJk6cKC2iCRNcoTU9XRO2tgMlsyawRwc9fhExWLr3HP7pwyJ8J8qC6h/KSQ4hOPz1Z9ekpXavTrrr3wjBq3ufuEhJDpGjE22nhcBscir+rsGIv4vphGWougqD6bMF7PkhJTlEd7sC337Vht4n1dX+epsrySF6PRPLRzKWRjmUJE2H3PmprnU04kRTaFfS5y1ehFhprRGnBxumYP0IVdLwFg0yVmqlXSMSqUXGWrW8IQTlXX7dUcatHjSfkMf/TJuLrNXudu3B/n8NNi7oDtr/X/eQFDWyhHYNKckxiG5jAVbLSQ7VwmJ8sCG0JIckIgrJy9eh5LgJluoCvPK8vD+A9jNH5LodMdiwUpHkEAmf4zWZ8p6bRjR/5lolIiIiIhoNTHTQkxEdg+eFgO7fdhbhmLskwSWDZ4jKsUbXzvZ/9g5bqW5U1ByITkPeB5WobCzH8ngbTu/JwY91evw/pkaUBajJEXBxReE+xB4jysTKr49nu25QJGFciwmbXLmYJyfyOTkQFnzaOaJaBg5zo2coSdbrOiTo0rDMtYnmX51Dt7w+qJdfQ67cWeHs0fqgf9PeZHTdpknDvDhp14g9F+nt49H+xfAG2YxZXSbUyqdg4tpUJM7SeYaLOAwNQQrEqvBclLwKK9o/H2rw0BDEuhzFcl2OuGwce0+P2GEkTqJfL0XduwXImDNUz5getF9wf37/CsnuvJVC4ly9vNaDy9c4fIWIiIiIRg8THfQEPYtnVA/w4kIh4BY3LQ04VnFQWk42uYKiaydd29LS5hv8PD9H+LsoB66V5aHMBHwjpxDLZ9jxfwL2vAiwhFSNdAyJ0yDFXRzy6rv44R4TbMNKdvTirNEgr2fiVa0KiNKJnUNchPZvDmnGjxikvC5nOixHcMo1IsWXw4zaQ65juHhNOp676c5mjcz9fm9An/gNT6Q/rrWfPiLX4lAjY76YCVJjsbvnSp8RZy4FSmJMwsyXvUNiat8uQI11kF41g3HX5RATX8MtPjpc/TfRcVFe18UjIUAyRRUd7UnkNXcqkppERERERI+IiQ56fCzVvj0q/qYcD/LO4YPtqZB6vA81dCVAzYMvagvwY6nbvR5/V6DFM1P12OO+v3IJ1DMjhBoKY4pKi03v6uEO8ztq8qB9JQd7jJbQEh6KwpeqrFTMk0YKqDAvNVMeRhDajB+i2KWZWCyt9aC2aWCmw1OENDITa1InuXaOVH8XmuvM8obwemc+YveQsUCc+aZODuY1eqTIbylBp5frWjhQ0xi42Gvs97djm1y8E30m7FguzmJSjWafGXiGYkfr/iK4RqyosGzvuyEVHx0xWw865FXEx/jWYHGbPAWecq2KxBYRERER0aNiooMen37/Ohg2SKGZ++rucIau9Pfi2sFMvFFkkmdumYT//riuRo8hUanFaKzKRqL7vd41o2prJrRz9NhitMI+SMLD1tSAs9KaChkLvXUYVC+nIkN+PGnGj1CSJmJNhSzXI3QfMvoNs+hFc2OjtKbSpyLZ/UTDJQS79htmVOSukgqaSjSbkTFK+anmrTrEzZg5YFlrfALDJiz12C+XGkl+XecdkvSiDsvd789gxNlA0wRHqJF73IhdS90JJAfaG97F2iVaaHIOoiWEWjWdh97y1OWIzqrEO57HegJCmcGoswdhN5MwERERET01THTQ4zOn0NOb4v1ceZ/SMIau3DCsw1vi9LST1UgYxSvRlvJ1vr1OfipNSQIYi3z3r1iH6kuum560aF0h6k1GlGRqPL070GdF7VY9tD84iPaA07n24MyvXLNjIHIVls9VBJsqDZbo5W2xEGSgoSgDqDDvr1e5kiV9BpwxKzIdN+pxVOo5EoMN39N6EiohMW2H1p10UCdBk5qDMnfB08mp2PeLzIDDHsYXB1r+9bjcW0OHjIUx0pqLYljQYMVeI+OQVW6GuboAKVO9LWy/UI7VujRsOT340I+YBTrMk5NbNmM1ToZLfVciIiIiogCY6KCnZxhDV17MKMDfaNbhHxp347vyvtHw4Jayx4mwDDLryu8CJhSekCg1MnYaYDEbsS9X60l4OC6XI31FOVr9e/4rCl+qMhch2SdZoEhaYLAZP/xo0rFBTjLVGBvhLhHa3iDPrjErG4uDTJE6PJOQnFmM+sZyLBvFpFZiTimOVVcPWDbMfcy9GxxmnJGm9xXoUvHqVNeqW+xCPVLk9bMnzg3asyF6/joc/vgizldvxjL3cBZ0obYgHWtPBO+ZopqxFvv2psmJKhO2vFGK1qd5PvubER94eAsRERER0Qgw0UHjg0qLdbUF0EQ58F+jeDV6TM+6EshkNZYVVsNiqkSWu3RF10HsMfpe0W9vdBe+FOLsqswBwzXiVh3x1IMIPuOHnwjhud+Uk0+nDTgpFjLtt+CkXIQ0eaVcZHY4ZmVjnyLpUHfGBMsVM+p26pE4yjVIo2fMxbz52gFL8rRh9UEZNntTA2rkdZ8eLO5Ftx3N8s0wGXFmqAKxESrEzs/Bvg9NqN/unrbVgeadlYMex6ilxTiWK580XUew+m3jiGbyCUlklLf30WedgZM3fQ7P/tjnHu8xICIiIqKvFiY66OkZqkaHsJy8PJyCi6F7Pu1dnDCbsfP1oabJdJuCpVViwqMSS/2uyD8VU3XY9Q8FnloPrU1mbzApFr7858GHMvgIOuPHQN6ipBacvNADx0UhiJd6BqRizVLlkIwQPR/vm3SIm4KosIp5e9F8pkFeD4WrXUMSMQmJWe/inaXydp8BH1+V1wNSIblgN/LlXIejaTd2nBjGeTIcUTGY7u6N03kHt+VVJUdPlycZl/SnIzh3iIiIiIiCYKKDHj+bCb9pEle68NvPFQH1UDU6hMWsvP9oUk3Cf588Cc+M5/oPUxSzVigpCl+qlhf5DNPwWbbLQxngQI3R5BmKMqjJC7BUDqxb6z5CVaPB1TMkU4/Fk6XdpHTrHE7IM99Asw4HAh0HcSlfJ8++IrTroY88CYChTULMcIb3qDTY9EGxPG2xA81b87Dn8uP4jMUhcYG8evMcWl15TB/tF+V6ONDhlaQnWByViIiIiMIeEx30+PT3osO4HXmpeTjZpcIzkT34f/IKcPLOAuy0KoeFBFmsbdi2UIUHI+he/+De4+kJ8kRZDCgTe00Eef/dTY3eIQ8x0fJQAWXhSxUyXtf79JjwWTIzkeWezaWhAc2BZvwYYBIWZ8jT014tR5lBXFEhK3WYRUi/IrqbjJ5jlCwci8WBjoO4LF2NDPfQKLFArKdnxh2crTKiPdixsZtxxp1IgRqxoSSbpumxyzPkpQtVbxSgdtSLkyqnMbai6ld+U+febcRRg7xnaRqWjIVeUkREREQUNpjooMenpx7vbzWioy8OS8vr8a8fFeM7MOEfV+jw1+qZ+Cttmt/MJml4fYaw372ok/C6thyWL+XHG4rDjH/UuP72r/NcV4sTvjHKhR6epP4eVOQsgvqVTGzcW43aJjNaLpjRbKzGjjwdFu2UZ1VBHPJflxMNDgvOGOUAMlKPJS8Pkn6I0GBJpvv2QWb88KOaq/cUJZVMy0OGclaXJ6T7U1d7DFws6A7QScH22cUA93UtrTcD/MEj60HzCc88uVg+f7DhGVPw6lJ3pqMHtee9U+Hcu7gd6dokaPN2o0yspyK95gbU7C3EytQcVLl77yzMwRJ33ZYhxOrLcThHfj1ScdIABW0fkWp+HnbJb6m7Og+ryxvQfqMX3ZcN2JJdiFPSkKc4bMpL89bzICIiIiIaBUx00OPzYjoy9Kn4uwYjNon1G6bpscdkxLb8NGhmqfG8w39mky78l/ynmByHBOE+Ccs1SAg1hlZp8F33tKmYhBdTN+PH+hAjP383e/A7efWpu2vBqep3sSUvB6tzcrB267uoabojXyGPQ0Z5JTZpXO/b3mSUa2YIzSG0ffIQbZf8l+7ZV4ae8cMjQo2Uv/UG7YlrU5H4FIYAnd3rao+BSyVaAvSAaK8uDHBf17L/4mPoAWT9CFWePEcaUl6U14OInp/qmX2l+1A9Wn168jhgazKgYqf7PRRiR3UDWuX3qZpTgLr30oYxc4kK8wpK4a5NKha03VJu8e118cimIGNXOTKk53CgtaIQ6alaLFi1G7VW8Zlc526+WrydiIiIiGj0MNFBj9Ek/M+95Vg+QxFtR6mxUAiw/uFDI2otAYaruBdzAyqF+1S+m4bn5T910WCddJ9CzJT3eKmg2d4mP4YZH1TkIME9NCNUcwpdf1/u/7xPgaYA5z8sxa7MVCTOivNe9Y6cImynImtnJc4J7VTiKQKqLHypQsZCjSeJEZRiytiQZvyQJS7JlmtKaJChG2EyKcy1NxnRLa8nv67zFI4NauoivO4pLHocJy+KyYApyHi3Acf2rsOy+WokTvUe0ag4NeYtX4eS4+dg+ad1SBzuuR6pwbZfFnlqg3RU5WC93+w9j2xaKko+PIfDBcI57H7tk+OE170Zx0zKc5eIiIiIaPRMkP675arTuTdRWqWxwel0Sv8+fPhQWvr7+3H9+nXMnj1b2v+k/a/uL+CM/Ya8RSMxQWjDb7INiYiIiIjGrStXrmD69OmIiIjAxIkTpUU0YYIrtKana8LWdqBk1gT26CAiIiIiIiKisMFEB4VkgpipfPhQ3qJhE9pOakMiIiIiIiJ6rBh5UUieeeaPgPsP5C0aNqHtpDYkIiIiIiKix4qJDgrJpMhnMfH38nQeNGxi24ltSERERERERI8XEx0Ukklfj8TXxKEr/8Vkx7AJbSa2ndiGRERERERE9Hgx0UEhe+H5P8bEe71MdgyH0FZim4ltR0RERERERI8fEx0Usmf+6Gv4kxf+B575vRC8234H9N1ngdJAxDYR2kZsI7GtpDYT2o6IiIiIiIgeP9dkv1uuOp17E6VVGhucTqf070MhaBaX/v5+XL9+HbNnz5b2P229QgDfKwTzDx78XziZ7PAhzq4iFh4Va3JwuAoRERERUfi4cuUKpk+fjoiICEwUfveLi2jCBFdoTU/XhK3tQMks+Wgw0THmjPVEBxERERER0VcNEx1jmzvRwaErRERERERERBQ2mOggIiIiIiIiorDBRAcRERERERERhQ0mOoiIiIiIiIgobDDRQURERERERERhg4kOIiIiIiIiIgobTHQQERERERERUdhgooOIiIiIiIiIwgYTHUREREREREQUNpjoICIiIiIiIqKwwUQHEREREREREYUNJjqIiIiIiIiIKGww0UFEREREREREYYOJDiIiIiIiIiIKG0x0EBEREREREVHYYKKDiIiIiIiIiMIGEx1EREREREREFDaY6CAiIiIiIiKisDFB+u+Wq07n3kRplcYGp9Mp/fvw4UNp6e/vx/Xr1zF79mxp/1fKLSPW6najfV01TJs0UMGCPTMyUZtWjsb3UhF9oxFlJ67Jd1aaiYyCVMQKa46bFrR+7nDt9hM9U4vYvuC3q17SIHmaSt4iIiIiIqKvqitXrmD69OmIiIjAxIkTpUU0YYIrtKana8LWdqBklnw0mOgYc5joUHCYsGN2HmpyDegq1Ag7XImOKvf25VLErTriuq+SrhjmKj2ihVWbMQ/arSbXfj+5x6/hzc+D356y14TD+inyFhERERERfVUx0TG2uRMdHLpCY5r9sgFllQ0QTlfgkrBeXi4sBrS6tw0W2MV1gZiw6PpMXEwo0ck7/WRVmmExu5b67Vp5r5fydktlprx3lPT3otVQiJXamYibMROajN2o/UzRi0RM2Aj7gy6lFvmOfuyN2DhjESquyttu/XfQXJyGPZflbSXhtpYq4bXokqTH1iwpQMWFO/KNQ7hhwp48HdTia9LosLbCDFu/fJub3YKazZnQSK9di5U7jejok28LZqj2cQvl+Z+kcDiut8yoyE+Tj1cStKsGtr3jpglVwjHValyvW3zsPU098q2DGK/HlYiIiIjGLSY6aExzfG5CRUWDK7FhaRDWD/puN3UiQMgUVE2eFhqta0kvNst7vZS3a/IM8t7R4EBr2SqsPKrC8l+eg8XUgJ8ltWFHWg5quuS7aAq8SRblcqYIKYhB7l+q5Tv6sguPdUqTjWWz5B0iIXAt+0Eq1noeXMmBlj2vYfX+HszbWy88xzkcXhOFkznC/U8MERTfNGLt8gK0qnej3mTG+Q9yoDqaA12xyXsc+izYk5GJmq+l4XCjGeYz25HcthuLsg3oCBq4htA+olCe/4kKh+NqQdmSt/DJiznS8bI0VmPDSxexxa/t7W0XcXtuAY6dEe4jvLYDK4HavPQhHnu8HlciIiIiGv/EoSs0pjx8+FBavvzyS+eDBw+cf/jDH5yffvqpfOtXTZvz59PVzm++ddj5yb9dFJbDzjxx+502182X3nF+U9jW/3if8x/2iUuxMydFuP2NOudt1z2ct+vWSff5+9/Ynfd+51quHs2W9v38UuDb7/2mWNqXU2eTH+URfH7MqZ+e6tx/Rd6W2Jy/ekPt/POfXXTel/cEcrXyNeG91zvvydu+up1H/0btzKu3y9s255kdq5zfEl73t7Kzhed0vT8f9845C4T9P/mN77Ne3Z/q/GZWnfO38vZA952f/Ewz4LXcF9pfN32V8+jnru3fHlvl/GZKpfPql65tyRd1zpzpGuff/1uQdxpS+4T2/E9UWBzXTucn5/3O8S87nYe+J7yHffJnLKD7zo93+H7OBhivx5WIiIgoCDEmE2MzMUYTYzV33EZjg5jbEFMc7NFB48fpd7E6J0dY3sVZeZdS60mxt4e4GNB8U97p52n16OgwGdE6KxuLlVfnMQWvLtXBUXMercF6OtxtwP6yB9j0Zhqi5F0+rn6Eqs8ysSZ1kryjBx3XYrCh2gRLdQGS5b2BREX6FlhVRQmP8QzwrLw9gMOMMzUOZOlTfV6LSrMIiyMtOGMWhzF0obnOgsS1qUiMcN0umboAS3QO1JgCD9MIqX1Cev4nKyyOK+IwT+dXgyYiDonfFpp80O4UKsTP1AK/c+CevMffeD2uRERERDS+MdFB44dYfFSqwWFArrxLKZQaHd77eJdtc4BofeWA/V3Hs+W/elS96GyzAt+OR4K8xy36pTjhv13otrm2/bUb3sdZ/+ELHg60/Esl8KYe8zyxrQb5taXInT9I8dQoHdbkx6Fq524033Ltsl81YE+ZA7nr06TirQF1WdEMLRLj/WagiYhBwstAy+d3hAfqxOWrwLzp4vtSmoKEGcI/nT0Q36rDUo5FGj2qhGYJuX1Cef7B9Pei3bhbrl+RBO3yAuxpsMIedDjNUMLkuAZ0B92dgMqvqX050HnNDFVSvDSzkbTnaRxXIiIiIiI/THTQ+HGzDS0XzMLShm5514jd7ZIfa+DScVe+z6hx4J5dCBr9rrRLpsUjBSZ0BOqB4jCj9pANWQV6TyDp424jjtZEI2NB4BoPwamQXHAch18+h7U6uUDkikpE7azEtjmDRLZ994R2V+HZZ+RtDzmJ8VknbH122IX7qAJ0H4iN1wGmzgDHLsT2CeX5XTsG6utCTf5r2NOpxrYaEyzmehx+U4PbR7OheSUnaMFOu+Ug1pdbhFcYSJgc10C6zqHWFIMNf6mRd/hx3JGSRntOp+KdtVrhmQN5AseViIiIiCgAJjpo/Bhq6Mo/izOyiEslznTKO4PpqpMfa+BSG6jO4yiYFxMjr4XG3mhAzeQ8ZMwNHEbamhoG6RUwGAdaS1dh7aUFKPlQDPpNOFepR8/OdKw1DjVMIA4xQ3YN0CJ2qrwahEpTgHMWI3IVsXxo7RPK8/sT3u+hctjzPsKxQj2SX5yEqMkxSEzLwb5aM8zvzcUnb+ugXl6IqgYruu/2wn7DgtrSHKS+A2x4UxMkkHcJj+OqYDNhxw93w55bily/19Ba6kqgxM3WYW3dFGw7WY5l0+QbBU/2uBIRERERBcZEB40fQYau2D53ZSZCqdHh77FOJ+tH7O0QmAoqZT0LSQ9OHm1E7N/qfGtdePTgzK9MWLwmPXCvgEE4LryL1VVR2PXLYmTMmiIE/VOQsLAAh/emomXruzg1aI+WB7AHq9vwNXfgboMj2FSyga7uy0Jrn1Ce35/Y06Ec+Rp3vQtf0fPX4dgnJhxbMwWX92djgVYLbVYp2uML0fhP65AYKd8xiPA4ri5iD5aVqQVo/54BdZsGJniSN8iflUYj3km/g7IlSVh50IrBSnk8vuNKRERERBQYEx00pnU3ij00DK7pZC8Z5B4bim2DBbf7xQhJhxKTu75G8Bod/h7fdLIDtX8RIOC71YOWQD0grB+hyqJGbmqQ4QsDilWGrv2SEY5ZaZjnV0Yj6mUd5qERTRd75T2B9OD2gID5DnrEXFNcjFwHQuwVIa346O4xAy/HBA3gQ2ufUJ5/BCKmIFlfiANnzNI5ZDUZsEuvRlTAZISv8DiuDrQfzIQ2+zzmVTaibp0m8HuPFHvDCMuLaqRkFqOuchVsZcWovSHfHsBTPa5ERERE9JXERAeNabY2sYdGgyuxYWmQe2wotps60d4pzp4Sh9gRREM+xUlHrfiovylI/HaMEMQOrE9h67TCMS0JiX4Bccelc+iepR8QtLoEKlY5DINPpQF7sNunJ2GZWFfhc3nbrb8HVy8Cy2bHA1NnYs40Ibjt9B8qcQcdVxyI/fbMAEFriO0TyvM/UWFyXMUhLxWZWPkvM3Gg0YBNcwcpeOpH9VI84mFBd8ASJ+P1uBIRERHReMdEB41pyYWuJIS5NA0pBZU4b7kGy8liZGWW4rxVuO3gTNjOCXfUxSMhhKvv/ro/VRQi/TTE8S4jkDhfj9iLRjQr63/0d0nDFBLEYQzyLpcuIeC1InZx0oDZKiRSsUo1ctOGW6zSJWFmqhB8NqBF+VoENlMDmqHBq0lBAt2ouVi4FKg5Y/IZquC40IAapGHpXLEXghopK2PQUicErsrZTKTilnHI0AV+zSG1T0jP/2SFxXG9YcSechW2/bIIKcNMFjo+70Sn8NixQR56vB5XIiIiIhrfmOigMc9+sRSrC4Vgrf6iNPvCvWuNqDUU4o2iRnRcMGL/TSB5oVbRU+C+OOQ/yAwfvs7uVRQi3dso730MZumxaaEVO364HTWXe2C/1YVTe97CDns2SrL8AlvbNXx8FUhRB7zsj+7TBpzVpCHlRXnHMEUtzcM2tfBaVuWgQiy+ecOKZsN2rN4qBJ+5hcgI+riTsDhnHWINBVhdbkLHrV50Xz6I9W8ZMW/7W1g82XWvRP1bSPlsN35YZEDrjV7Yuhrk4pa7PUUqfachFYTUPqE9/xMVBsfV1mZCK2YidnIv7GIhVr/FISWsLKjIKUVtk1ysVXifLcJjr8w7ApXiscPmuBIRERHRuMZEB41hDnTUFkC35gg6Jqdi3weFSI4EYvXlOJarRUqqCrV7DMK9UrFmqTizQy+a9+qRviIPey4Km7NiECU9TnA+Q1dqNyNxlhqOf90tPIbwOD86Lt9rNEzBsop6HF5ow/43FkGjW4Wjdj2O1bjek4/fXkMztEiMDzR+oQvNdZYRFav0iFAj98NGHFsThZPFeixI1WPjUTtS3jMGLECpJM6qUSe0U8yFzVik02LRj9qQsNuIA3qx/WVT03D4ZCVS7lZidaoW2lUG3FtZjWODPnZo7RPS8z9RYXBcpUSGAWvdtWp8ls04Kc3tGo958+/gZKmrWKtGJzx2vQPLK0w4VxiOx5WIiIiIxrMJ0n+3XHU69/p2sqany+l0Sv8+fPhQWvr7+3H9+nXMnj1b2v+VccOI9ZsteP0XxVismMbSzWbajb+/kYkDWa6r5LYTedAWmqCaqkHG9vexK9XVp95mFPZvNUmJjW1zpF3B2Rqwdn6hEJSqED1Hj5/9ogiL/WotPDVXD2LBD2woMReNrI4DjU08rkRERETjwpUrVzB9+nRERERg4sSJ0iKaMMEVWtPTNWFrO1AySz4aTHSMOUx00EAOtBTPxZbnDTif7zcsgsYxHlciIiKi8YKJjrHNnejg0BWicUOFedvbGAyHHR5XIiIiIqLRxEQHEREREREREYUNJjqIiIiIiIiIKGww0UFEREREREREYYOJDiIiIiIiIiIKG0x0EBEREREREVHYYKKDiIiIiIiIiMIGEx1EREREREREFDaY6CAiIiIiIiKisMFEBxERERERERGFDSY6iIiIiIiIiChsMNFBRERERERERGGDiQ4iIiIiIiIiChtMdBARERERERFR2GCig4iIiIiIiIjCBhMdNK7ZLQexp+GOvOXSXZuHleVm2OVtGkV2CypKG2CTNyU3jVibUY4WNvjoY3sTEREREQ0bEx005tmMeYibMdNn2XPZdVvU5EloLTuMVodrG+hF24UuvPqXWkTJeyS3hODQ7zHEZa3RlSQJ9ByuJQ+1t6S7hOZyqfA3pWiVNx8n24k8aN5u9A2CR0Ogtiq1uG6LmoKoS+/j0GVPg8PeZkLngkWY59Pgd1Cb6/cY4pJrdL3eIMdDXNzHJDQW7BH+xn0+PFa2BqzVFuLsaDc42zuwx9XeRERERBT2mOigMS9aX4muz675LNvmyDe+qMemhcdx0iwHgjfqcfRTPVLUrk1f2ahTPEZdrrxblrLX5PMcXZ8Z4HcXDykx4g5GHzPH5VJo3AGrwr1eG+zRUYiWt325At/hBbGyqXoc9mkHYSnUyDfGIKNAh5p6M1wt3oOTR63IWBCwwZF7XPEYx7PlvTJdMczK5xAW/2PiIQXqTyaBBIcQzGsDJLh67bDdnYKo5+VtP62lM0d2TrC9R9TeTzKpSERERETjCxMdNLZJwczAq9DegFKF5NXVyNCopK32hiOI2qBHYoS0+djc6xvkMvOsGN/eJP4cd9BxwYiqnQVIX6J1vR+NDis3V6MlwMOqJscg9lIPuuVtFwd6Oq2YFz9N3h4muwk7dEJweVPe9nBdsR/Q3oqAUvVyJo59P0loecHVj1AVtQ4Zs6SbHp8+xyA9V9SInSyvBtLvQPfVBtTsLcTq5TqopfejxaL8Upz6zNtTwkMVhdhpZnT7Bd6Oni60z41HzIjOrS7UrNJjz0X/52N7P572BjoMmUjf604QEREREdFXCRMdNLbNKfS5Au1ZxCvechJEvUQIaF52BYjp5T1o3qqT1hcctMoPMvrsXwzy2M+r8Jy86mHvQouxHBtXCYGfdgW2nOhBVGoBDn9odr0f84fY9RdmrE0NkHx4MR7z+qzouXkHreJj5KRBMyMJaw1A6/4CrC9tQPtw6zVE6ZDx/S7sKGv0q2WiwTb/tpaWQiS7g/LZaVi5XE7QrChHt2k7tOL6qwfRLj/KqLvbM8hjR0MVKa+69d9Be4MBO/KFtlLr8MYBCzA7ByU1jbCK78dqwgf6B9ifpscexbAQlzgkfNuB9s97YLtsRNnmHCzSCudZrtDgn5bjh2LAbu2V7xuqOCxfHYOqnUfQ3i/vkrC9H097AwlLMxFTXYyqx/c1QERERERjFBMdNL4JwdDAIPEazHt1iJ8SeFBHMO4EiXfJRJV8m0hZx2OleENVpuK+8rLqCOAORMXF3fPk5nmUNTrwyo8NsFw2oe7dAmTMj0O0O2BUTUFiVjkOi8mHw35XoSPikaAzYeOrr6GsMwZrdhph+bgY85CJAw1HsCHejB+lFuDUgN4Zg0vMfAspDdU4eUPeERLf4T+exVSMlPgpeEG+V0iU7SQvUru6KetKiO2KI1ipuK9rEY+RCVt07m25J8Tv21Bz1IJY/ftovGLGuYoiZKWpERvl6vmDCBViFxbhg90xqHrH6NdbRgiSZ+jQXLgIqfs7Efu3xaj/5BxK5gJZ73+EY+vj8cmP/grrT/TI9w5N1NI8bHJUonZAr47BsL1H2t6YnIYNBQ+wv469OoiIiIi+apjooDFPLLrpG2yNdFy+b+DmE+QJhqrRoawVItY2iN1kVNxXXsS6CMpaCO5aC+oc1FUWImNODFRBu+KrMO91PV6oaUSLIjJzXD6MKpPw/AVHcKxQj+QXVbB/akaLTo3EqElI1Bfjlxts2LhjYB2PQU1OxfczLahq8LvkLRaBVLSTuIy0+GTVKsXjSMGzwlA1I5S1K8R2nVaAesV9XYt4jHQoMbm3xZ4QgqhUlNSWIndhHKLlWDuQ2CV6LLMY0dwl7xD1WXDokNDgUwpwrFo+Zr+34pOLOiTOmISoWXqU/LIAtsLdwytUG6HG4rVxqKn160XD9n487S1IXJqNhBoDzt6VdxARERHRVwITHTTmRb/uX4xUDq6GbfBipMMVqMeI/fYIin8qTZ6CeLSh2907w2HB/p/+GikF2Xj2N23okHd3XGlE4oIkTyHShLRMLDYZcEYZQA5JhXkLM9FdZ/IdThGdNqA4pqf46zANWhxzuAL1YLDbcFteHZGoaOExrejocWeWHGg9VISzCwqQqzqHVnd7Xm/D2Vk6JE+Vt+PSsWapCTWNw2pwJMzXI/F0I5qVgTfb+7G1N+LmImNWI05fGP7QFyIiIiIav5jooDFv0B4dgYaPCIt2qwmdd0Lv39DdaQJGoYCpo88uBIgxQWZCCUF0DBKEQLBbDoTtTQZU/Nlb2JCXjoy7RrSIcV6/BWcM0VjycpzrTqLJGrw614rL/zG8gE6l0WLZTSOaP5N3iAbtYRBoOIOw6LajufNO6EHwzU40f22QS/+hEtrbjjjEjrjBpyBhrnD8bXK72U04WhGPTXnrsHxlL2ovuALr1t8cxwuLk4Rj4zYJSfO1aG/r9KtxMoS4JCyZ1oimi4rjxPZ+fO0tvNbkxTE423RxmH9HREREROMZEx005gXt0SEXKrVWZcq1Okwo0Xm71Z9fF3gKzoEcsPcBzYWD1+gIxtZYjdqrrsCt4zOzVI9gxGw96IAWCfKV7HZLA1JenYuoCDVShECw6rQVsJpxdrL/FLrPAs8IcWOf+0r5FMTGCw8nJl4GExWPObN6cPmaoidK0B4GcuHMK5XIknvHiLVQPEN+Pl6HROkBhub4/QOgqXDwmhHB3GpEldEKu9gL5fNOtAj/BB8ONJQ76LgIJEyb4tq81oZTC1MxbzKQuEAP++FGtPdb0XI6Ghk63/PpWfE42+2e+g/RL2mlRIBi1FEAccLjAmevdMrbArb3iNobU+MxDw9gH7zBkaDWCe+9DR0+RWCJiIiIKJwx0UFjnu1EIdJX6L3LkkKcUnTWsNt6MO8lOXAaVLAaHV1oP6/Dvgu+waZ/jY5gVBE3UfYD16wYq6unIX9RqAmWgeyXTGiOVMuJjjvoFuLhhFjXe0tMy0Z0eTnW7q9E9JuvDRnkqiJVaP9CkeiwN2KPECTbfAI+ccYLoPkzReB9qwEblyvae0UaNp5QJELu2tA9Nz6kXivBakZ0WE1IKfWviRLicCLhfXWXZ0KjFh5zzRHE5i8KOeAf4KoZZ6FDwkuuTdvNLqFJ5B45s15DbnQ5yvLLsT86G8uGOKzPPiME4j02Rc8BK6qKDOjokzclKsTP1MJxtdNbkJPtPaL2htDeKvTgtmIYUHv1dtT4TWGrildLsxZ1DLO+BxERERGNX0x00NjXb0f06oOo/9AoLAeRFWPHfUWw3t1jRsLUUMLAIDU6brTh48k6zAzlIQKIWlgEs+UarGYzLJYGbNKMsEdHnxn7yxqRsD4dyYGumL+ox6YsM5qbdFizNEbeKeu3wdYJxEZPkncI6y9qgc86vQVKr7eh5pwVt/0eOyZeuJ+1RzEThgP26EwcltrbiMOrY1xX891u9aAlTqy1MLTANSN60PqbSXj1L0JJTgUQpcMuUxu6LEJ7m9twrkAjBLwj0N+D2n3luJ2mxxJ3LQgfMcgoyERLkwkpa9IRK+91u31LCNJjohElb0e/pIbKpExgXMMntRZ0filvy2L/VIjgL3aix9OmbG+X4bW3OMwrMdKEDs9sQ3fQfsGIy50P5G3ZVOF+MKPDf6oXIiIiIgpbTHTQ+CZ2cz+hw5zZQUIvd8AYGY9X873FO0XJG8zYlzYJrb86AqzUKeoBhKa503e6S9XkSYhyTxc7THarEVtW5KDmz4rxQa77UrYKzwlR3e3b7noOD2C/CyRsysOyyfIumUMI8PbfzcQSrbcdov9Ch0STFe3yBe72i7/GC8L79L8aHztDh2VqT/g4pPYLHyHl5aTAwa4nQFchYeE6zFHG1poCWN5LQ9RlA6qgR4qixEhIlEkEUaTQ3pNHFHIDt8wo+0E6tvRk49juVE/wrIoU1m55e2U47MJaXAE2LPUmkCR9JtQesiErVettB3USMoSAut1VZsLVO2epDvP8m/almcjNFGcWkbeHwPYWBGpvqDHndaDlmtzgdy/iY1MqFs71+9uIeMzKzUTsHynqohARERFRWGOig8a17hPlOLRAj8V+gb/EYcKO/AZXj4YoDbIKUn2vEguBm+pqObY0/RW2ve7XQ2IICUl6qJoa0HyjFw7l1fdQOXphv2FFs7EcGzO00Kwy4P7Kapgq9Ij19LiYhOT5Opwy1qPjbg+a92Zj47VslGT79ul3fGbA+reMmLc9G/OUcWicDhkaA44arOi+akDZoSnITQswHkCTg31b/dommJtGlB3V4fsL/YJJiQPNxXnysCLhtWcWYPGL0g0uESpEfc2Ksp+asPgnwvuUd4dkehIyIk042dQzZE2GgPodsN/qQmuDATvydFDr3kJrUjHOfViIZEVyKipJi5QGI05+1ovuplKs3noNuSXZSFT2gunrQs3bBaidW4TcuYoGV2mxJKsLVUcb0X3DhLL9JmRleIN6j6lp2LYzE8kDbgiA7R28vaHCvNRMdBw24OwN4fOxvxLNWZkBvgumYFlhEbLmBGpDIiIiIgpHTHTQuNBSvk6uX7AOZZdc+7obtuONQ3E4XKiTr/KKPSC60C2PxXdcbUNzpDiOPzDx79Pf6ELuB77BlxSk3e0VAjVlvQVfUalFqN/wDH71o1XQirUL3HURPEseaoPVBLjbgPXa17D6R6U48Vk0Fv69EdbLRuzL1SLab1hJ9OtF2BdViXRtOn5i06P+wwIky2/IccOC2tIcaNPKoSo04oDeP1kTg6xflCKqOhMLfmDEC3tLkaUMhAdzqRxr5ZoRa8vNrn03GrDljWok/HIzUuT2Eq/Id/bIPVscVlw+HwVVsAYX/35FDjrerMS2Ob53ctiF9r57BzbltKtKUanYVZsHlbEAK3WB2nsm1hqDTO3bb0XFX+mw8oebceiSA4lZR2C6YsaxwjQk+PfAmarHrtIo7M/QYtHOO8ioNXqHIvX1oNUoBOOvpqFMtRn17ymTUiIh8N5UjYxrRViQuhkdKw3YNj9YY/hhe4+gvYX2mL8Zx1Zew09SF2Fjlx51m5Q9PoiIiIjoq23LVSeNLQ8fPpSWL7/80vngwQPnH/7wB+enn34q3/rVcrtunTOnziZv2Z2Xjx1zfvyv7zj12Yedl+/Ju2W36zc7v/MttfOb09XOP//uOueha/flW3zd76l3FvxNkfPk5/IOH9ec+1PEx/iOM/XH9c7b8t4x5VqlM+27q5wF++qcl7+Q942WL+qcOW/Ued73vUvHnEd/c87587/Jdh5qs8t7ZV8I7fhdjdTe3/zWd505h685A7b4/W7nyR+tcv6kvlve4etqZar0GN9avNl5crTfz2j4Ujgnln3Xqf/xPuevLrnPxVHC9h7ocbY3ERER0SMQYzIxNhNjNDFWc8dtNDaIuQ0xxTHBk+jYO+I6+vQYiMdIJHxopKW/vx/Xr1/H7Nmzpf1ERERERET0ZF25cgXTp09HREQEJk6cKC2iCRNcoTU9XRO2tgMlsyZw6AoRERERERERhQ0mOoiIiIiIiIgobDDRQURERERERERhg4kOIiIiIiIiIgobTHQQERERERERUdhgooOIiIiIiIiIwgYTHUREREREREQUNpjoICIiIiIiIqKwwUQHEREREREREYUNJjqIiIiIiIiIKGww0UFEREREREREYYOJDiIiIiIiIiIKG0x0EBEREREREVHYYKKDiIiIiIiIiMIGEx1EREREREREFDaY6CAiIiIiIiKisMFEBxERERERERGFDSY6iIiIiIiIiChsMNFBRERERERERGGDiQ4iIiIiIiIiChtMdBARERERERFR2GCig4iIiIiIiIjCBhMdRERERERERBQ2mOggIiIiIiIiorDBRAcRERERERERhQ0mOoiIiIiIiIgobDDRQURERERERERhg4kOIiIiIiIiIgobTHQQERERERERUdhgooOIiIiIiIiIwgYTHUREREREREQUNpjoICIiIiIiIqKwwUQHEREREREREYUNJjqIiIiIiIiIKGww0UFEREREREREYYOJjnFk4sSJuH//vrxFRERERERET8of/vAHKSajsY9HaRxRqVTSh4uIiIiIiIieLPGisxiT0djHRMc4MWHCBEyaNAl37tyB0+mU9xIREREREdHjJsZgYiwmxmRibEZjGxMdY5T7wyP+614XP1TiB+x//+//LW0TERERERHR43fr1i0pFhNjMpEyTnP/S2MHEx3jhPuDFB0djf/zf/4P/vM//5M9O4iIiIiIiB4jMeYSY6/f/e53UiymTHDQ2MVExzjg/jCJhW/EMWFTp07Ff/3Xf6Gjo0P6wLFuBxERERER0egRYywx1rp+/boUe4kxmBiLiTEZkx1jn+vobLnqdO5NlFZp7HD32BD/ffjwobT09/d71nt7e/H73/8eDx48kLaJiIiIiIjo0YkJjWeeeQZf//rXpeEq4ra4REREeNbdyQ4mPcaOCVvbgZJZ8hFhomPMEpMc7sWd4FAu7tvc9yUiIiIiIqKRUyYwxMWd2FAu7tvc96WxgYmOcUKZxBCXQEkO9+K+HxEREREREQ2fO3GhTGSIS6Akh/t+NHYw0TGOKJMY4qJMcrjX3bcTERERERHRyCmTGMrEBpMcYx8THeOMMpkRaHHfRkRERERERCOnTGQEWty30djDRMc45J/QYJKDiIiIiIho9CkTGv7JDSY5xi4mOsYpZUIj2DoRERERERGNnDKZEWydxh4mOsY5JjaIiIiIiIieDCY4xgd3omOivE3jjPhBUy5EREREREQ0OhhvjW/s0UFERERERERE4x57dBARERERERFR2GGig4iIiIiIiIjCBhMdRERERERERBQ2mOggIiIiIiIiorDBRAcRERERERERhQ0mOoiIiIiIiIgobDDRQURERERERERhg4kOIiIiIiIiIgobE6T/brnqdO5NlFZpfHI6nfIaERERERERPYoJE1yhMo0vE7a2AyWzJrBHxzglJjaUCxEREREREY0OxlvjG3t0jDPKD1mwdSIiIiIiIho5ZY+OYOs09rh7dDDRMY64kxnuf+/evYt79+7h/v376O/vl/YRERERERHRo4mIiMCzzz6L5557DpMnT5b2uZMcTHaMXUx0jDPKJIeY2PjP//xPaf1//I//gf/23/6btBAREREREdGj+8Mf/iAtd+7cwcSJE/Enf/InUuKDyY6xjTU6xhH/JMfnn3+OyMhIJCQk4Pnnn2eSg4iIiIiIaBSJMZYYa02fPl2KvcQYTIzFlLEZjV1MdIxxyg+SuIg9OcSuU2JGkVlEIiIiIiKix0eMucTY64//+I89veqVMRqNTUx0jAPuD5NYk+Phw4eYOnWqfAsRERERERE9bt/4xjekuohiTKZMdtDYxETHGKb88IjrYuFRsSYHe3IQERERERE9OWIMJsZiYkzmH6fR2MNExxgnfnDci8PhkMaHERERERER0ZMlxmJiTKaM0WhsYqJjHHB/iMSuUiw8SkRERERE9OSJiQ4xJmOSY+xjomOc4AeJiIiIiIjo6WNsNvYx0TFGuT88zBYSERERERGNLco4jfHa2MNExzjBDw8REREREdHTx9hs7GOig4iIiIiIiIjCBhMdRERERERERBQ2mOggIiIiIiIiorDBRAcRERERERERhQ0mOoiIiIiIiIgobDDRQURERERERERhg4kOIiIiIiIiIgobTHQQERERERERUdhgooOIiIiIiIiIwgYTHUREREREREQUNpjoICIiIiIiIqKwwUQHEREREREREYUNJjqIiIiIiIiIKGww0UEhqfvwXxA3Y2bQRfdqKsr/sUK+NxEREREREdHTwUQHDemi+d9RuOWn0nrMtGkBl56bN6VEh3jfx8uB5r2Z2FhlQodd3jWIjpocrN5cjtoLXbD3yzspLNgtBmzMScPqmi55DxERERERETBB+u+Wq07n3kRplcYGp9Mp/fvw4UNp6e/vx/Xr1zF79mxp/+MkJi16em4iJsaVxBCTHGKPjtKSn2Pliu/J9/Il3i7er+Dv8qXF/RiiudrvSP+OirsNWK8txFlpIxX7LpRjWbS0EYAVFa/qUSa9jDjk1xqxSaOSbnlaHHYHVFGDvIabRqx+rRz2OOFNzczD4d2pcL89mzEP2uJrSBRuS3zzIEqWTpH2t1bpseNCPOZppiHwI/ei43wbXthwBLsWTpL3uTjsvXCEmABSRU2CKmJ4f4PISRjs7Q7PHbSUFWPPSQeyaiuREWXCjlfyUIM0HPi4FIsny3ejp8yCPTMyUTU5DonTVIhZU44Dr8fIt41PDtNuqHMNgPSe5mLTkSKkRMk3PibS532rCaqpaiQk5eCX5WmIlW8bE/qE7wGV6zthbLCiKqMIl2fqsTR9LubNikP00/26JyKiMHXlyhVMnz4dERERmDhxorSIJkxwhdb0dE3Y2g6UzJKPBhMdY87TSHSIPTKUw0/cSQt3osNQcyRo0kLsyZGZlS0lQsSEiPKxxGSJfsXr0mM9qo6aTCwqtghrKiwrN2HfUiFwF4PuAD+2HZdLsWjVEXQL66rMSlh26oIkAgJzBxqjLSG3GnWbtIgKFCDcMmKtbjuaxXUhsOoq1Ei7RcrXk3v8GrbNkVbRWjoTK6tc64NJ2WvCYb0rOeJyB7W5OmwJ6S3qUGKqRMbU4fxNoOcMQpHgiZpfiANi+8g3KdlPF0Jb0ABkVcOyXYuOg2lIL+tC8vYG1GXFyff6CrE1Ysu6SnTHa5Eco8L0RXlYph5udCcmBDNxNCoOLzwfj3nLc7DpdfWwPiu+fM+R3KPCuTrXtT5uCd8lccJ3iWRWEc59mIkE19ZjYzshfN4L5UbMqUbXVq1rfSSUr38UqRYW41yFHrFjIdmh/O5EDDadPId8tbQxdomvOcMAW7yYqNZgSU4mkh9zAo2IiB4dEx1jmzvRwaErJBETGcrEhJiw0H7n29J2KMQeHErTpv2J9BhiYsQ9rEWZRBmRu43YXyYmOQSazdiwaBLgMGPHK/oAQ1nu4OQBV5JDlBIDtF4wo0W5NBhQc/GOfI8np6MqByuF9+GQt4NJ/EawX7w6JEyTV8NFdyda+u6g/aoVPf89KmCSQxS1KAcbhPfuqCIvbkYAAOKtSURBVClH7Q2hjTLysFjY31pmQEvQBhUD78C1ZYZa1hqHe35YUKYR/zYJ2uV6pK8YwaJLkp5bXS6f64OJUkEltFnLySOoqDDhnmok6YloRMc7YLNa0X6hAS29wmPKt4yKP5L/DRfPq/CcvPo4RccqEncRo3pERo2jaTsW5RvRPQaGBdovmeQkh2CaHikz5PUxzN5mRvMt1+eu6kQvVF+XbyAiIqJHxh4dY9ST7tEhFhMVExKBem24h6WI+1d8b7m819eH/3JS6tURaHiL+Lji44sJFNPHjfLe0Ik9M1YeikHWi0ewpbpH2BOHTScbpKt1yl4OKk0R6mtdV1rFruaaXMOQyQTxsXKPG7FtzsBA4nH16BCp1JtRfzLHe1X4RiPKTlzDc8/24qQQtLcLuxJzSrFN5x2XYzOVYmO1VVhTI3e7HqrfRWFJXhoc5e4eHe5eF+K6i/I9DNWjQ9lLxM3bWyRQj46Bzyca/DkD66jRY1Gx+N6ArKo27NIFD+y6DZlYsNOC2AIjzufH4NTWVTg9OQ8bhLZIDJghGV4vFKWQe6R4yMM25K1H4tejJzDl8wU4HnYraitNeCFnHVKCDvEa7R4YQ59Xj+xuF5pP1+FEoxktbVbY+ly7pWEes5OwfGEaFqdpEDta+QFljwhdMcxVes+QsuGShpr9q7zxjSQhIPcdTubRY0bFSXdiNw3584NlN11D08RvRtHyvzci1/+0eUw9OiST9TjcWBzaUJ5+8bXWo/Z0I1rMFrTfkr+hI6cgMS4JyX+tw/KlaUieNtwD14tTBVpsPC1vhiTQd//IvyuEs0/4vqgXvi9CHablQPPOJKw1uLZiNwnfZ+vGehcUIiISsUfH2MahK2Pck050iFeQgyUixERF5g+yB/Ta8DdYIkMc1iImQsTbxfuF7G4jNr5agFNyICNKyDegvkADVZ9co0G8LTIThz8pQkqksN5nxp7XclA1+Mv1UC0thak8bcSBy6BswmvMEl6jp16mCok55ThcqEO0srv3iAIRV2CbcNQ/GSHdKFEmHZaVm11DfTyGDkifTKKjF2ff1mJ9g7ge+DHRfwct1aU49PtMHFjTgx2rGqFak4NNmZqgvT+8Rh68pJQKr//18ZnosDVux9rNRrSLn4844fNRI3w+Ap7kXahZkYYdV8X10ejy/xgTHWLiprQIO2qtQycxheB5WeFB/Oz76sDDxBRay5OwssLhSpQEOtx9PWjv6nWtS0F5kG8L9/0WlsJcGfg7JdShZiP1WBJLoj7hPHlbjx1N3paPWlqEur2ZSBC/dwfT34v2E6XYUiyfj4NSITptMw7vzAySuAzghgErU3ejVd4M2YAhQY+S6BCklcPyXmoI30kCn3pToRnJEEwiIhp9THSMbUx0jHFPMtHh7nEh9tgQe3QEIt5HTFTcvPmf8p6BBqvBMeJER58VFW9kouyy/ON6SiaO/boI84Qf1u1yfQbxh3FW1UVXL4D+HtTmp2OL58d4KvaZy7FMWahSmTyZlo1jHxVKjzfa7JaDWJtdjlbPD3sVUrYbcSArbuAP1SeQ6AgUALXsnYnV1fLGoNyPPbxAIKRER78QrM8RgnXpeBSg/uN18Pk2clhQsVw4B6RkkeJYPwbdQnstEtpLOns0RTh3XAjihlV/wDfRMdygU3m8HrlHx81GbHmjALXuJFtcNuo+LETygHN9kMfwcQdni9Zh/zV5cxC3u9y9LISgVR2HF0Jpw7/ejvoBXRG8BnyeJsdh8fwYXGswuYaozcrGvrUxuHq+AbUnLXCPZItaWor699IGrSMx6smHQXp9jMtEx40GbFlX6D2XBAlZlTi2zS9hG4hd+Pyuy/F+h2MSElIXIOZaA5qlZLQaue/lIPaKCSdPNKD1rnQn4fgK390fCt/dQ/7vwiG0abrQpnKflkF7vwif8aaDOOXqPIZ5u8/hWIayB0YvWg2H8bFN3hyK3YpTNfL5JxhODzB3z7ThET7DnwmfYXmLiIieDiY6xjYmOsa4sZboeFQjTnSI+oRAbIUQiMmBrtQ9eK4Za191FZ5TpZXDLF1FE3/w6oUfvIpf4wLfq2Bid+G5WGsQf3QrCpqOpn7hx3L1W1hbavYEW4gUfsy/fxDbdEP8CFYU1PP/0ewNgn2D0YG9LqTdkqESHaEHXaOX6HDc7RWOgkMIhjthu+9A90UDKg56gwUvIUiek4oNP9mO5f0HsHLVEXSIu5W9d0bTTaHtXxPaXgqkvcOjhqcHtWsWYctF19ZTTXSIfN6T0KKBikc6TNgxW5y9RiS07RWhbQPmkR7xavdQBnm/4vC1dPfxF45Nxt53se11NaJsigKUyuSCX2Du6QXm2hxg1JMPIfboGK2kxON4TLfuhu34YZGyJ8YkLN55HPsyAyRs/fl8dwvHQV+MX2zVIzFKeS4pztv+HpwqysNGo/wHcetQd7IAyYM9kV8R0tzj9cL7D/YHyt5LKuTXtmHTUB+xwVgPYsHycvm7S41dZ4wIqSZyvxUVf+WeEUyF5IxszAvSSchu/Qg1TXISZ5DzioiInhwmOsY2FiOl8SNSg20fGpAr/YB0oHlrHtJ/uNv1wzYyDfu2y0mO8kysdv+ijsvG4fcypR/iDkMB1htdPxS7jcK6lORwBX0/He0kxy2T8MNeh5XKJEecHvtOGodOcvhx9Nlgv9vrWW73ua+IBtOFM4fKUVbuXfY3+iZ9BiMGSF2f+S51ufKNAYkBysC/Me/Vybf7E4PymVBrtdBodVi0Kgerc/KwJWCSQ+SA7XIDdmSswqGItdiVI1957TNgx/6hi7kOi9gTqFg4p+RgLjZ3N3JHNHzjWeAZeXUsmKbHgQ+yPbVgxOKRO+TPgsddm7f9R3U64OEJWkf1biN+8oY3ySHWVSjRBxiO8jXFA7yYhpIPipEib3ZUlPr0RvCXXDjwPPZZjmfL9xSICZVA91Eu4RCM2q2oKdBiwduKJIfwXbyp9tc4EEqSQxySVpTjTXLkGlC/V0xyuLaVnnUfy4gYLNtdiRL3V0jXQewZ7MCJz1Eq/79ApFuHN4MmOQT2TlyWkhwiPeY8YkmMjkvnvJ+daYuQHOLET7YTwveze2ilZjN+sbsAmwoCL8vV3u4lsUnxTHIQERGFiIkOGh/EZIcYuEhX8bvQbpV7ZOzdjsWThd+vtgdIWKp3DUGJFALwDwqRklaAfWnij15XcmRHxW684R6WINznnZ2jE4zYTm9H+ooC7NiZA40uD1XSaxOpkJhRivMfFWPZi/KuYWgp1kMjJQVcS3qxWb4lmB401xxERYV38VwJDEHVqoGzjgx+lduELbqBf+PpkTBs4pXNdcjPF5dsxTSpXag42obEgiJkyb04uqsGD1yHy37ufW/tgcg0bHsz+NX/8UY1pwAlriyhpLloN2pvyRuim53eQPHlGMTKq0MJlBiTljNFiqFH4lXuAPeRF2VSbF5MoCKOwme3vFCu0SP25qr0vVqvfO1xMb6f52l6IVB0P6YFe46ZRzc5NmrEIUEBZt8JYdlyepRnjbJUC4+bg407C5Gu02PHabkuiSBq/mbUmQzI14SWHHaYyrGxwdXiYlL5g03Kz1QPOjxfE3GIUR64iBhkbCzwnIeDzaikfA7xcTZtGqJI7LU2nJJXoVMj8ZE+5F1o+Rd5DIwgdqXOd8hdMH0m7C92v/kY5P5EP8hnTmgnz5AfIEUdYiaFiIiImOigcUQIXN7ZmSpvCD+eM8vxzvw27NAlQTN/HU6qMnHgn4pR8k/lyJBGx0zC4t3Vck+QLtSUG7xXhT8ox7KAdQiGL3ryJLRfbUSNwW+oSmUj6ncPXhvgq2UK5hQW43B1NeobzbCY24Rg14hN7pFMkauwbZf7SmYh9h0XjqN8Exra0BGpw4bt7sBYCFz3N3rb+1EIgUfZ1gZPEJy8KU9KnoUPlfCe3sUm6XMgDjsowBJFNGj73JsxUs1+9CvG9v+wSLMGuVhRddobDA7bDSP2yz2woCvCO34zWjh+/0BeEwLN5wZGrYlp2Z56Bg7jebSPgWlQA7knTjF6dfjLbc9wklESHYWoq2acMjT4DVUxwlSVg+RQi4OKQ7j2u2e90mHXTv/hUnZv0mnacwOTirNe884c02fEx55eGAq3GrD+Le/MWgn5Q/fCajUdl9eEc2NB0qOd69ZGVHleVwwyFobSPcSBlvLdrgLaAlXaZmwYtAeKFZ/Iw+DEdpzjSf4SERHRUJjooPGjvwcfN8izusRl41ihDqqoJMxJEn/qWlDVYIVqlh4ZsxQ/BlUxeHWB3w/Q1BxkaUbxB+Mfyf/KxJkI6k1GbFs4vKEq/sT6FsGufgc2cCjJ0H/jFfQKvbS4az9MQUZVoNu9S/DnjMHiXD1S5muR+OIkRE0WjkFXG864u3C/PheJymAociaSPQ/VhY5bQhyWlodcOTHiaChHzSPE0G7tNaWewEMsXrsmLQyvmkaokfuLchxuNONApnLYhwPtV7w9cOa9GKhXxXA40GqWps/x6D5UjbPuApPD1H7miDyThgpZOQN7YN2+1SmvAfFTAoStL87F8lnyet+v0fKZvP4UKYfJjFYtjVF7TOG8UH4zqtTZOGzyP2dCYP0IVXKdTVVWDpb7J5Xv2OSksyB+Cl6QV71iMC/d/b3twNlLfh90cajZTm/tGbGWR0meq8dI+8FMrNxpRLv/OddvRctpd1pEjYz5j/I5d6ClrtI7bEUj9kCT1wdhP70da6Up0gWROuzaNPgMLQ6L2dsDRaND0qNmIYmIiL5CmOigUSFNQSsXHB1Vjh60XjCjtasHLWV5nkKI85YmwdHWgJryw7hsdyUUuutMPlds7VYjtqxIxepqvx/Jjdux4JUcVDR1wT7qV3iFwKB8GNMijlX9Dp/6IIMuj3BV2dYmHDN5fZk2aeCVXX8qDbLedF/q7cL+ukccjnC3EYcOeHs0xBbk+c7Q84hqfxp4yEGwZW35UMOTRk6lTkXKgCFUXWg/L68Kwd+rf/FoyTmxPX9lkNfd+hqwp3Ikx6kLrWfdQeEqLJ878Ozo6fS2V8JLgV77NMT+hbyKHlz/3DsUQ0qOBjgGAZefGuW/EVwqx9pA9wm4VIcw5enQycNgS6gzfIyMEIgfLETKCHq+eWtXqJD119qBn+vuTrTIq5gRuBdR7ItJ8ppw9//o8fbe8p9ZSxqq6CpYKhat/VGZBa2G7UjXarG6woQO9x9a6rHfUxdDj5RHyXPcasChGvcZrcKynPShh3zdNGKjp+eYOANXkdzzMBgHWpq8H6bk13UhDysjIiIiJjpoFLhnbRGTHOZ//3/lvaPEYcXRnBysXLLIW2hU0FJRgNU5hdgh1qG4II9TF35INlsBe5cJFXk6aJdvR61cL0O6Mnm8FBnurr93zSjLS4PmlRzsMVrQ/QjB+uMy/GKko8jWgI2K+iCDLvuHO0Wi2x18fNrdm0CHV5JCG/sfuzQTi+V1R005am/IGyPQfbparv8gikGGf++fR2TvCjzkIOhya7jHOAYJoXfaGchqQq07+BtGMcVg2msrcVZeV2UVo2Spa727ulgxvWiIbNe8QxYWJgWY5rcH3Z4cphYJAQNylavnkMzWe09ec7kd6BgEWroUCZK+O4HvE3Dxn6e0CzU5eqzeXOpTNHi0lh35eqQXm0ZnSNeI3cG1C+4Dk4o50+VVhe7fepPP8wImqIQjFzXJmyC5Y4f7yNmvfITai+5zyTUM0ZUwcKD7tjiUULpB0IuW8jws0umxp6kLZ+uPe5Jtj5Y0cKCl+qCiNkwe3lw0xHfXzQasX+E7+5H/MKwBfJKGGiyf/6i9rYiIiL5amOigR+JOcohWrvgeCv4uX1ofNVExmD7IVa8oTRpy8zORIt2nB/t/kATNkjyUNd2Rf9ROwryCapg+LETKnDSUfNiIY/mKonh3zajamokFmpnQ5Bi93anHgOEXI306AtVGCIm9DZ+48xyzdEgO9crx5FSsyXI/p2vI0oj0W3HqkCJJMysbi93DHMJJfy/aG0qxp2Fg4cr2JqOn+71qqTa0YopBOCzl+FGZOxmpwbY1emTkFcgzvnSh6o0Cb1IlFDe9V/1j/yxmYBd/RxfaPfUL1IgNcv7ExmjlNeEz9fkoF+8cNju6L1jRcvKIT9Hg0VpqGq1ov2HzBPRPRw+uu4/LtHjEDDxw6Lzm/S5L/NMgAfzUGMyTV3GxE+6UUZRmHepM4sw7WmRVHVEUp1UhYWkhjglfKnU79Uh0Tz/dZ0VVXppnti2x2PCbS0eeNHBYKrHDPfxEeM5lBZm+Q+4CsH9+DT2e3Ew2jr03dCHsjgaDJ2mIpZlYPoKC1kRERF9lTHRQSMr/sUKaUUNMbLj5JzlKS34urY+uOKTsKpWLV5phtV7zmeox4yel2FZQhA1LpyBhvgaxil4PUfMLcMxkQom6Ex9b5AAnYgrmFRhg+bgam+Yrr8KpsDw3zTMN5/jRC5tnBo1Hm142qFzDwG7zJu/UnQFrI4TAfqHRM/48dnHSMNpehXl/vUpOVqlw//MeTxA0HI6LRm9XdsHwXkNoBq97MnAZTk2VIfX3oqPpIFa/okX620fQ4R/99plQe8gdsMVgw1+7hwSNwM1G7Nhy0JMoTMgvRIYYmKmzUZIvdxMRnm/LioLQe+D0OzwBe8BzrMvqvaquiw/Q42MoGmwLcAyUi1X4rgl8TqiQsvtcwL/xXQo9xVC/ShzuXlIB628oh0vpkPCSvDocUWpk7K3GrkBTdgvf8cmZxcL/M/y/411i38wZebHhPgvKFOe5mLS5dqVzyMRS1PxC6fXkz0+VZgRLdidhghE+KzVl7iSsClkZg9fyICIiooGY6KBhERMbYoLjySQ5RCok6tKQIPzKk7oyBwlmEr9/EL8oNeAXm9SIXpiNfSfNsFSvQ/LNcryRtxtbVumgyTmIZrkLumqaFvnVwn3OVGJbmhqquDxkBKgB8DSFVozUgXuefuqPNr3sk9WLlkZ30coYZOiGHjLyrPLYaxZhg3ScTTC/mzqC2RMcwvN7Z2wQz7PFL4/usJWnxtGDlqpCrHxFi0V55WiRizLa+nwHNPgUYRWLKY60N8uNBmwRe2u4c2px2SjxTM+rQvKGSpQslD9bdxuxZbk4lODRe1Z0X7no6Y0S++2ZQc+Be30jSYMJbhqx/o0jQXp5OdBclI61xuF+vgZLrjRgl+cY+BYW9vnsB0o8KpeqIaZYfdpuXsMnnuFSSUgM1pOrzzGiBKZHtPAdX/VrHFgub4vEqaMzR/o5d6B1fxEUIyglHVU5WB/KeSC8nk3V7mE2gxGe55Dys7kZWWPs/01ERETjARMdFBJxSIp7WIqY4HgySQ43C8q0WqjVSdAe9K8HIQSse5OgTtVjZbUFieuMMFcWYplavJJ3By3/asFt1x1hv1COtUt0SN9rgk0uQhoVp0Pue0ZYz6wbsvvx2GSH43fy6uNSlSn15vFZdNu9V9NH4u55nHDnOabpkTJDXg8qDjHK6C1Cg3zPcR4Bhxkf+xTN1OOVcT9spQu1OzOhmb0Iq0sb0KqYdULs3bRtiaIAR5cBOzzDTIDYBUkjqllgaypF+vJCb5JDKgzpd8U6IgYZ77mneRZIQwl0WLTVKLzGoa6FB9OLaxe9wx9S1MGLi9h6hq4HMYDNhB1vuGsqxCB392ZPDybospEvJW4caN6ajrU1XcLaKOi3odszXWkUnhvqqv84Zf/U7C1EukAdvBfV7R7vNMVzRzjt8a1z+JU8UZeYdEvZ/taIe3N0GwsUdaJUSJ7vTuaJ50Ee9gy3Bk0Qjsvl2FLhfZ6sDfoR9FYiIiIiJjooZMpkh+jJJDkE/e4fkA7M+9N4ed1NhUSNK+niOG32/jCWTBF+2BpgMSm7MDvQXp0H7WvbcXY49QIes+5GebjJoUa4J8zsbKwMMgzFPUSlAe19iuBIVwyz39XdUR0KMYrEYSvu8eexK3VBkkw96PDOfDq6rG2olVclc9WIH4cXTR03rqHDk+jqQWuTxacQZdT8bOz70NW7aZ47UuyzYM8Pd/vMBtJdvnnYgVrrO5nQ5h0RzkF5hzhdZm2QK9aRGmyrrUa+uxiwoKOtE/ciQmt0R/99eU1mv4jTnlls0/BK0Omiu9ChqI+cMDWEcFnsoZKVhxr545aQW4pNOuXAgXis8SRuhCC3WI+ViuTpiN1QzEQSsLbFOPQA8D1yyp5cg8+01HFdUZMoLjrAEJghDCgAWoRdr4+sNke3MQ+Ltpo8CS1VWikOVx/EvjT3q3fVoDnlGUY4QnYzyn7s7UUkPs8mXWifESIiIvLFRAcNi5joEJMb7uWJsAkBr7z6wgsDr+BH/YXWVbTu5jm0unMBSlNdw1TM4lAWz1XSSYrq/E+frU0eblJj8nTH724yBBmG4h6i0oD2TxVXPeNjHk+X9SFqdAxfD04edV9mjUHGwiBdyR12T2CBWQGKUT6CjiveoEWkmhM/fqZutFtQtTkHi7QzoU7NQ5WnF4CbCtELC3D4jJjgKMSyWYrPjDg159s5nu73qsnumS2GXyw0+e1S75CUOD0OfFSJrBmDBGVRWmw6bsSupeLrcfX8eHWwgzo13lOMsuWab68JZX0XpKViXrDH+ew8aj3to0PiYK9PYDP59lBJyKrEsU2K4sVuYuLmA+EzIH2fuJKnOiGoPvUoMwBdFD7P8vqgPR3GvClImCuvXrSi0+fA+SaolgaooSHp70Lzv3h74qTMnhk0IRKI4zMD1q8oxFl3ryapAKgescPuGeFAR41fkmNhMc69K9bMmITFuyuR607s9Znwk51GdI804SUmIDOEz6b7MxiZhn3bWZuDiIhopJjooGETe3KIyxNzq0e+0hlkCslp8fJsEVZ8/Kk89t/Rg/auO3AofnRGzy9AncmATXPU2PSLEArCjQO2/6+3G/i8+MEHf3d0P+0ZJ2RXP0KVewSSONNJsCHzd2ze+ggvROE5efXR9aKzzXemlnkxI5+F4YmLUsFxyYwOxdAUSeQUpOQWC+d4G8yV65AS5xdE9nWhJj8dW5rkkE0M/j7+CO+4kxVisdA3StHq7qExlD+KQcbecuTnluL8R8VYPGTtAUFkHLLKTTh/ZveAnh/+NUTERIdn5owTJrR4XtcdnDF6ewVkva4LEgw60Gx435s8WJqGJUHrQXShtkgPXa63h0qCvhwfbNMhOlhwPE2Pwx+VeoZCOKxGbEzVYnWFefi9O4S2ryr1DssbrKdDUHfvoFuZVHhqYpAwy/3qjfjY7H1RtkajN0GVmYaUIFG844IBZZ4EVSpeXxjikCNBd8N2pKft9iY5JqdiXygFQP319+DUVj0WFSuSHHOE/4coEyaRWmzam+1JkjqatmPHsOu2CMShUisyFfU/xGlzhc/UGErGExERjTdMdNCY1/2ZRf6hGWwKSeGHtTxCo9nqGvjRUVuI9CU6qNVaLMrfjZoGK7rFACZKg/zjRuSPsbqTyYWK3hIfi70lxKvyrqKq0j6rGecqC5BbqpzpoRyJX7gDPhUS44cI1kd6pdFhh/1ur9/inRFjeBxo+ZdKT6+V5JW6oFeuHZ1WTxJHpR7N3io96GiTV2UJodZuGNITqJkifA7mLfWGweIUy9sqG2C5bMLhQn3AaXrtVgPWv5qGHe4kh6eWxhQs21uKZe4gsOsIVq4oRYtfziGoyTpsKkwb5pVyFWLjBrZ3+xd+Txqhxqt6dxLGgD1lJnQLwXx7TRF2uIc0TcvGcm3glIBYU8EzpajwnAFnrpCn3l0ttM2WWqt8Tgufpfxq1O1O9b6vYIUxp6XhQEMlcj1DcnrRUp4D7Ss5qGjqgj2Uz5zUy6bAW3xSeE9rFgbp6TAI2/kiLJjt+r47+wg9S0ZD4ny90IoiB2r2vIvmG72wXTXgJ8XuAxeD3HStfB8/YhHYt7yFglVZmaEF/LfMqMjRYsHbimnC4zJxuKEcy0JJwinYrUZsWZGOjUZvF8GopcU490/rvMk3mWpuAUpyvN+9zUW7h9Uzym6pxuo071ApMcnhO20uERERjQQTHTTGKYoOBp1CcgoSpGKWKkQ7HEIQ3oj9nqn5etHRaMCOt/VYoEmCNm83akINQJ4GsfuyWARR+JlvazqC/efEqQt70bxDJ82gUVWYjrW18hXDWw046i6oGanHq8Mupim0VShX72vyoNFqfZfluz1JiJaeYVzBFI7N0Rp3CJOKNUuDJWd6cdborRa6eIZ/bZZH0G/HPZ9AJEhPoRGxKwpKArU/1SN9RejL2nJFXYJBiIFkor4IdR+3wVJbityFcYgK9Nm4a5V6KmiF4+W5wu1fS2NyKt75QDGNatcRrE4dxjSwj40K81Zv9kzPKg4hWKDVId1zhV2FlIK1SPaPB/t70Xow03e4QWY5ts1X3tGBbtNBrH1VeLy3j3hmphGDzIz36lFfoPVtz7uKIWL+onXY9mE99ukVBVHvmlGWlwbNK5nYUWv1qZviQwjOy36g6GUjJgD2Fgx8TyG41yumYlzfd5efcuct1dxMbHPPVtxlwNpULbQrdivqZbyFNwME8nbLQax8zVtXA5GZOLApSEJE5rhpQY1YhFeXg7ILrlm1RAn6Ypz7sAgpw8mQ2t2fl+2otXrOHiRvMsAUdOiLcJ7mbfYmC2HClh0hDGHpv4OW8kxoM971nn+RauQfPR542lwiIiIaFiY6aGyzX8THcqeFwaaQTFzdgPNX2mDeqUNU1FxsqCjGtsxUJPhcCRSTBwbsEAOQOXpsrDKhI9Qr1xLh72/0+PVs6MHZ+l/Ltz8imwl7VinqJywsxgcbxPoAk5CyTVH8sCgdK6ssaDl60DPziUqfGjA4uu8p5BpIrzixwSNz+D3F7Vveq6D+uk8bPEVIlVdq7ZcNisKrpdi46jX85LTrtkHH8o+EouaLi9BwAQOYR2fvsqL96jCWW4MdLy/V/CLU781E8rTAIaAn+NPqFT0VBHF67Ds5sJaGak4hPtir8waU0jSwmai6GtrrCVmf8JlxB7Fib4rPgp8rkrhM/EL5uhTEK+y70hUBofB4HU2u5MXKMncvMPG9FaCu0P8xVHjh6/fQo2hvlVpom8YGlKSNYBhTRAyW7W2AuboA85TfOXfvQPWncb49SYTPpK3LhKrNruC8wlMEVuxJUopNQ00letc2MFFrN6P2mHs4lg4JIfRgsN/sgs3nu+wO2k83PtpsSm4Rccj6hbuGiR8xsbY9zee73C60R0WeTgj6y71DpyI12PRPmwM/hsDxWYPwXa6D5tVM7DAoivBOFqdxNeHcXj0SgvxtILbGQmhe9vu8CI+1rdaEunWawIlEN+E9/XS7ovCzaTd21AfJNonnvXE3Vr6iw+oK73nq+mwaheM/it91REREX2FMdNDYFpWKkktGlGTokPVq8PEmqmlxiHXHBxGTkDBfj9yd5ThnvgbLmWqU5OoQrfzR22fFqdI8LHpZh4oBxRyDUSGq5wi0Pr0bFmG9QZEtGGHRTNuFcqwUC0vKVxFV6nW+xfOk4oeuegAJWeUomXUOO6rczyvcttp71bOjRgiglog9BNKQXqToITDSYH6oYqT9ZlS8mgTtcuE5l2iRXq5oD+VzOoTg+5C7p00MNnzP+5qjIntxylN49QhOXb4jBwAqpOx9C4tH0qjBTNXjsM/7qUTGqPXoeNp60bI3bWDwJwbRGa5aGstelHf5idWX45hnDljhLxbmIMNTa2F0ONrKodXIUxSrtVhb7T1XYp8L/Fyx+kqcq8zGYrnmiGqqBssKq9H4njxkRpypIkd4z+IwtbxyNCuSFwn60oDDDURiAqQkN0a6ip6x1wjzh8HbJlTR84XPbWMDDos9QoRtVWaRT+Kiu6EA2jnCZ2VJHvacVB6fSVi804i6ggCFTwXRwvebh7FAeK+KqZ7F5WVvghTTkpAYwvkc9eVFrPf5LnNNve0VgxdCGTISjFjD5GQlclPlRE/kFCQv34xjnqEkrmE+YlFdjdAeZU3uz7xACvoNyB/k/FPNSMXyuCjv3whtOK+gGuZPqpE/f/g9IqKF8/1NTzN7HytXE1riIfr1Amxy//1kDeYMOAa9aK0uRPoc4Ttyq0Ex/bP8XIN8NomIiGj4mOggj56exzff6iM9dpQQiIjV7aXhKb5CKbAZFadFRmElzJfbcL56M5Ypf7jGrUbKMOp1qOamISvoVUIhKF+zaPizJfT3ovuq2VMEUUpyHC8YWDxPrAdgakP9Nh1in49HsvyjWpWZhwxFHJSwUI9EqSdBlyKQ0uDVpGH8+J88E6/nr0O+sOz6ywDDRqLTsM9shkVcCtZh3uuAzSo8Z5e36/iA51RpsO1DIQgsTEPy/GwsUw61iROC11m+V76j4lKRW1mPw/oRXGEfI3KPKxMqQy+PPh2wGDTtRpbifBB7KpScNKF+91C1NMQu+kdwWPzjxzTjg+plHTLkdV9xyNAF/yDGLizEgTOuejVWkwH7crXeIqFRwnmmfuAzPESlTsM26ar+YO9ZeL8bDDhvMqJErx78iv1wRMUhJb9a+Gw04FyBb0+S2KWbselleUPimiHnmMmMA5lxPvf18WczsVheHdwkZGzLlIszD+HFRUKby+sBJOSnYV7wPENoXtRhW0UDLOL5bTGh7t0c7zTHwmtN/p9qODwBvyBSLSWxQgv6xfO1EiVLhfYuqMS5S2Ycy1ecF8MVoUb+B6VYluo6HsN+LOHvswr0wmuRky1z/b9vJyHxL6bA4e6xIoiaP8LnIiIioiFNkP675arTuTekn0b0hDidTunfhw8fSkt/fz+uX7+O2bNnS/tHW2ZWNi6a/12aPlZcRlPhlp+i7sN/Qcy0aTB97J5W9BFYqpH+M9d4luQNR7BrBIX7xK7SNcVFuJ3TiF264fyad6CleC5We+pMTELCrBhEx+uw/G9XI2PO8K8kujjQWpqJHfYc/HJXiMUd+ywoe+McXvmgEPN8kiJdqFqShj3iFd7IKUicn4Y3N6zHMrV/O91Bba4OW+SLuGJQvm2Oa324HBd2Q5MjFxAUnzNpLpavK0TugB/74c6CPTMyUSVvDbdNbae3Y+2ha66Nv96O+lx3oYPhcVwuxcofdWHJ3iLhGMRANZwgqv8OWq/cR7LGP8E0GudLL85u1WG90fX5UU1VI2F2EjKy8pD1KOfK3UZsXF4Ox8JMfH9N+sAZZx6V0J5xq4641nXFMFfpR14c13oQi7LrEa/PwZur04IOP/JntzZg//5qNF+yDphxJypOjcTZwud8/cphvfduQyYW7HT3slIhWh2HF2KE46HPxPIFQeq+jCrhfHj7NZQ5FiHriT3n09VRk4Mtn+qwYZjHioiIxo4rV65g+vTpiIiIwMSJE6VFNGGCK7Smp2vC1nagZJZ8NJjoGHOedKJDTHKIyQ6RmJAYLT03vT05DDVHMFf7HXmLiIiIiIhofGGiY2xjomOMe9KJDpGYlBB7X4hJj9EkJk5KS37OJAcREREREY1rTHSMbUx0jHFPI9FBREREREREwTHRMba5Ex0sRkpEREREREREYYOJDiIiIiIiIiIKG0x0EBEREREREVHYYKKDiIiIiIiIiMIGEx1EREREREREFDaY6CAiIiIiIiKisMFEBxERERERERGFDSY6iIiIiIiIiChsMNFBRERERERERGGDiQ4iIiIiIiIiChtMdBARERERERFR2Jgg/XfLVadzb6K0SmOD0+mU/n348KG09Pf34/r165g9e7a0f7T8r+4v5DUiIiIiIqLw8s3Yb8hro+PKlSuYPn06IiIiMHHiRGkRTZjgCq3p6ZqwtR0omSUfDSY6xpwnleggIiIiIiKi0DDRMba5Ex0cukJEREREREREYYOJDiIiIiIiIiIKG0x0EBEREREREVHYYKKDiIiIiIiIiMIGEx1EREREREREFDaY6CAiIiIiIiKisMFEBxERERERERGFDSY6iIiIiIiIiChsMNFBRERERERERGGDiQ4iIiIiIiIiChtMdBARERERERFR2GCig4iIiIiIiIjCBhMdRERERERERBQ2mOggIiIiIiIiorDBRAcRERERERERhQ0mOoiIiIiIiIgobDDRQURERERERERhg4kOIiIiIiIiIgobTHQQERERERERUdhgooOIiIiIiIiIwgYTHUREREREREQUNpjoICIiIiIiIqKwwUQHEREREREREYUNJjqIiIiIiIiIKGww0UFEREREREREYYOJDiIiIno6bjSirNyAUxfMaPFZGlAj7G+1D3YfE2qrynHK6nA9lkJ3bQ7UOj1W13TJe/zcasDGFTnYuLcB7QP/nCi8dBmwOu8gmm8EPtk7DDlIz9+N2quP78Pg6OMHjYierAnSf7dcdTr3JkqrNDY4nU7p34cPH0pLf38/rl+/jtmzZ0v76XHpQs2at3Dm/5OKNRvysPhFlbw//DhMu6Ers2HJ93OwKVODKHn/o+iuLcAWWyb25WkRHSHvlLWWzsTKKiBlrwmH9VPkvUT0lXa5FHGrjsgb/nQoMVUi4+Zg9wFyj1/Dtjnyhsz9fZNV1YZduoHf4+L3nzrXIDxFMc4f1CPW7/uKKJy0VyxCenkPUrY34EBWHHw/ET2oyViEHRbh8/ax8HmbJu8OyII9MzIhfLRGQIWU3fU4nBEjbxONX1euXMH06dMRERGBiRMnSotowgRXaE1P14St7UDJrAns0UGjzmbMQ9yMmUMvmgKcssl/5HEHtbkB7htwyUPtLfnPRsutNnx8sQstJ0243R9KkkP8n36g1zZwWVRhwVi6ntF+0QibtRE1n9n9fvSMjEMIWN4oakRLeR7WVo3me7WgaoUe6Su246z7fBGDI7Fdc4X3IO8ionEs14Cuz67JiwklOnm/ks99rqEuV94fgKNf/K8aCTGBvt0caD1vlNYWv74otCSH+ztnGMvaE3fkPyZ6ivpMqD3UA8QVYFNmHDqqC1HR1AW79BkRPg0XjmCPRViZJvwuqCtHWblr2bO5EFWj2sPDgeaiQtTckDcVQv7d6FmSUCa+ZiKiQTDRQaMvMhqJs9TBl6nyD88+FVQBfoM+NzXA3wRcovHcKF+F624yollas2LHkkD/c50JdUGDT3D9QsDX5l7iPD0lHF8T3q+8/tQ5zDhpkH/AGPKgDvA+42akocIS2o8cx9WDWP3GEXQI6wm51ahbpxnV93r7qhXtV224J/8wI6Iwc7NNMSTlIjp+J+9X8rmPGa035f0D9KDbKv4bjxcCdR5zWHDGKH63pWLp/EnC/4t60FxViB0nhGBwFCXEsucaPU13cCpPj9X5pagRfm9lbctG4pdm1JY3oCzvLdRcET4D/VZUFRtcFyZumlBTcRAV8lJ1sgF7hP+vt0qP5abBNkWyccilsRQZcfKfTk5FSaMBWS/K249Ei9ip8ioRURAcujJGhfPQlfaDi5BeJvyg1BXDXKVHtLz/qeszYccrecIPAiAqTo3YSHm/250utN8Sfg4sLIW5Mi20121vxMaXC3BKCPtzj7cN6F79tHTUZGJRsQWInILEOP934kD31S6I/Tzya9uwSSPvDsJ+sVwa+9sutJuU5NikRVSABNTIh664u8rK3djFHzfu7u5j7RwiouEZ1aErYu+vYpz0fIdNQsKsGDnpOhMbDhZjsfBl4biwG5ocIbhLK4flvVREOSwoW56Jii4Ndp0RAjF3YKYU8neO2CtRhy2mwENqiJ6YrmqkL3kX7cKqSvjdYhJ+t9yT/9+fvL0BdVnThP8v64X/L3cJvwUycfiTIqRIv3t6capAi42nY5B7tB7b5o7sskV3w3b8sMgo/TZQzSnAsYPrkBxkjKzYo0O7VfzQGNBVONiPjgC/B4ieAg5dGds4dIWekh60/sZ11SxxQdKYClDba8SrHsJKnPA/5I+MqP/QdylZ7Xq1sUnxIb9uxxUzzkprerwyS1p5+u42Yr/U51OFZXs/GvA+648UIEW6YypmBfrB7+FAh6EAujVikkP1/2fvbuCiuu788X+AxMmaSNf8JJv8hM0GIS2izYhp0GQ7oltQW3yoY+mKJT9R8herlSRWVq2sprBosKYh1Qb/MeJfythQJ41C6wNZg7M1SH8RZiPIVh4aC642UF0hoY4R5n/OnTs6DDMwIOg4fN4vj8w9M8zce5j7cL73PCBypQHF6a6DHLelpVlpKQIE45HRygMi8jWz16IwP19NOUhxdbzs9pp8bJit5juwtf6SQQ6pHfXKskwWechT8o4WyTvYGiTpdbYWdxotVv3bEoSIStSmbHaHIx8Rmoyfb9EpX3vLJ2fRdF4994trnFcSQ5UxtRYrQQ4NNB0GZO+wdTltO5yJfzksdov4tVjVnyBHp8XWZaytFkXr4zHtZRnkENcGyXkw/cJ9kIOIaKgw0EF31nkTDir9KiOQ8JxzLdrz8S4cU/Zp9ddvgxxf4qXtcnT+YKRsXoLIHpX1RlQelQEaDWY+HWHL6pMFlceNyoUDEnWYOrCbIoOrs1lcgKTjkAzo6DZiTdwoW74Di7kCh+QDXbT7CxPlQkaPuM2ltgrFlI34eZpn3VUslmvqIw+JiyebEQj0hjIkosF3eBsWJyerSY4NoOY76vaaZGSLylh3arP6fUuUpciMEtwa72MMNJ2taKs+gH3K7+kQ0lGC3XI8gs1pWPhvJlyV2aYs7DDZjzlE97YQfS4KU8S1VuNeLIxNE+d+9RrnRiPKjlfAMlKHrb8x4c1EDep3J2OF2B9eXF+i5L+aHtvPQcrN2B4hrsue1mOdUQZQtFi5rxTF63U9BicnIroTGOigO6reVGLr76nVI8ZFawF3410Eqd1IZJcS5+ceud0T6AUjVtwcXyIHa1zdwTh/CgeVC+9+tMzoqFD7gWuQFBvtURBgaFlQuT0V646LdZIXN6+4mmng1iB97lrctJzMxUKdeiFjNwJ4QH3Yl/LNcQiNTsSLuUaUN7aruUQ0rDkNNGpLatP0yekunnM/GGl9XYXyc2q4PMk0i/OO+DH2S6jfFwvtgm3qmAOlyF6ZgWw5HoGhVGkFgkfHiOO0BQU7jGhSXkN0r9Mgak3ezcF9Q5IzkfRIBQoOW5CQW4zig7lIGDsKMen5SAm1oEzsD2UyGJKXi7n97RYScOsqJ0yfiWKTQVxPcZwaIrp7GOigO8ciTq7qMNkzn5+DEOWRIy1SnLtRKGkbVqlBkYR/6/l8itqds1+jdttn67hUinXLMsSJXVwOzMjE22u00HSYkZ1gq4hXXrDd2bsZoOlHy4ym9/JsXWHGpiJhgH1cB48FNbuTbc1UEYqUt+XFjVhHYxriUrNQYB+B/WZwpmeLm7baEmQnRyM6eRcqZXPUhBycyLfdOe23K2Yc2pmBxbOiEaFLRXZJ7c0R4IlouGpHpeHWrA9uk8Gsdk1xpR0NVXIkUh0mjBM/2lrwqcz+8ljEPBmPoMnxSFm5HCs35yjdXw4cMcFcUaUETsyiYrZBnk/Om3HW3YxepgxEuzqn3Ey28TmIvMaNVjTJBqljl2BrWjRwKg+b0nNx8EowItUp9OVA7OU3v/PNKNq112G5/2IW6hE5kK4quxNd7FOOaaBT2xLRcMRAB90x9UW5asV/CV6I7dllwr02NCmtKTTQDHbzx0d1SHlBj6j4TBzbKVs4WFDzTg6KzLaK+MLpUxCdmop16pgWHrfM6DBhd44tqBOzSpzw73qzTQ0i56Vh1QzZlHQ/NkwWW9FSip25JtQfN2BTajy0zyZihTI6u3i5U4sbOXipdl46dp9shyZCj60HTSjOikeIp804HMRsOYbaUgO2puiUljqWS6KsXtZDO1m2ErnNgIelQmyTd03jS0Sesojj0a1ZH9ym4w3u9/HOBpw+Ln5O0GG8bJLWeFYZJ0kTEYyw2Zmo2J+DDWlyms14TH0uGlGhYxA42n5UD0bCG8dg/jAHMznIId3r2swoyM1F9ssbsbMRCPqH6ziyVo/v72sQT5qw86A43zaKn8nRtvE0NLF4RY6PE6FB28lcLNZNwpyX81HGlpdEdI9ioIPujAtGZMtZPqQrjahvtT3sn96nEwuK3wZzRYVn6TX7rCkapYnlgdfs3TjkwFkGmM8cw4HNekSOtKDluAmVsvIf6mnLDAvKc7NsAQOhuaHZOyreQdFYmSebkqpBpqBYbDVVwXwkD2vkFItXzDh6Urb40GBucvcWN2GJOdgar0PKa0ZUvJuJhIj+BKqcPQDN41okpOeh4nQFirckIkoOMtpRi6J3qmx3Xx11yhIVxn6pzyCTDKZt35mMF0sG9AUjortqDBJ2y24p9nE1luCA0k3FAKWXipzxRC73NuvJuQoclcfer41DmPjRdM4W+Jz5pGze0TfNo8G9D6hsXwe3yb7uRHeZpRkf7NyF3aW2bqYtJw0oKBXXIyODlZsMTdv10M5KxfaT1xGZkIni0lwkPRePDe+WojAtGoFiz6kp2Yals5ajwPYWQ89lFzbHpB4LiIg8wEAHDT3ZFUR2DxEPNSNFVbXDhHXLcmzBA09caFCmR+tz1g3NKASO9jD1NaqlJhhRieLE/4s05WJZqfynJXrUMkN2B1mabxu4VCMuJpQBvoy2mWa8UWCoDivz38eb8WpGaCpecB6kNCAYCa/lYUN8xODOqhIwCpH6jTjwoUlcWOmQkqZHmPP7X2pAufw5bgweUTLcuFSCbKXlzVhMEK8louGn/qNjtvE18ldj8U4jDh2T43Xo8Owk2zGtcrcecxb0lvLVMTyI7nFB0/CK7Jr1keyaZQ8Q6LH1XSNKiwwozNAhSJtoa6G5YRzKMnfZWm8EjMHUlflKV65XErUI1Okxy8WYakRE3o6BDhpacpaPl5OhDA0hR/F+Nx8r5QmzcS8W55g8aunQdMJoq+jqIhDpSYOKwdJWgewf5iqDlMrxO340u+9WDHL2lmXrbdsVJi4UijfLqd0sKFuffufuiAxAU9FavFgiH4Vi5VZXs84MMeXCKg8bnuv5B25qkP3txd9gYi/T+srv2WbbWCthK7OQ4unEOETkPc6XquNw5OGIbF0PM/YpywZb8KGhFDvUcTqOnpcZzppRWWo7XsixOspzM7Bdjpehi8V0e2vAy/bpZt0lTi5LvmIUHvhDLv7ltTwcOnfraqvFbMC/bjSiJT4PFUUblRaa9e/l4K2DuVg6Kxra5F228Tke1SJpswHm3lpQERF5MQY6aOiIyufRjfZZPiKw8u1czA3VYs1Pba0kLIY0/MvhPvp+dlSg4C11ANP5cXfuZNtiwqYENUATugSFN7u6uGep3oXF6uwtgbNz8PYqLcLmb8Pr8bLybsam7+9CjdcNuGlBfUEq4jbK4IwGMVvysEZ7J6NJfWlH1UnbDAoJk9xELzpFhcY+m4z4W219wbNpbonIy7RWqeNwGFB2QWbIsZLksjoY9AUTCtRxOk677J0WjIT8Chw7eAzm0hzMHatmm/Kx/XD3VnUp+52axJsyEaM+R+QzOlpw1GDGtQdvnRWDgjRoMRtx+OSt66+wRIOtBUdCBCzK+ByJXn1zhojIEwx00NBoM2Pn9+ZghTKXugxyGLBGDoApRYjKqNKsw4JD63OVu/AuKa1BUrFbXvCGLu/nAKYDp0yfGptqO8mH6vHm2+mIUqe3daepJANzFuQq3XFkkKP4tXh1zI9RmJkuLqDl7zfmYpPBi64c2mpRtF6PuExbkCNqjQFv6oPVJ71ErQE7DoufIxMxK9pF+OJyLfZtXGSbTUZOmevB34qIvJR9GtkzeUiSyzNy1PEwnMboEGnDZJlhY/ncoW1gwCiERQQjsLMNzUqwRGpEUZo4H3HsHhpmmprljYIgfMnx8mnseDw7Fjj6UZU494tLgXMVqDkvHskWHFlGmPalISUnB0nsrkJE9zgGOmhwdbajxigq/bpEbD8tTpyjY/FKkUOQQyEq1S+kI0lWSDsM2JRboZxsHVkumJC9YI7aGkRWYNMQNcS36e2jj9umTwUCn1uLA0WZmGm/K+jKpYqbI5bXi+2KTM5D6c0gh+rReGxYY5sDtzIzB0U3L77vks5WVBrk30jOcmILRCW8VowDyyO8qyWEHNvlJVvXoZgNS1xP61ttwE5lG3Tie2abMpeI7m1tpUYUiJ+Rz433qBVfU4tTy0B57Ph+FirFEW1urgknXtMjbGQ0Zj89CGP3cHpZume0ov6MuIYaOw7B3aZ6DUbYJPHjvSrUdJiwPSEZc2InITQ6HityxLXMI4nYMN/Dmx4d7Wi7oqZzZ5Xz9W3h9LJENIgY6KBBZEHN7iWYs94oTp5QZjM59kEukp50UUMVFdNVGbah6Zvyc1Hk0NCh3pAI7fRU7K61B0qGugLbjvJMnTr6uLhglhX/LSWoyE9GVG/zwLeU4sVZyervyGlbS1G8XocgF+NbhCWkI0XZBhOy3zKhTcm9CxoNWDhZh4WbbX+jwOfSUCgqFVvjvawlh6URBSttXYfk+Civ9NLSRBOxBHtK81x/z4jo3nLBiBc3looHOiTF9nZL2SIqV+pDR7Lb4QJRGRLHjrCUfLw6ewxC4jNx4INtmOswa1fRj5wGIV2eaxsLahB1a2lCdKe1nMIRkzhHzo5GpJplMwpRS/NxrDQVUZYgRK5KxMzQUcqMeEd3Z2DxrGhE6FKx83hjn9O9W6pyER0dDa1M8VnKoPOAFiFDPh54CyzuWgMTEakY6KBBpEFkyja8MkOHNfkmHNsi76KpT7kQND8Na2KXo9Bk6NZEMuy7OXg9QYuYtHxUfOgmUDKoRmHqmjeQorUNvFVxWlT89aF9t24IisWrbyyxzc4itmHNlF7O7BotVq1JRMIWI0wZOvQWPxlSoYn4aUYswmakYc+RCpjzl2OqN44ypglF0pZcpMSmofDm1L8OQuOw8jmtUp4V76YjhiOlEd3bGptF1aUZhzJzlO6MURnpSHA5nbgFZZvlnd1JWGq05YSNVY+9llrsTLF1O5QB0rfX3BqvR8625ait0WkQ0trWHi0LXfJgetk3EyIQOSECls/7GIOKaCgFxWOPKR9vzuk5vlXQhGiEBYm9Y3QEElI24k1xPVB7sgR70uOV6d4tl0zYnhqPhfkOd6Fc0Dwdi4Sb13mjEDYhFil5OUh6XM3qLw+ml90g9q3ICWId79odIyK6V/gp/6+rtlq3dI/30t1ltVqVn11dXUrq7OxEXV0dJk6cqOQTERHd807nIHTRXlsAQc7u0NmMssPtmBrv2JWuHfUnz6LlwbGI0gaj7b1URKebgJFjEDU/Qwne2oOhFnMuFucH46euAqRCZc54LNxtG4zUcZwPtJRg6XPpKMMSHDiXjig1m8g3mLF7QSYOIh6vvJvc+/e704KmUwZsz72A+Xs32sYYI6Juzpw5g/DwcAQEBMDf319Jkp+frWpNd5ff+hpg6wT1r8FAh9dhoIOIiIiIiMi7MNDh3eyBDnZdISIiIiIiIiKfwUAHEREREREREfkMBjqIiIiIiIiIyGcw0EFEREREREREPoOBDiIiIiIiIiLyGQx0EBEREREREZHPYKCDiIiIiIiIiHwGAx1ERERERERE5DMY6CAiIiIiIiIin8FABxERERERERH5DAY6iIiIiIiIiMhnMNBBRERERERERD6DgQ4iIiIiIiIi8hkMdBARERERERGRz/BT/l9XbbVuiVQeknewWq3Kz66uLiV1dnairq4OEydOVPLvtD82XVQfERERERER+ZYnQh5TH/XuzJkzCA8PR0BAAPz9/ZUk+fnZqtZ0d/mtrwG2TlD/Ggx0eB1vC3QQERERERENdwx0eDd7oINdV4iIiIiIiIjIZzDQQUREREREREQ+g4EOIiIiIiIiIvIZDHQQERERERERkc9goIOIiIiIiIiIfAYDHURERERERETkMxjoICIiIiIiIiKfwUAHEREREREREfkMBjqIiIiIiIiIyGcw0EFEREREREREPoOBDiIiIiIiIiLyGQx0EBEREREREZHPYKCDiIiIiIiIiHwGAx1EdFdYqvOxYoEecxYkI9vUquYSERERERHdHj/l/3XVVuuWSOUheQer1ar87OrqUlJnZyfq6uowceJEJf9e0f55B9o7ruH69S9gFdtBt/j5+2PEiPsxauQDGPXgSDV3uGhGQepvELVzOSID2nHo5T0Ifi0NUeqzA9ZowJwFzdhQkY6pGjWPiIiIiGiQnDlzBuHh4QgICIC/uJ6XSfLzs1Wt6e7yW18DbJ2g/jUY6PA693qg4/oXN/Dp5f/BDbHjd8lK/AMjII4C6rOkkIGfa9fh/3kH7hOPH3n4bzHi/vvUJ4de5S4dll59A+Z0rZrTh04ztn8rD4/8NBdJEZ5FEZoMiYjLsyBs3DhM1Wox4enxGD8uAmGPttwKdKAVh9YW3gx0tBhTEb3eZHuDHkKRst+IDZPdfP7pHIT+8Eso/kC+7wBdMmKprhSzTHlIeFTN65MFlTmpKHoyA6/MDwVjLERERES+iYEO72YPdLDmSYNOBjn++9O/4PqDI9EV9DAw8gEGOVyRZSLKRpaRLCulzETZ3Slhfz8FbYcrIA4FHrGcKsHuxmCEhHpejQ9JNMBcshd7MhIxfRxQV5qPl5akokC8T8KqEdguu658Zy2q5y++2ZojSJ+HxnNnu6faY9g6Q3xuqA7Tw91/fssnjcCXx+IRdflOaTKmYfHuFgSGjO09yNFWi0M5aYiLHo/QJ8cjQpeIF3dXoKVTfZ5oOGozo2BtIrRinwh9MhoLNxtR36E+h1YUpdj2F9cpFUWX1Jc6qdkVh9C0ErSpy3aWcwYsTTWiRV12q3oXponPWGrsX9e6FlMW4nLM6pKDzlaU7+y+/28yNsKiPu1Wr+Wj6mxHpSEdC9X31iZkoehcn+9Mw8F5E7JTdYiQ3x+tDkt3OpxzZGBf+V65SSnu9pNa7Jw+HitK2pWltlojNi1SP0N8R+NW7kJ5bztYRyMKUt3vu92I73aNMQsLdZNs6xQdjxWO26CQr8nBilnRtteI7Vy41oBK553fld7Kx86TfZCIvA5rnzToZEuOri+NAh4abt0xboMoK1lmsuzulMApOsy8YERZrW25rbECRTmpyD7p6uLYgvJSA5AU2+8uIZrAUQgK1WJqfCLWbM5F8ZF8JIWK/AnJ2HPQiOJ387FBN0Z9tQudzTj0sh6brqaK16ZjaqCar+heCVJaghxPR7S6rCRXFY7eLu50GSiDCet03fPdVXYsp3OwbH0VYnLy3Lc0kTrMyE7Q41+qQrFhvwnmChOKN0ejeUcydCtL+q50EfkiZb9IRMF98dhTWoGKIxmIqspC3BID6pXKxhjMe61C7C/OyYQ9yeK4oYvFdFctrzprUfbLFiQlxOLmIUOpMGVgTnwWyvqMKbfj6J48NKlLHpGBjNxE6FLEuqtZjip3xGLFR2OR8vNjYv2PoTB1HMrXx2NxQaP6Chf6LB/Jgsrti7Bwnwbz5HubSvDjSVXYFJ+M3t6ahgFxjl86Lw2VEVkoNlXgxNvJ0OwT55xMky3AFhSP13vsWyKdzEOK2L1iZk9DkPJGTqpNKLqSiOdjxbVeSwleXGTA1X+yfUbFkW2YeTkPi2PFfuYiGCCDIusWxGPTcTWjDy3Fa8V3uw2zNhtRIfb7Y1ti0fKWwzYoGlB+Mgizf2JU1v/EL9IQdW4bFibkorK3eF9f5SN5tA8SkfeSXVfIq3R1dSnpxo0b1uvXr1v/+te/Wj/++GP1We/V9tnn1j9++hdrg3jM1P8ky06W4ZC6cc169XKb9U9niq3/+q0I61e+/i3rM8983ar/4evWdz5qsl67ob7O0eVia2p4rHXHGXW5n6599Lo1edMx65+uqRmeutFkPbLuW9anVh+w/snVenXTYj24PMKa9ts2dXmALh6wJocvt75zUV3uxbU/FFqTn9Jakw80qTnuffrvmVb9zEzrB05/3qvFq61PyLI9q2YQDSN/KlxkfSImz1rtuH8r+6DW+q+/6+WAcfmYNe0p98eka7/LtH7F4X2vnd1jTf661vrEUwusif8ca31i2QHrp7anXLr20atW3cxvWWPDI8T+3aLmuvfpMbF/PxNhfeKZJdbE74ifr1apz9xS97sT1k+djmN1exaIdXrdelpdduZR+XxSaNX3OD63WN9ZJo7vPz5l7e9hl3zFNeuHPxbf+dXF1qtqjqR8t8MXWfd9oma4cPW3a7vtP93Z3ldnP2l9WmX94A9O37LPT1j/Re47v3bYd66dtb61/OvWr4jvbvySRWIdPDvPflp1wlrndN689u8bxXlzufVgbztxQ6E1XqzDv32kLvfgWfkM+BhFPk3WyWTdTNbRZF3NXm8j7yBjGzLEwRYdNKjkwKPKmBw0ILLsZBkOiVM5UJqUficRi1/ORMG/tyAyeTkiL43Dj0pMOLAtDQmTg6EJUF/voO1kKY6O1SMmQs3oj7ZSbFr2G4TN0iGkP61BOltRlp2GHYHpKH1NjxAX69VdM+pOBSP8H0apy0PsghErErYBG4qxRx+sZroXNGMjDhzZiBin3SPwsbHi/xZc6+2uE5FPakTZATMil8Yi0nH/fnQaZuksKDC5aI2lqjFsw6Fpq5E0Qc3oph1HiwyIfOFbN9+37Q+1QHwmik1GvL4w1JbpTmcjil7dj5gN6YhRs/rSdO4sgl/IR8WH+VjztJrpJOw5HYKcjmNhEdFAh7ud37PyqRfbVDlhCWZ2K4sxmD5bB0vBCVTyrvPwZKnAkQILkvQOrZoEjTYOM0eacaSiWc1x0lmLgpwSxKxJ7P69s7tSin0FEUiJVy8IgrSIedLp5D4yFFFTxE/H796VBlQjHq8eNKF4ix7j1Oy+BGl1CHM6b2q+rMVU8fNab9/tx8cpr7F87mb/8qh8Bn6MIqK7j4EOGlRydhVl4FEaGFF2ShkOhSnpaDxXgWPvGlGcn4MNaclI0KdiVaIJ2/PNDk1AnTXj4L5SRDlUGvql8SwOdnwD07/WM8phcfuhsin2cmy/NAmRzTmIjZDdR2S/3xwcqrX1Ce7hQgMqO7QIk3EDoXK3nLo2Xu1TqyZX/Y279W0Xn5FT2ktZqC6UYMWCLGCNEW8m9B3k6E3bxQtAaCpm3VsTKhHdvrYGnK4GpoY7Bx7GIOxJ8aOh2XWXrisl2JHr1C3F0fli7Dsci+dn39o3g+bnYE96PCJd/kJ3TcYcbArciFU6D16silppwOsp0T0CGX1pudAoKoX2Y2MrDqVOgnZ9qW1cEY/Kpx0NVbXA18YhzPbkTUH/IH+vEU3sFzc8NdaiDNGIHOd07g0IRtjTQPknrrtjth3Ow3Z7txQXmg4bcHR2IuY9rma40tmK+o/Fz27BgXi8npeOuRGDcDPikjjfix8P9La/nW9AOcQ1weNu9i9Pymegxygi8goMdNCgUqaQ5cCjAyfKTinDO0aDmLQcTDJsxA6zm+r9eRMOmrtXGjxiv9MyMQ6rQvfjrfcc7x7JWUqioc2pcBFUkM/pseKwBpHPxWPlthKYlQFJ38dPZ7TjrUXfwIqSnhdoloZalE/QYpxaN4lK3IvCt/ejotZhUNPd+h79jVvek/1/x2BNqe0zXnm0WVwc9eJKKdYtyIBlTTH2JN3GDCudFjSd3IXsk1oUFshpdtV8ouGio01UODTQPKAuOwgZpwNMDS7HyFAqWtq1SHnO9d5XU7IXlbNjETNazeiPC0Zs2ghsfaXnsWLQdTbiyDsmhLwQ53pqbY/Kx4KrotamuRkscTB2HGJgQv0FdZmGl46r4vuhcXHvSa2kn2twUUlXb2ykL3E9HldnLQ69ZcbM2Gmug4wqy8kSFHTEYv60XsbfGjALyor3wzI7HjFudlLL+Qps/1EusDIdCe4CMp6UzwCPUUTkHVgjJS9hwfnTtfisRzPEdhx/WYfU5Az87rwt5/rJHLGcjl0ljbhuy3LrvCEVG3ZW4PJgN909lYNvPDke8xcZoK7WvWt0LF59W4ej63JR6WLgsJojotIQr0OgnPZVOx4R8zJwtK8L55YSLJ2cjqPyKiogAivfFjWHzFRsMtkDFBpEfXMpHikoRXm3SIcFlbmJWHoyFq8fNGBrohYh9iarAaMQqc9EYdYUHN2Y5/R7QH2tqftdzZGjEDh6lMuuOLe0orzUhKQNabZBTsVnTF2cjKni8s/iZkR1y9kKFF2Jx/PxA2zJIafAla1LIiZh2svFuDo6CIEDjpYQ3euiEeLxNM6CvaL1/ByEqFnddJpx8K1eWnv0prMZRZsy0JYhKkdqy7Aho3TNW41NbUvw02R7n8AxmJtXBfMWx3X3rHymBt9eyzLyVaEI7k/Ervo32N3bjQ1zMXb00tpDkrMarVhtxNQtazF3IMHGXllQX5CGFe9FY2t6fPd93GGQ8YjYHDQt3IsDq7TiasPO1f7lSfn08xhFRF6DgQ7yAhaczdVj2SI90jaW4qJjUOLSMbxf0oo/PR6LZ5SofDt+b9yP+pNt+PtJoeitk8xlUxZ+vNmE37+Vg8NnRK1YnAQ3z9IjdYH7tOzlElxWf79X99t+fPbVceit9aY3ajmZjxeTHbp0yGnYdrRi/DgTXnrZiCbH8ldmLmhGyNkSHHk0HabTVXhzUgleLOyjX2rDWZSNHnfrAmKsHm++rUN5yhJkn1YjFBHRmDnSgA8q7BELC2p2JWPx4Wjs2a8GHlwI1MVjbocJld1mE2hFzf9txlzteHXZc9dczr5Qiw8+dt2sVzNlCd7UV2HFohyUDaTNqjZNHdn+GIoz5qDNmI45CTkug0xEvs99UPFWl45bLKeM2HEhHvN1ritachrsgtGpSJjS3+ih7C6Xik33ZeKniX2M4XG72szY+b1YrDg7BweK0hHV67BWnpWPvPPsmqaPYC/5tutoc7opcNN9zvuIBeW/zkNTfLyb1lDi+d/uxyMv6N3OvtZUImc1MuCRLM/GruoXOQPbej3iCoPw6sG8nsHImzPImHBsfzLCS5Yg4lt93ZjxpHz6d4wiIu/BQAd5AQ3Gr8rDhtmjcN6Yho3bzWpLDQvO7tuF32MMxqMKhbm5yM9ci10l4qwUEYhLB8SyzBPp4GnHcRssOG9Iw9IU2doiFN9524DFWtvJ6HpjLeqr3afzbs94bgTcSyc52SUkHrqcRjy7Zu+tLh2nS7EnIx4TRgbi6vF8HG1QXy7YKhUajHshE1vjQ8UFswZR0bGwODd5Ne/CwkzTzbya/3wfiNMiUl2WNJPT8XZWMHb/aC9qZDAlIALPzgeKTqnz23a2o+VyMDb8vI8L/8AgPIJmXHW88GirwoemCEz+cn/7/toG7CsylKBe/unFOpQX5tu6rrhrBRQQjJlZ+7HnOROWxqeh4Fz/vzOypUng6GBExi9H4f6NiGrcix2HXQdWiHxbLZquqA8dNDVXAE8HO7XaaEeZ0QBLoqiIuQyE9hyE1FOWU7l4yRCMVzI8Gfh44CzV4lipS8YHU/Jg+sVyRLkJ6N7iWfnUXHQR6Lgku+HxbvTw1oxPe3x/WtEsbxSEBnfvntVmwjtycM75OtetoZwHIXXU2Yyj6+MxbQeQUmIU1wuDHOS4UIp134rDDiTj2LuZmOvqDtPNc+sYhE2Ox8rdYj2CjXhxj6susnaelE9/jlFE5E0Y6CDvICqPM14zYo0OuHiyBGZZY240Im+3HNehFWbDLhTuFKnAhIvy9bUltmU1VXyinsbaanF4vR7LNpfiM4Ri3u69WD5ZDUY8qke2qNi/31varcfDtlcrLh/OcNnyI/VHRtsLjBtdP78gA78byN3+oXTeiOzd4/Dq3kwkTBhz6y6fuDgICtUhZZsB5jNGpMi+qQoLKo8bYdGuxYb5ty5aAh8Z06NfqqWtBZXn7RtsawWS9JxWXb4lRJ+KlEt5OKg0CNEgUqsTFYyzqJeLAWMQsz4HSaHi/c4ZsSkh2tYEVZeITSUO43tcaEANdDcHHZUs5gocGqlD5ABuxAbN34bCp0uxWA5GGvENbO/QI0V8DwN7u1Mju7ikG1G8tAXZCcnYWd3PYIej0PFK//yyBjcj4BP5qkfHY7LYj2t6fPdbUX/GgpCvje9eEbNU4cMSIGlGtENzdAcuBiH1TCsOinNFU4cJ66arLd2UlIjd4tmy9TrxOBVFl2yvHiiLDAh/rxiRb5TiQJoHA5d6VD5jEPk1sb3VPccKaGmohWXsJEQy0DE8hU/CXDlGyyfqsl1nM6pPAXMndp/3RDmPIhHTo12f+9wPQtqKQy/r8eKVRCUIkeA8A8vtuiQH/07Hp4tLlNlanGdgcUsOKiquZyznm22DjzrzpHz6e4wiIq/CQAd5D3FSmr3lGH7x7kY8E2hG/vezcFbmpxhuBiKKtogaqPCd/d0DFNl6dcArSwOqDjcq4078oMSIHwQ3wHw7F6cdLS5bftQ3qi1IrjS6fr66Be2DPS7I7WptRuWTWozvrc+sxuECRbm7IyoVq8SFheMFuWyJoD60k+NjaMRFgXLCrzah6EI8nlVb0XQTMAZhX7WICwtb64WgL09CSLUZDd2uQmqxe/kuaNLeV1qcmPfq0bRxDl48LMvcgkrZ4kIXi+kOF+81p4zAfHFBry5X5k7CUqOHLSQCRiEqJQ8VZtnCpUJUQILQZNJi8vi+WodoELk8HwdWADu+l4jt9i45LrWjsiAdC5MNqHf+XjSeVUaPd77oJPJ9EYhZGIzyA6Ky4bhfNB5DkSkUCbrud44tFSYUwM2xRZCDkNYkJWJmv8cFGIWpq/JRmO+c1mKmeDYyOUc8TsXU2xpvoBlF2bnQrHkDr+g8HaDRs/KJfE6PEHEMLHPszqcOdBr2z7oex2saJgKnYMZsoOCIqVuLBmWgULEfzZ7ieI6zoPy4AYiPRpSr3UsZG6fW5dg3lpN5+JcTc/Dma4meByE8JtbrrQyUzc7Fm/0d/LuzGfXnxJn68WDXLVQ8Kp/+HaOIyLsw0EHeJSgYD4sLwt9t3ohC+0XbR4abXVQKS22ZNb+81W0lv9Qh0h4Uj9S385BXmot541pwODsZP9Tp8StTKba7bHnhIu3uOf7EM1tM3QIr7+9fYnvCIQhjSyalVYpXGhOMqHOlKBMnfk+0mUpwaGwqEpxnNhgViCA0ot4eQFLG8WhBwtO2E35T/VlokvW2puWdFrRdaVdTK+pFRWT3qWBM/rJ6oT9Wi6SVOnS//6pR4i2WjquwiAsLTager6RH4FB+LnZuTMTi45PwZrcZEWpRftiCudGTbl0EuZ+3tneXTMhekoGG3kZq78YW7ChMBnYv6y3YMQqRE8ei7WQWvr/RgPLGVqVMmk4bsO77WaiJWIsX4vrb7Ybo3hepX42Yc7b9ovJ8O1oaS7BJ7BNtKVlIcapD1FQZAYeZlbqxVKDoLXEcmuE4+KCnNAjRRmPqc85pktIsPejJKeKxFiH9f+NbWsz4QJxaIscGORwTHZJy6HCa/lLwqHwm6LFmRq3Iz0DB6Wa0XWrEIXWg061JrIgNX6MwM3k5QgxpWJwrKuqX5Dlnl22g0IzVTgHBWpx+T3zfJo1zGRRQurFe0WPW0z13gpqPjLB8NRRBFhff6ysDPBffVIsPjRZEjQuCpcd7i6R2YW15LwMv7i5Bpf3cWl2CnSl6rPtIh1eW2luAOe9fnpVPf45RRORdGOggL/QARmiu4/EZOtsMGuZb3VQOHrcFNc4evNVtpbCq+537hyeL3wu04Oz2VGw3AY8lp2Pek234i8uWFy6SR6OR3oMe12NDShuyE3RYmmNE2elGtDheMHQbn8Q2xVyIvBvo3Lw6SIvpWhOOHK5Fi3JBvRY7vrwRKergfyHzc3FsvXphccaAxUu+hejoaGijdZiTcxZTX9uDlROUlwKB0UhJi0dktyurUKTs2gjNe2nQTbY1IZ+2uQFhN1pwdVIGTL/JxEzHQcgaq3Dkgg7PTroVKAgbH4uyw8dQ724AMQeWK82oOW7E9rWJ0OrWoiYuD4XdRmrviwZRaQYUJlqwc5n7MTs02jQcM+Uj4UYJXlygE+URjbiXSnBtYT5M7yZzelkanh6Nx56DeYi5kofFsdGIXmTAVbFPFK5x3gdtTcW7zazkwFJROsBBSO+QTttxoSBVHgt7phddTJmt8Kh8xmDuzmLsmdGCHcvixHFsEfa16VFY0NdAp+Tr5HnnQNFaBJ9cizidPOdUISzLiDedBwq91IAacb6cGu6q/6cF5aUG94OQyhsLp7Iwx8X3Whudq7RYvB1yINDyTL2L9xZph+3GVOBXdXikKh8r1HPrtGV5qI7IQLHJxaClDjwqH4+PUUTkbfyU/9dVW61b2LjRm1itVuVnV1eXkjo7O1FXV4eJEycq+d7qj00XYQ15TF3ykDkfqT8uURek8fjezzPxj51GbJiegd/LVhPptvEeLhvFhex6k9J1ZflkJculi0WpWLbRhOvQI9uciWfcXeydzsE3Fu21tcxQP8OR/fNki46b3WMkt7/XisMpOmw36bBGnGBnD6BvtJ8owyf6W4b90HLaiH2/LEHZmbOosXfBkWbkoCIv3tZSoq0C21Py8Mi2fCS5aNlgqRYXFN9/A2WXRiAqMR1b0/vRb3aQtZ3MxVLjOLz5mrruUmcryvNzsOPACZQ7biOW4MA5cfGvLikXcFv0ePHUOMz6rh5Js3UIG2jz9M5mFL28DZaVOUga7D7KRNSLdhxKi8a+6GM4kNjf8TmIqFdXSrAi2oBnSw0urweIhqMzZ84gPDwcAQEB8Pf3V5Lk52erWtPd5be+Btg6wY8tOuju63QeB6NFXLYK9jvc/em60tmOs7sS1SCHNAoP8Y5WN0GT9VizLR/FRypss67Ykz3IIQVGY02R6yCHpJmQjD2mKtuYFpvvXpBDCnwuDQccgxxSwBhMTclBofM2dgtySBpMXV+CioO5eCXxNoIcUkAwEsT3kUEOojtswIOQElFf3A9CSkTk3diiw0sNqxYdDs7mjMfq3WprCBixQZeB36vPueXQquJ8QSKWZZqB0RGi8l2L+gtL8Iao3I5XnnXBwxYdIx6NwN87jh/X0WwbkHR0KMLGdq/YXm6sxeUO723RQUREREREA8MWHd6NLTro3iGDEOdsg326nHXFIUDxeEIavqNdjp+UZuHrat5guH7JscWJSL3MunLZg3EhiIiIiIiIaGgw0EG+RRON5UVp0AZa8NkFNW8Q+MSsK0RERERERMMAAx3k/foao0Okg6cdB5wcPA/Hb8N7FRXYPN+x30pvxmD2bhnwGFi3FSIiIiIiIro9DHSQ92gx4d+PyweN+NMnDlN09jW9rEgVjq8fTJpReGj0KIzg1J9ERERERET3BAY66O7rbEe9MQOpsak42KjBiJHN+FVqGg62TsPmWsduIW5SbRU2zNDgeqf6fv1w/erQtAQhIiIiIiKiu4OBDrr7movxxnoj6jtCMTu3GL/9TSaegQk/W6DDNyPG4xvR8UhdoHdI8Zj/pMi3p4hJmB+dC/MN9f36YqnAz7S23/1mqlHJCnssUPlJRERERERE9zYGOujue3wOEvSx+EGJEWtmBwNj9cg2GbFhZTy0EyLwsMV5ZpNGfKb+qjK9q3hN2DwtwrrP8uqeRouv6+0vHoXHY9fih/pQdbmfLjTjsvqQiIiIiIiI7j7bZL/rqq3WLZHKQ/IOVqtV+dnV1aWkzs5O1NXVYeLEiUq+t/pj00VYQx5Tl2gg/EQZPsEyJCIiIiLyOmfOnEF4eDgCAgLg7++vJMnPz1a1prvLb30NsHWCH1t0EBEREREREZHPYKCDBpWfjGh2dalL1G+i7JQyJCIiIiIiogFhjYoG1YgR9wPXrqtL1G+i7JQyJCIiIiIiogFhoIMG1aiRD8D/8w51ifpLlp0sQyIiIiIiIhoYBjpoUI16cCTuk11XPmOwo99Emcmyk2VIREREREREA8NABw26Rx7+W/hfbWewoz9EWckyk2VHREREREREA8dABw26Efffh//9yP/CiM9F5b3lMtBxjQOUuiLLRJSNLCNZVkqZibIjIiIiIiKigbNN9ruu2mrdEqk8JO9gtVqVn12iMixTZ2cn6urqMHHiRCX/XtEuKvDtojJ//foXsDLY0Y2cXUUOPCrH5GB3FSIiIiIi73fmzBmEh4cjICAA/uJ6XibJz89Wtaa7y299DbB1gvrXYKDD6/hKoIOIiIiIiMhXMNDh3eyBDnZdISIiIiIiIiKfwUAHEREREREREfkMBjqIiIiIiIiIyGcw0EFEREREREREPoOBDiIiIiIiIiLyGQx0EBEREREREZHPYKCDiIiIiIiIiHwGAx1ERERERERE5DMY6CAiIiIiIiIin+Gn/L+u2mrdEqk8JO9gtVqVn11dXUrq7OxEXV0dJk6cqOTfaX9suqg+IiIiIiIi8i1PhDymPurdmTNnEB4ejoCAAPj7+ytJ8vOzVa3p7vJbXwNsnaD+NRjo8DreFuggIiIiIiIa7hjo8G72QAe7rhARERERERGRz2Cgg4iIiIiIiIh8BgMdREREREREROQzGOggIiIiIiIiIp/BQAcRERERERER+QwGOoiIiIiIiIjIZzDQQUREREREREQ+g4EOIiIiIiIiIvIZDHQQERERERERkc9goIOIiIiIiIiIfAYDHURERERERETkMxjoICIiIiIiIiKfwUAHEREREREREfkMBjqI6K6wVOdjxQI95ixIRrapVc0lIiIiIiK6PQx0ENFd0IyiHdex6ldGFL/7Bia8V4hK9Znb0mjAHG0Oyi3qMhERERERDTt+yv/rqq3WLZHKQ/IOVqtV+dnV1aWkzs5O1NXVYeLEiUr+vaL98w58/lkHLF/cQJe6TWTj7+cHzf334cGHRmLUgyPV3DuncpcOS6++AXO6Vs3pQ6cZ27+Vh0d+moukCI2a2bsmQyLi8iwIGzcOU7VaTHh6PMaPi0DYoy0oSP0NonYuRyRacWhtIYJfS0OU+J0WYyqi15tsb9BDKFL2G7FhspvPP52D0B9+CcUfyPcdoEtGLNWVYpYpDwmPqnl9sqAyJxVFT2bglfmh8Kx0iIiIiOhec+bMGYSHhyMgIAD+/v5KkvzEtT3dfX7ra4CtE/zYooOGxPUvbuC/L36Kzy//D0Z1fI7gL/6KJ5i6JVkmsmxkGcmykmV2J4X9/RS0Ha6AOBR4xHKqBLsbgxES6nk1PiTRAHPJXuzJSMT0cUBdaT5eWpKKAvE+CatGYLvsuvKdtaiev1gJckhB+jw0njvbPdUew9YZ4nNDdZge7v7zWz5pBL48Fo+oy3dKkzENi3e3IDBkbN9BjpYK7F6biGjteIQ+OQnR89Kw8yS77tAw1mZGgdgntE/KfSIaCzcbUd+hPodWFKXIfHcpFUWX1Jc6qdkVh9C0ErSpy3aWcwYsTTWiRV12ZDlXguyV8bZ10eqUdalxfoM+tJiyEJdjVpccdLaifGca4qJt6x6hS8QmYyP6bIDWa/moOttRaUjHQvW9tQlZKDrHpm0knDchO1WHCPU7vXRnBVo61edkYF/5XrlJKa73E6AWO6ePx4qSdnX5Frfff6HlVD5eXKSuS3Q8VjiuiyfEPlSWGY/s0+ryTe2oMeZgxaxo23rLfXetAZWe7Lu9lY+dJ/sgEXkdBjpo0MkK+8U/t+IhyzU8+sU1PGjtRABbc/Qgy0SWjSwjWVayzO5ksCNwig4zLxhRVmtbbmusQFFOKrJPuro4tqC81AAkxWJqP5sraAJHIShUi6nxiVizORfFR/KRFCryJyRjz0HZdSUfG3Rj1Fe70NmMQy/rselqqnhtOqYGqvmK7pUgpSXI8XREq8tKcnXB1dvFnS4DZTBhna57/lKj62CE5XQOlq2vQkxOnvuWJnaivJfGpuLgw3qx7RUwVxTjzW9asC83F0fPq68hGk46zMhOSETBffHYU1qBiiMZiKoSFaUlBtQrlY0xmPea3Feckwl7ksVxQxeL6a5aXnXWouyXLUhKiMXNQ0anrAxlYE58FspcHWobDViakI6ywGQUmsS6vJuFqX/IwpyEXFR6EjOQgYzcROhSxLqrWY4qd8RixUdjkfLzY2L9j6EwdRzK18djcUGj+goX+iwfyYLK7YuwcJ8G8+R7m0rw40lV2BSfjN7emoYBec6Zl4bKiCwUi+/0ibeTodmXDF2myRZgC4rH6z32LZFO5iFF7F4xs6chSHkjJ9UmFF1JxPOxo9QMoY/vv+VkFmKffwPNU7bhmPiMEz9PxJeKxbqsLHETTHFyqQLbvxeLpS6/1A0oPxmE2T8xKut/4hdpiDq3DQv72nf7Kh/Jo32QiLwRu654qXu564psnSAr7oFdd7aFwr2uzf8+fKZ5AP/7sSFuj9BpQVvbdVy9cAK716WjqC0UgZY2hOj0SPhnPeZpg6EJUF9rd6UEK6LfwIR3j2HlBDWvHyync7GieDxeWR+LkP4ESjqbcXRjKv6lIxnFr+kR4rxe3bTiUKoOx+dV4PXZDhdf/dWPrivyzvCKhG1ARjH26IPVXHfacfRlHV4MzIV5s47dW4gE2b1t2lvTUPz+ckTa929lH8xCSP4pvPKcmz3lSilenL4N4b9wfUySlSrtxiAcUN/XUpuPFcvfQJk43k2NaEf5g8tRsVvfrRInW4DMOboIx36VjDD7uijHvnSE7DuLDVPUPBdaSrOwYqMBlYjG1McrUP60AY1O3QLrT5rwpSk6BDkcx+rz9YjL1eGA2dZ1z5lH5XPegIWxezG92/FZBoF12PR4PswZ0TzeDEsWlGdOweLWTJhz428G/GRwPm6RGSmlBiQ9rmY6aTucjuiccTf3n+5s77vuYQNOrIxQcvr+/svzXzRWaPJQu8Xh/Fe9C9MWnMLKD/KRMFbN66EVRzevxr8YzMBz0Qg7WYGo/WJ/nKw+7Y4cs2tWFqa6fa1n5TPgYxT5NHZd8W7sukJDQo7J4X/jBoMcAyDLTJadLMMhcSoHssll3HcSsfjlTBT8ewsik8WJ+9I4/KjEhAPb0pAw2UWQQ2g7WYqjY/WIsV3T9E9bKTYt+w3CZun6GeRoRVl2GnYEpqO0zyCH1Iy6U8EI/4fbCHL0xwWjLcixwZMgh9B2CodLgrDquwxyENk0ouyAGZFLY7tXph6dhlk6CwpMrpu/SzWGbTg0bTWSXAZeRaWqyIDIF751833b/lALxGei2GTE6wtDbZmuPBTY/Rg4MhCPyD32fnXZjaZzZxH8Qj4qPszHmqfVTCdhz3UPckhhEdFAh7tbzp6VT73YpsoJSzCzW1mMwfTZOlgKTqCSd52HJ0sFjhRYkKR3aNUkaLRxmDnSjCMVzWqOk85aFOSUIGZNoosgh3ClFPsKIpASf+uCwJPvvyJQ0/38N3KUWDeR4+pzbmpG/dlgrMo3wZzvOiDo0uPjMFX8sHzuZv/yqHwGfowioruPgQ4aVHLg0VE3vlCXqL9k2ckyHBJT0tF4rgLH3jWiOD8HG9KSkaBPxapEE7bnm2810+yhGQf3lSLKodLQL41ncbDjG5j+tZ7Ve4vbD5VNsZdj+6VJiGzOQWyE7D4SjbiVOThU27NPsOJCAyo7tAhT7wpV7pZT16p97e3JVX/jbn3bxWfklPZSFqoLJVixIAtYY8SbCR4EOaS6KhzCNxD1pLpMNNy1NeB0NTA13DnwMAZhcj9paHbdpP1KCXbkOnVLcXS+GPsOx+L52bf2zaD5OdiTHo9Il79gEzlvNWI+zsKmglq0yeCApRllOTkomrERSX2M2Ry10oDXU6J7BDL60nKhUVT27MdG2SptErTrS23jinhUPu1oqKoFvjYOYbYnbwr6B/l7jWjyqF8A+ZzGWpQhGpHjnM69AcEIexoo/8R1d8y2w3nY7twtxUHTYQOOzk7EPIfWIH1//0ch5vnlCMvPxKbj6udekQGVbbCkpGJer60ntVhZlIOU53rp4urK+QaUi98Ne9zN/uVJ+Qz0GEVEXoGBDhpUcnaVB9ClLlF/ybKTZXjnaBCTloNJho3YYXZTvT9vwkFz90qDR+x3ESfGYVXofrz1nuPdIzlLSTS0ORUuggryOT1WHNYg8rl4rNxWArMyIOn7+OmMdry16BtYUdLzAs3SUIvyCVqMUysyUYl7Ufj2flTUOgxq6tRUXWp5by0W7huDNaW2z3jl0WZxcdSLK6VYtyADljXF2JPk+QwrykCpuG4bjC3ZHoCRwZtdKOeVEg1HHW2iwqGB5gF12UHIOB1gakCTuuxIqWhp14qKj+u9r6ZkLypnxyJmtJrhqUfjsefd1WjL1EMrg6vi2LX0o1gUetSibAA6G3HkHRNCXohzfZfao/Kx4KqotWluBkscjB2HGJhQf0FdpuGl46r4fmjwwAh1+Sa1kn6uwUUlXb2xkb7E9XhcnbU49JYZM2OnuQ4y9kKjTcOBvEk4kqqz3XiI1mPHyEy8vUbr8XnUU5bzFdj+o1xgZToS3HTP8ah8BniMIiLvwEAHDSo5hezgDjzahIIfxCN0fhI2ffS5muc5yyfHsG7DalGR/a/uFeprH2HT91ZgzrZjqL+u5t2Oa1dQf+pdvPjSD5FdM/A3lGV3x6fhHR2LV9/W4ei6XFS6aExSc0RUGuJ1CJTTvmrHI2JeBo72deHcUoKlk9NxVF5FBURg5dsbgcxUbDLZAxQaRH1zKR4pKEV5tz+MBZW5iVh6MhavHzRga6IWIfaZdwNGIVKficKsKTi6Mc/p94D6WlP3u5qySezoUS674tzSivJSE5I2pNkGORWfMXVxMqaKyz+Lm4Y1lrMVKLoSj+fj+xn4URjw4soSPBCbheIKOajZNsy8nIfFYrmMI7jTsBSNEI+ncRbsFa3n5yBEzeqm04yDb/XS2qM3cmDCBW+IylE+TsgBGUsNeGV8KRYuyHF5bLwtSte81djUtgQ/TbZ3ARiDuXlVMG9xXHfPymdq8ECOR+T7QhHscjRRN6p/g9293dgwF2NHL609eiPHvliYWoXpW4yoUM5/eUi4mIG4lUY0DUb3KodBxiNic9C0cC8OrHIMorjavzwpn34eo4jIazDQQV7uIWi+JH5cC0FkyIO2rD5Y/vxfKK/8WEmVlx9CkKURlYYNWPHORzfzi/a8jYLWJgQ/8TBaqm15yuv/3EeQous62to+R1Pdxyg79i6278jGnO8tUAIxcZv34FDtf2H3j7JxyHWLUK/QctKxRYFIchq2Ha0YP86El152uuBQZi5oRsjZEhx5NB2m01V4c1IJXizso19qw1mUjR536wJirB5vvq1DecoSZJ9WIxQR0Zg50oAPKuwRCwtqdiVj8eFo7NmvBh5cCNTFY26HCZXdBl5vRc3/bcZc7Xh12XPXXDagqcUHH7v+I2qmLMGb+iqsWJSDsn63xAhFyttqAGe0nI1GhzU/z8TMDgP2HfbiLw3RkHEfVLzVpeMWyykjdlyIx3yd64qWnAa7YHQqEqb09x5xMwpeykD5/FwUpomKjdg/Ax/XIilrG9ZgL17KV6enGgxtZuz8XixWnJ2DA0XpiLIHc13yrHzknWfXNH0Ee8m3iWsWp5sCN93nvI9YUP7rPDTFx7tpDSWe/+1+PPKCvt+zr8nxMLKX7UVgxhvYqo9A0M3zXw5mnspA9mE3XVL74+YMMiYc25+M8JIliPhWXzdmPCmf/h2jiMh7MNBB94gR6H2wqlva/vOXWLxhg5qysbNG5l5HWf7mm/nrDtkaGx7dfStPph3/6dRq5PKH2PSDFdDOikeoTN9cAG3CdzHtBxuw9LU92FnyIWpE/TRo3LNISlmNwrcKUPvuZsztZ1fSO0N2CYmHLqcRz67Ze6tLx+lS7MmIx4SRgbh6PB9HG9SXC7ZKhQbjXsjE1vhQccGsQVR0LCzOTV7Nu7Aw03Qzr+Y/3wfitHCcy0kzOR1vZwVj94/2okYGUwIi8Ox8oOiUWoHobEfL5WBs+HkfF/6BQXhEVEquOl54tFXhQ1MEJn+5v3eZbAP2FRlKUC8vdsQ6lBfm27quuLvDFBCMmVn7sec5E5bGp6HgnLurJCfK91eHWc5T0I6eguk6oKzBzcBwRD6tFk1X1IcOmporgKeDnVpttKPMaIAlUVTEXAZCew5C6rEWMz4wAwkznGYoEcepqbM1aDpggnIquU2WanGs1CXjgyl5MP1iOaL6bHbiWfnUXHQR6Lgku+HxbvTw1oxPe3x/WtEsbxSEBnfvytlmwjtycM75OtetoVwMQuqx2lMo6ojAvOecxroYPQkzpohrseOnbONm3A5xfSJbcQaOHoOwyfFYuduIrcFGvLjHVRdZO0/Kpz/HKCLyJgx0kPeoedsWTEhYgTk/WK2mTdheLZ/8GNs32fNksgcf3kal8su3BMVtRuORkp7pF6sRI1/w9GpUuHpepD1xTrcxHn4Kz45tEifgBxEWHorI8GeRlPhdrPxujK0S/1QqTvz2XVTs3IBXFsZhashoaLx1rzpvRPbucXh1byYSJoy5dZdPXBzIOysp2wwwnzEiRfZNVVhQedwIi3YtNsy/1Yw18JExPfqlWtpaUHneHuawtQJJeq7n6H0h+lSkXMrDQaVBiAaRWh0sp87a5twPGIOY9TlIEtdBlnNGbEqItjVB1SViU4lDEOBCg6hw6G4OOipZzBU4NFKHSOfxwjwQNH8bCp8uxWI5GGnEN7C9Q48UndjO3u7UyC4u6UYUL21BdkIydlb3HewI+vIkcUHUipYeV3PXZByOaPh5dDwmi/24pkeQrxX1ZywI+dr47hUxSxU+LAGSnIMRdi4GIfVYZx/78JVrvVSWPGORAeHvFSPyjVIcSPNg4FKPymcMIr8mtre651gBLQ21sIydhEgGOoan8EmYK8do+URdtutsRvUpYO7EcWqGjXIeRSKmR7s+97kahNRjYv/qdf/p6OP5gZCDiorrGcv5ZtdBFE/Kp7/HKCLyKgx0kPdpa0JNXePN1CLqgcogjg238mrqZPDBvbZPbnVHuZmqm2wtDq429XxOJNfdVh7EzHUyCPIOjv3sDRT/bANeeT4Ja+Z81XZyu38EHrhX9qLWZlQ+qcX43gbo0zhc4Ch3d0SlYpUeYY4X5KODu7XUkOT4GBpxUaCUSbUJRRfi8azWxcVSwBiEfdUiLixs3TSUyn+1GQ3d/pi12L18FzRp7ystTsx79WjaOAcvKk1bLaiULS50sZjucPFec8oIzBcX9OpyZe4kLDV62BUkYBSiUvJQYZYtXCpEBSQITSYtJo/vq3WIBpHL83FgBbDje4nYbu+S486TOiSMLcE7pU7rdakCR1xcdBL5vgjELAxG+QFR2XBsQdV4DEWmUCTout85tlSYUAA3xxZBDkJak5SImf0dhFQKslVoio473f21mHHkPQs0+ik9jnv904yi7Fxo1ryBV3SeNvnzrHwin9MjRBwDyxy786kDnYb9s+4215vuWYFTMGM2UHDE1O07bTlZouxHs6c4nuMsKD9uAOKjEeVq91LGxqkd2Ng3Uuh4zBTn9oMnu/U5Fee/E3jvOBCl0w5+wKCzGfXnxJn68WDX6+xR+fTvGEVE3oWBDvIekct6tLBoPFKArcqc7E9j6y+cn5NpmcvR6uvfv9Ud5Wba+mtb0+O6X+NF5+dE6tFtRbpchqXdWpioaVOBrXtDdQGWOj8nUnRCQY+WJnfdmGBEnStFmTjxe6LNVIJDY1OR4DyzwahAcUHSiPpL6rIyjkcLEp62nfCb6s9Ck6y3NS3vtKDtSruaWlEvKiK7TwVj8pfVC/2xWiSt1KH7/VeNEm+xdFyFRVxYaEL1eCU9Aofyc7FzYyIWH5+EN19xnD2lFuWHLZgbPenWXV7389b27pIJ2Usy0NDbSO3d2IIdhcnA7mV9BDsCIpDykyVoXr8E6wxmNIkyaWk0YftLWSifkYk1cf3tdkN074vUr0bMuSx8f6MBleflPlGCTd/PQltKFlKc6hA1VUbAYWalbiwVKHpLHIdmDHAGB7F/Jm3QQ2NIw0KxLuWNopJ0ugTblyRj9xUdXlnqphWJp9SuMZFjgxyOiQ5JOXQ4TX8peFQ+E/RYM6NW5Geg4HQz2i414pA60OnWJFbEhq9RmJm8HCHiO704V1TUL7Wj6fQurFhtxNSM1U4BwVqcfk983yaNcxkUULqxXtFj1tMD3AtGx2OVOI/XZC7C4p0lqDnfjJrjBqwT59uy0CXdWo0ORMt7GXhxdwkqG1uV/ampugQ7U/RY95Hjvuu8f3lWPv05RhGRd2Ggg3xKW424MN1XgA9GfBcrZRcTxzT3aVtfyr972tb9xClFXrL97tH/Vt7Kput6jxYmSmq4YrsDcO1Kz+dEamnzwr4Ij+uxIaUN2Qk6LM0xouy0WE/HC+1uI3LZppgLkXcDnZtXB2kxXWvCkcO1aFEuqNdix5c3IkUd/C9kfi6OrVcvLM4YsHjJtxAdHQ1ttA5zcs5i6mt7sHKC8lIgMBopafGI7HZlFYqUXRuheS8Nusm2AVOnbW5A2I0WXJ2UAdNvMjHTodsKGqtw5IIOz066FSgIGx+LssPHUO/BTAmWK/KCy4jtaxOh1a1FTVweCruN1N4XDaLSDChMtGDnst7H7JDjlBTu0+Pae8sxTZRJ9KIc1E8S5bVziKavJPJ2ckrXg3mIuSJnH5L7hAFXF+ajsMeUk7am4t1mVnJgqSgd4CCktwTGZsJ0cCOiGvKwdFYc4pbloDx4NQrl7BCOx5yBULvGFKTKY2HP9KKLKbMVHpXPGMzdWYw9M1qwY1mcOI4twr42PQoL+hrolHydMqVr0VoEn1yLOF004l6qQliWEW/qnQILlxpQI86XU8Nd9f+0oLzUMLBBSB1Ephhhyl+KwOJMzImNw5z14rs8IwfFfQ7I27fAr+rwSFU+VizQKfvTtGV5qI7IQLGp933Xo/Lx+BhFRN7GT/l/XbXVuoWNG72JVZ1itKurS0mdnZ2oq6vDxIkTlXxv9cemi3jii7+qS566gqO5m7BDGaihp0+bZPeVEQgaF4xH3ITmIr/zCrbqRqPl2GZEv/aRmjswKdtLsKGv3aH1GJZ+7w2UyfE+suIGtcnlH+//GzwR8pi6NPhaThux75clKDtzFjWNDiOdiwuOirx427a0VWB7Sh4e2ZaPJBctGyzV4oLi+2L7L41AVGI6tqbrEXaXLqjbTuZiqXEc3nxNXXepsxXl+TnYceAEyh23EUtw4Jy4qFKXlAu4LXq8eGocZn1Xj6TZOoQNpNm71NmMope3wbIyB0lP8vKH6M5px6G0aOyLPoYDibd3Z5iInFwpwYpoA54tNbi8HiAajs6cOYPw8HAEBATA399fSZKfn61qTXeX3/oaYOsE9a/BQIfXGW6BjqKNSVh3G/GJmJcLeg4kKmda2bEAS0tkt5fNSBjMmVDu4UAHEZFPOW/AwtgKPF+Ri7kDDVQSkUtNhkRMq0iEOTd+YONzEPkgBjq8GwMdXm54BTpcs9S8jTlrfm2bkUMxAjEv/xx74jwcQv76R9g0dzMK8Cw2ZMUjso+OWkFhX0WYp2dxBjqIiIiIiIYdBjq8GwMdXm7YBzr+fAxLl7+BMnwFUSH/hcq6UMRM+QJlp4CEDZuwVdd3sKOtLBvarR+qS31z7rJSuS8J6/7vaNd9MLuuoF6O0/HAaESGuLmFeO1RJG3Z0O+WJAx0EBERERF5JwY6vJs90NHHPW6iO8/ySQlW/OANlF0LQcq/pSHhSzL3YcxasQlbp/wZRdnfx8J3/gttXcrLXbv+X9iR7xDkeCoVxUXvwOwi7ZmrvsbZ9SuodzHQqJL6GIxUSU1eOCApERERERGRj2OLDi81PFt0XEf9sTx8/7VjqEcIkrKy8crTUMfvUMfZeOi/sH3NBuxsuA5N5HexZ30SpvZoMXEdlfvSsNDQBE1MDGLKynBUfaY3Hg1CaseuK0REREREww5bdHg3tuggr9LWUIbsDUmIk0GOB0Kx8tWf4JWnXXQJeeArWLM9F6/oHoSl5h0s/t53sXh3GWpsk6IrLDUFWGdoEo+exivJcbYpZQfSosMTTVfwqfqQiIiIiIiI7j4GOujuay3Di2t+gt2Vn0Mz7tvYs/sNrHnqQfVJFx4IQdK6PTiQ8lUE4nOUH/gJ5mx6BzXXgbb/tA9gKgcuTUXC342w/c5/5mFOwnehdZGWHrK9pF865cSkwp8/s/0kIiIiIiIir8BAB919Y2KwISUGCS+/gYqfLUOMJ4N3+j+IqIXZMP8iG2umfAUbVn0XkSOAq1c/F0+OQGRiNt50nJ0l/Nt4PTsbhS7SBp36mj5dQsFL8QidJdL/eQPlMuvvHnI9WCkRERERERHdFRyjw0txelm7K93H6OgzCHIdTXWX8Uj4o2oA4r+QPeuH2K087p0nY3TUvJOCOfmXxKMRCBr3NJ7/fhpWRvbS+mQAOEYHEREREZF34hgd3o3Ty3o5BjoGixro6GXQ0Mp9C7DQcL1/g5EOIQY6iIiIiIi8EwMd3o2DkdIw8RVsOFKCxl5mRol6/l00itd4Q5CDiIiIiIiIbg8DHTSo/P380Mlo5oDJspNlSERERERERAPDQAcNKs399+Eav1YDJstOliERERERERENDGukNKgefGgk2u+7X12i/pJlJ8uQiIiIiIiIBoaBDhpUox4cia777kObP1sl9JcsM1l2sgyJiIiIiIhoYBjooEE3ZszDuHLfCAY7+kGWlSwzWXZEREREREQ0cAx00KAbcf99eOzvxuAzzQO4dP8D+NwvgAOUuiDLRJaNLCNZVrLMZNkRERERERHRwNlqn+uqrdYtnFvTm1itVuVnV1eXkjo7O1FXV4eJEycq+feK9s878PlnHbB8cQNd6jaRjZxdRQ48KsfkYHcVIiIiIiLvd+bMGYSHhyMgIAD+/v5Kkvx4Y9cr+K2vAbZOUP8aDHR4HV8JdBAREREREfkKBjq8mz3Qwa4rREREREREROQzGOggIiIiIiIiIp/BQAcRERERERER+QwGOoiIiIiIiIjIZzDQQUREREREREQ+g4EOIiIiIiIiIvIZDHQQERERERERkc9goIOIiIiIiIiIfAYDHURERERERETkM/yU/9dVW61bIpWH5B2sVqvys6urS0mdnZ2oq6vDxIkTlfw77Y9NF9VHREREREREvuWJkMfUR707c+YMwsPDERAQAH9/fyVJfn62qjXdXX7ra4CtE9S/BgMdXsfbAh1ERERERETDHQMd3s0e6GDXFSIiIiIiIiLyGQx0EBEREREREZHPYKCDiIiIiIiIiHwGAx1ERERERERE5DMY6CAiIiIiIiIin8FABxERERERERH5DAY6iIiIiIiIiMhnMNBBRERERERERD6DgQ4iIiIiIiIi8hkMdBARERERERGRz2Cgg4iIiIiIiIh8BgMdREREREREROQzGOggIiIiIiIiIp/BQAcRERERERER+QwGOoiIiIiIiIjIZ/gp/6+rtlq3RCoPyTtYrVblZ1dXl5I6OztRV1eHiRMnKvn3ivbPO9DecQ3Xr38Bq9gOusXP3x8jRtyPUSMfwKgHR6q5RERERETkrc6cOYPw8HAEBATAX1zPyyT5+dmq1nR3+a2vAbZO8GOLDhoS17+4geY/t+IvHddwTVTiux4LgjXkMSaHJMtElo0sI1lWssyGXGcrynenY/GsaIQ+OV5JETo9Nh1vV1/QXc3OOPEaPQoa1QwnLcZU5T2m7axVc9yxoDxzkvLa7NNqFlpRlGJbh5tJq8PCtfkob1FfojAjWzy31NiqLjtz8T5qcvc7lTmuX38rpaLokvpiu+pdmCaem+OuMKRLFdi9Nhlx0fb3mYToeVkoa1Ofd7ctnc0oShXlMysHlR1qXh9aTFmIyzGrS07Om5CdqkOEXAdRpkt3VqClU32OyNu0mVGwNhFaZZ+JxsLNRtTf3A/c79+25GJfVdXsEsevtBLc3P1UlnMGLE01otthRmU5V4LslfG2dZHHI7EuNc5v4EpnOyoN6Vio7vvahCwUnbOoTzoYyL7Za/moPP18Gn56+85dMmKp8r1yk1Jc7ydALXZOH48VJT2vHXo7N7WcyseLi9R1iY7HCk++/+K7XWPMwkKd7RrC9e/J1+Rghf3aRrmWMKDSk33Xk33Sk32QiLwOAx006GSF/b8//QuuywBH0MPAyAfEN41ftR5kmYiykWUky0ops6EMdljM2LkgFovfasGzq95AYX6+kl59fhzQ4eKC2FKBordCMXN2I3Yf7j2Q0fSWEWW9nfQvleCtAjcX3bPX3lyXwqxkBJ97A4tjU3HITeXFLcf3UdOqKaPUJ7uLWlUBc4U95SFJ5E3NMDrkbcO8INtrbSwo/3Uexs2ORf2eUtS4uDCzmHdhzqxk7GidglWv2dchEy88Ka6Rer0gsqByeyrWfaLHnoJ0RPXVuEcGq3IToUsxoF7N6uaCuHCdl4bKiCwUmypw4u1kaPYlQ5dpEp9E5GU6zMhOSETBffHYU1qBiiMZiKoSFaUl4vut7GdjMO81x/3VnkzYkzwG0MVi+qPKO3XXWYuyX7YgKSEWgWqWrcKUgTnxWShzdahtNGBpQjrKApNRKPadinezMPUPWZiTkIvKXnceuQ8vwsJ9Gsz7+TGYTSX48aQqbIpP7h4kHsi+2Wf5SB5+Pg0/fX3nguLxeo99S6STeUgRu1fM7Gnodiq0qzah6Eoino91OMf2cW6ynMxC7PNvoHnKNhwTn3Hi54n4UrFYl5UlboIpNi3Fa8V3uw2zNhtRIfb7Y1ti0fKW837TgPKTQZj9E9t5/MQv0hB1bhsW9rXverJPerQPEpH3kl1XyKt0dXUp6caNG9br169b//rXv1o//vhj9Vnv1nSpxdrQ/rm1QTxm6kcSZSbLbqhc/e1a6xPhq60HL6sZfbh2ItP6xHcKrXUfvWr9ylOvWk/fUJ9w8OmB5dYnlq21psVEWPWFTWpuT9U7Yq1PrF5tTQ2PsP7bR2qmtcX6zrII6xOvVqnLqs9PWP/1qQirbsdZNaPK+m/i95IPuCsbN+/jsb7eX7gm1il8kXVfg3jtU1qHbbBrsx55SazD6mLrVTXHtZ6f9SdRhl95arn1nWY1oxefHsu06p8Rn/PMEmvid1xt8zXrhz/W9liPa+JvqJPr/4maQeQl/lS4yPpETJ612vH4cvGANTlca/3X311TM1y4fMya9lSsdccZddnJtd9lWr/i8L7Xzu6xJn9d7BtPLbAm/rM4Hi07YP3U9tRN1Xki/9t7rHWO63K52HbcKleXXfmk0KoPd14X23HpKz8+JfZKaWD7pkfl49Hn0/Az8POBvF5w3H+6s73vrXO0J+cm9Ry57kT37+OZPLEuS3o9/31adcJa97m6oLr27xvF9cxy60HnndhRQ6E1vts1hzPPymfAxyjyabJOJutmso4m62r2eht5BxnbkCEO3manQSXH5LghWyo8xDEn+k2UmSw7WYZD4dMLZ8X/YxE82rbcu3YcNRoQNV+HMG0ckrAfB0+5uy0Sje++oEXlW79x2dLB1jKkBUnR0e7vWjoaGY3p84GmqrO93uW5k9pKjSjQxiMmVItZiUDBbyuctqUFTUrxBt+6e+wBy+kcLFvfjKS3c5EwVs3sRdO5swh+IR8VH+ZjzdNqpiNR1kcKLEjSO9zFFjTibzhzpBlHKprVHCJv0IiyA2ZELo1FZICaJT06DbN0FhSY3HTNEmoM23Bo2mokTVAzuhHHryIDIl/41s33bftDLRCfiWKTEa8vDLVluvJQIDSO6zIyEI9AA9yvLrtQL96zcsISzOy2LmMwfbYOloITqJTHxQHtm56Vj0efT8PPQM8HnbUoyClBzJrE7t87uyul2FcQgZT4CDXDg3OTXaBG7k23jBwl1k3kuPocVZBWXIc4XVJqvqzFVPHzWm/f7cfHKa+xfO7mysOj8hn4MYqI7j4GOmhQyYFHuziw5oDJspNlOBRCIqaIy4n92FHkQWX3ygkcPhyBeVOCxQWIWrkvda7c3xI2OxEzL+ShyEUwpK3UgILRqUiY1u3yphfiQsjTl94R7SgrLUXknCkIEUtR/7RIFgbKu23qWEQ+J1baIMrgvJrVlwtGrFi2H8Fb8rBhsmcbHLXSgNdTohHk7qKwsRZliEbkOKf3CwhGmLj4LP/E3TgnRHdBWwNOVwNTw50DD2MQ9qT40dDsOth5pQQ7cp26pTg6X4x9h2Px/Gxx/FIFzc/BnvR4RLr8BZvIeasR83EWNhXUok0JTjSjLCcHRTM2Iklre01P7WioqgW+Ng5hao5d0D/I7WpEk9wIj/bNVhxKnQTt+lLbuCIelY+Hn0/DzwDPB22H87DduVuKg6bDBhwV5/x5j6sZQp/nJoxCzPPLEZafiU3H1c+9IgMq22BJScU8V93PenOpAZXixwO9BEhwvgHl0CLscfv2O+1fnpTPQI9RROQVGOigQSVnV8EDI9Ql6jdRdkoZDgHNc2tRuDIU5RvnIDp1F8ovuAtbqBcyE/SYqp7bI5/TQ2Mw4ugV23IPo0WlIknU/4vUCwg7eWdoRymiHO6s9kn8TuUxIORr4133Db7TlEpTBBKeUwtjwjQkjDTgnVLHQdg0mLomHysfr8C6ebbBzJrcF6+4eDqB7GUZaE7Mx5v6W5Wx29ZxFU1iXXrugupF2bkGXpSR9+hoE8cLDTQPqMsOQsbpAFOD+D73pByftGuRIoOLLtSU7EXl7FjEeNR6zcGj8djz7mq0ZeqhjRiP0IlxWPpRLApf0yPE7fHLgqvioKcZ6WJdxo5DDEyovyAeD2Tf9Kh8PPx8Gn4GdD5oxsF94pydvgRTXe1e4vx86C0zZsZOcx1k7IVGm4YDeZNwJFWnDiqqx46RmXh7jVasZX9YUFa8H5bZ8Yhxc5FgOV+B7T/KBVamI8EhINONJ+UzwGMUEXkHBjpoUClTyA5o4FELzp+uxWc9miG24/jLOqQmZ+B36p3y6ydzxHI6dpU04roty63zhlRsEJXOy4PddPdUDr4hTtTzFxng6Q18j4iyU8pwSGgQlWaEKT8VkWfzsHj6FMzZ6GpGgWaUvWdG5Len3LxDqHk6VlTuS3H4pOvZWeR7T/12KkJEBeSgQ4FYThmx41IiVs33rDJvaalF0ca12H5FhzXzbjWL9cjuRNvF083kfjaG/mg6WYJKh6CPuFrDLL0GR0tPdA/qjNRizbulKHxhPGreSsY0cRG3zqjeGXZSnpuF3Y3RSPpufy/wPBGKYK+IEBF5Ihoh/bmba69oPT9HaWHVQ6cZB2VXOXetPXojByZc8IaoHOXjhByQsdSAV8aXYuGCvmdDmhrsyTGur31zDObmVcG8xXHdPSsfzz6fhp9+ng+qf4Pd5u6toboxF2NHL609eiO7ai5MrcL0LXJQUTmoZx4SLmYgbqURTR5fo1lQX5CGFe9FY2t6fPd93GEGmYjYHDQt3IsDqxzPsa72L0/Kp5/HKCLyGgx0kBew4GyuHssW6ZG2sRQXHU94l47h/ZJW/OnxWDyjROXb8XvjftSfbMPfTwpFb21HLpuy8OPNJvz+rRwcPmNRToKbZ+mRusB9WvZyCS6rv98rtb/2Z18dB3c3C7xV0HPLsecDE47lpSKwNANzYtNwyPGOX6280AnGrKcdmmraK/f7it3fvZiQiDWzzdhdYp+hxdZP/pEX9IjprTeTQ4Ai4jk9Np2dhK1FuZjb3wuLHrOupGJqf+/o9mCrVIXMnOTQLFyDqBl6aJyCOoqAMZi6Mg8VphLseSEQR9broRPfKeeLuKkb8rB1hhmblns+naznrqPNXWuS+wY/rEJ0e1pgcbcPuGiloARPL8Rjvs51RctyqsTWVW5Kf7/rzSh4KQPl83NRmCYqNqNHIfBxLZKytmEN9uKl/N5nnpJ3fl3TOIz5MZB907Py8ezzafjpz3fONrtYU3y8m9ZQ4vnf7lfO6S5be/TGUoHsZXsRmPEGtuojECT2r6BQHdb8PAczT2Ug+7C7mygOOptxSJxT4wqD8OrBvJ7jWt2cQUZc3+xPRnjJEkR8KwNHe23R5En59O8YRUTeg4EO8gIajF+Vhw2zR+G8MQ0bt5vVlhoWnN23C7/HGIxHFQpzc5GfuRa7SsRZKSIQlw6IZZkn0sHTjidJC84b0rA0Rba2CMV33jZgsdZ2MrreWIv6avfpvNsznhsB9+hJLmAUwmYsR+EHBqSMLsWLOSU3WyfUHDeiSVz0b5/n2DpiEhbL6WHNJShz24RlFGYmJOLTt4y28SuULh/abgOWuWQPUOwvQUVFFWoPZiLhyQGU69hJmPpctEPSIuR2/zxyCj1xkdS0Xe9QFuMRkWwQ3zIzDp50M95JYChiVuajYv8SPHI4vedFXMA4JLyWjxRRgVr8cn/uZnmiGZ/26GLUimY5zWRosHd0ByK6qRZNLrrENTVXAE8HO7XaaEeZUex7iaIi5rK5Rs9BSD3WYsYHZiBhRrTDHWAhIAJTZ2vQdMCEGjXLlZqLLgINl5pR3u1u8ED2Tc/Kx7PPp+GnH9+5NhPekYNzzte5bg3lYhBSj9WeQlFHBObZu4DajZ6EGVOAo8dPdW8h6exCKdZ9Kw47kIxj72Zirqs7TOJ6LFAGKEePQdjkeKzcbcTWYCNe3ON+fDHPyqc/xygi8iYMdJB3CAjGjNeMWKMDLp4sgVl2HG00Im+3rEi2wmzYhcKdIhWYcFG+vrbEtqymik/U01hbLQ6v12PZ5lJ8hlDM270Xy+0DPT6qR/a5s3i/t7Rbj4dtr1ZcPpzhsuVH6o+MthcYN7p+fkEGfncvDIYwUoukpdHA4bO2ee+VZt/NiNks/gbKnRHHlI+VYx1bbPSkmaLHqtEG7CttVfvJdx+wzCV7gGJyKIJGe1fgqPK3eWjSbVTm/Hcuj8KVwe5nmlFpJiciRV7EnW1QcxyIst/wdiamnupv091ehE/CXNkn/xN12a6zGdWngLkTx6kZRF7g0fGYPFZU0hucA4atqD9j6TlOj6UKH5YASc7BCDsXg5B6rLOPIPeVa24qS2MQ+TXxedU9++q3NNTCIo5vkTLQMJB906Py8fDzafjp53fOYq7AISRierTr87CrQUg9JvavXvewjl6ev1SCFQvS8eniEhRv0feYgcUtOajok2K7zje7DqJ4Uj79PUYRkVdhoIO8hzgpzd5yDL94dyOeCTQj//tZkDN2IsVwMxBRtEWnvPQ7+7sHKLL1Y5R8WBpQdbhRGRzzByVG/CC4AebbGaeho8Vly4/6RvUO/ZVG189Xt6B9UO/SDxULmv9gBsZ+Sak4KM2+O3SYNSNUvTPimKIx65+DbXc23W1bQATmvqDF0X1rkT3QfvLewlKBgwYLYmbHIaxHWYzC1Dg9Qi4YUdZbi3bLBdR8DIR8yU0AZ6web769BCHHM7Bsu7n3C0FPBE7BjNlAwRFTt/eynBR/V8Rj9pT+96smGjoRiFkYjHJxTKl3PKY0HkORKRQJuu53ji0VJuV7/KzaQs+ZDK7WJCVi5kC6rAXZKjRFx53u/lrMOPKeBRr9FESqWc7kYM0hp8SxQN4FtutsxJF3TAj7Z53t9wa0b3pWPh59Pg0//frOWVB+3ADERyPK1e6ljI1TO/Bzeuh4zEQtDp50/JIKl07gveNAlE7rJmAg1uutDJTNzsWbSaGuA5zudDaj/hygedzNtO8elU//jlFE5F0Y6CDvEhSMh9GM323eiEL7+fAjw80uKoWltsyaX97qtpJf6hBpD4pH6tt5yCvNxbxxLTicnYwf6vT4lakU2122vHCRdvecF/2ZLaZugZX39y+xPeEQhLElk9IqxRtV7kzEi1sMOHSyAuVKMqFoSzKWFgAxaXpxMaw2C9fFYrqbO4CRsUsQ6WYaWbsQOdWsWbz/owPpJ+9ey7lT6nrfSpWOM8dcqOrxfLm5udsFTH+0HTfagj7PqUE0ZxGxSJnQjB2/lhUjM3YmpCPbUHLrs8XvZy9JFRdMvQ+sqpmcjre36NC0OxkrjM53jfprFGYmL0eIIQ2Lc8WF2aV2NJ3ehRWrjZiasXpgFUCiIRSpX42Yc1n4/kYDKs+3o6WxBJu+n4W2lCykOO02NVVGYIIW41zVWiwVKHqrBQkzBjjAb0AEkjbI2aXSsFCsS3mjqCSdLsH2JcnYfUWHV5a6aUUiTdBjzYxasd4ZKDjdjLZLjTiUvRqb2pZga5J9IzzZN52mvxQ8Kh+PPp+Gn/6cD2px+j3xfZs0zmVQQBkb54oes54e4Dl9dDxWpUegJnMRFu8sQc35ZtQcN2DdkgyUhS7BBrcDltfiQ6MFUeOCYLnSjjbnpI6d0fJeBl7cXYLKxlYlv6m6BDtT9Fj3keO+67x/eVY+/TlGEZF3YaCDvNADGKG5jsdn6GwDQJpvdVM5eNxWETx78Fa3lcKq7nPBPzxZ/F6gBWe3p2K7CXgsOR3znmzDX1y2vHCRPBqN9B6ksaDhRC5eTE7GYplWbkRBsxavHjRhz3xRmb9yAu+VADGzp7lvihk6BQkTLCg63kvrg9GxeCElGDNXJfa/n3wvavLTbevtkHacchj74vC2Hs8v3lHRe79ft9pRdkQURi9BH1EYmPrtCFiMpagUhaG50YCy3FvruHSzAU2TMlFsyutzYNUQfS4KU8aibH0qsk8PNDRjo0zhV7QWwSfXIk4XjbiXqhCWZRzcaWyJBouc0vVgHmKu5GFxbDSiFxlwdWE+CntMOWlrKo6vjXMYGPgWS0XpAAchvSUwNhOmgxsR1ZCHpbPiELcsB+XBq1EoZ4dwHviwmzGYu7MYe2a0YMeyOGh1i7CvTY/CgnREOTSzH9C+6VH5ePb5NPx4/J271ICaDmBquNMYGgoLykttA4v3exBSB5Epcta3pQgszsSc2DjMWS++yzNyUFzU+/dUDgRaLqd8jo7umXbYbkwFflWHR6rysWKBTsmftiwP1REZyvm3t33Xo/Lx+BhFRN7GT/l/XbXVuoWNG72J1WpVfnZ1dSmps7MTdXV1mDhxopLvrf7YdBHWkMfUJQ+Z85H6Y1GpvGk8vvfzTPxjpxEbpmfg97LVRLpWeeayUVzIrjcpXVeWT1ayXLpYlIplG024Dj2yzZl4xt1J9HQOvrFor61lhvoZjuyfJ1t03OweI7n9vVYcTtFhu0mHNeIEO3sAfaP9RBk+0d8yJCIattpxKC0a+6KP4UAiA3pEg+pKCVZEG/BsqQFJ99o0c0RD5MyZMwgPD0dAQAD8/f2VJPn52arWdHf5ra8Btk7wY4sOuvs6ncfBaBGXrYK9NUB/uq50tuPsrkQ1yCGNwkO8o0VE5LtuZxBSIurVbQ1CSkR0F7FFh5caVi06HJzNGY/Vu9XWEDBigy4Dv1efc8uhVcX5gkQsyzQDoyMQNrIW9ReW4I1z6RivPOuChy06Rjwagb93HKqho9k2IOnoUISN7d548XJjLS53sEUHEREREZGvYYsO78YWHXTvkEEIdbBPl7OuOAQoHk9Iw3e0y/GT0ix8Xc0bDNcvObY4EamXWVcuq4NjERERERER0Z3HQAf5Fk00lhelQRtowWcX1LxB4AuzrhAREREREQ0HDHSQ9+trjA6RDp52mH1jED0cvw3vVVRgs5yVxCNjMHu3DHgMrNsKERERERER3R4GOsh7tJjw78flg0b86ROHKTb7ml5WpArH1w8mzSg8NHoURgziNKlEREREREQ0dBjooLuvsx31xgykxqbiYKMGI0Y241epaTjYOg2bax27hbhJtVXYMEOD653q+/XD9atD0xKEiIiIiIiI7g4GOujuay7GG+uNqO8IxezcYvz2N5l4Bib8bIEO34wYj29ExyN1gd4hxWP+kyLfniImYX50Lsw31Pfri6UCP9PafvebqUYlK+yxQOUnERERERER3dsY6KC77/E5SNDH4gclRqyZHQyM1SPbZMSGlfHQTojAwxbnmU0a8Zn6q8r0ruI1YfO0COs+y6t7Gi2+rre/eBQej12LH+pD1eV+utCMy+pDIiIiIiIiuvtsk/2uq7Zat0QqD8k7WK1W5WdXV5eSOjs7UVdXh4kTJyr53uqPTRdhDXlMXaKB8BNl+ATLkIiIiIjI65w5cwbh4eEICAiAv7+/kiQ/P1vVmu4uv/U1wNYJfmzRQUREREREREQ+g4EOIiIiIiIiIvIZDHTQoPKTTbe6utQl6jdRdkoZEhERERER0YCwRkWDasSI+4Fr19Ul6jdRdkoZEhERERER0YAw0EGDatTIB+D/eYe6RP0ly06WIREREREREQ0MAx00qEY9OBL3ya4rnzHY0W+izGTZyTIkIiIiIiKigWGggwbdIw//LfyvtjPY0R+irGSZybIjIiIiIiKigWOggwbdiPvvw/9+5H9hxOei8t5yGei4xgFKXZFlIspGlpEsK6XMRNkRERERERHRwPkp/6+rtlq3RCoPyTtYrVblZ5eoDMvU2dmJuro6TJw4Ucm/V7SLCny7qMxfv/4FrAx2dCNnV5EDj8oxOdhdhYiIiIjI+505cwbh4eEICAiAv7iel0ny87NVrenu8ltfA2ydoP41GOjwOr4S6CAiIiIiIvIVDHR4N3ugg11XiIiIiIiIiMhnMNBBRERERERERD6DgQ4iIiIiIiIi8hkMdBARERERERGRz2Cgg4iIiIiIiIh8BgMdREREREREROQzGOggIiIiIiIiIp/BQAcRERERERER+QwGOoiIiIiIiIjIZ/gp/6+rtlq3RCoPyTtYrVblZ1dXl5I6OztRV1eHiRMnKvl32h+bLqqPiIiIiIiIfMsTIY+pj3p35swZhIeHIyAgAP7+/kqS/PxsVWu6u/zW1wBbJ6h/DQY6vI63BTqIiIiIiIiGOwY6vJs90MGuK0RERERERETkMxjoICIiIiIiIiKfwUAHEREREREREfkMBjqIiIiIiIiIyGcw0EFEREREREREPoOBDiIiIiIiIiLyGQx0EBEREREREZHPYKCDiIiIiIiIiHwGAx1ERERERERE5DMY6CAiIiIiIiIin8FABxERERERERH5DAY6iIiIiIiIiMhnMNBBRERERERERD6DgQ4iIiIiIiIi8hl+yv/rqq3WLZHKQ/IOVqtV+dnV1aWkzs5O1NXVYeLEiUr+vaL98w60f3YN17/4QmxTl5p77/Lz88eI++/HqIcewKgHR6q5REREREQ0HJw5cwbh4eEICAiAv7+/kiQ/P1vVmu4uv/U1wNYJ6l+DgQ6vc68HOq5/cQOftv4PbtzwR9cNGRAYITbKBxoQ+clgzXX439eB++7rwiNj/hYj7r/P9hwREREREfk0Bjq8mz3Qwa4rNOhkkOO///wXXLeMRNcXDwPWB3wjyCHJ7RDbI7dLbp+ynWJ77xmdrSjfnY7Fs6IR+uR4JUXo9Nh0vF19QXc1O+PEa/QoaFQznLQYU5X3mLazVs1xx4LyzEnKa7NPq1loRVGKbR1uJq0OC9fmo7xFfYnCjGzx3FJjq7rszMX7qMnd71TmuH79rZSKokvqi+2qd2GaeG6Ou8KQLlVg99pkxEXb32cSoudloaxNfd7dtnQ2oyhVlM+sHFR2qHl9aDFlIS7HrC650dGIglQX20LkTdrMKFibCK2yz0Rj4WYj6m/uB+73b1ty//2u2SWOX2kluLn7qSznDFiaakS3w4zKcq4E2Svjbesij0diXWqc38CVznZUGtKxUN33tQlZKDpnUZ90cN6E7FQdItT3X7qzAi2d6nPu9Fo+Kk8/n4af3r5zl4xYqnyv3KQU1/sJUIud08djRYnt2qGt1ohNi9TPEN/RuJW7nM7jTvp7bvJkHxCajudgqc52rRGhS8XOU+6uGxx4sk96+PlE5F0Y6KBBJ1tydN0YBXT5eNcOsX1yO+X23hMsZuxcEIvFb7Xg2VVvoDA/X0mvPj9OXHS4uCC2VKDorVDMnN2I3Yd7D2Q0vWVEWW8n/UsleKvAzUX37LU316UwKxnB597A4thUHOpv5dzxfdS0aor4HroQtaoC5gp7ykOSyJuaYXTI24Z5QbbX2lhQ/us8jJsdi/o9pahxUTGxmHdhzqxk7GidglWv2dchEy88Ka6Rer0gsqByeyrWfaLHnoJ0RPW128hgVW4idCkG1KtZrsgLz3UL4rHpuJpB5I06zMhOSETBffHYU1qBiiMZiKrKQtwS8f1W9rMxmPea4/5qTybsSR4D6GIx/VHlnbrrrEXZL1uQlBCLQDVLBgNqjBmYE5+FMlfx6UYDliakoywwGYUmsS7vZmHqH7IwJyEXlb3GDOQ+vAgL92kw7+fHYDaV4MeTqrApPrl7kPiCqFTOS0NlRBaKxfufeDsZmn3J0GWaxDu40Wf5SB5+Pg0/fX3nguLxeo99S6STeUgRu1fM7Gnodiq0qzah6Eoino8V59iWEry4yICr/2T7jIoj2zDzcp44j4v9zMW5r9/nJo/2AXEdYkxF3MtmRG42oqLiGAqf1+Ct52OxydTLzuvJPunh5xORt5JdV8irdHV1KenGjRvW69evW//6179aP/74Y/VZ79X22efWP/7pL9aGBuuwSXJ75XZ7u6u/XWt9Iny19eBlNaMP105kWp/4TqG17qNXrV956lXr6RvqEw4+PbDc+sSytda0mAirvrBJze2pekes9YnVq62p4RHWf/tIzbS2WN9ZFmF94tUqdVn1+Qnrvz4VYdXtOKtmVFn/Tfxe8oEWddmZm/fxWF/vL1wT6xS+yLqvQbz2Ka3DNti1WY+8JNZhdbH1qprjWs/P+pMow688tdz6TrOa0YtPj2Va9c+Iz3lmiTXxO262+dpZ61vLv279SrjWGr9kkVUXLt77ovockZf5U+Ei6xMxedZqx+PLxQPWZPH9/dffXVMzXLh8zJr2VKx1xxl12cm132Vav+LwvtfO7rEmf11rfeKpBdbEfxbHo2UHrJ/anrqpOk/kf3uPtc5xXS4X245b5eqyK58UWvXhzutiOy595cenrLatuGb98Mfi852OEdfE8VUnjy2fqBlOPCofjz6fhp+Bfeckeb3guP90Z3vfm+foT6usH/zB6VsmzuP/Is91v3Y4rw7w3OTRPnDtlHLdkFrcZltWXLOeflXs0+I65k9qTneelc+Aj1Hk02SdTNbNZB1N1tXs9TbyDjK2IUMcbNFBg0oOPGobk2P4kNsrt9vbfXrhrPh/LIJH25Z7146jRgOi5usQpo1DEvbj4Cl3d0Wi8d0XtKh86zcuWzrYWoa0ICk62v1dS0cjozF9PtBUddZNk9k7r63UiAJtPGJCtZiVCBT8tsJpW1rQpBRv8K27xx6wnM7BsvXNSHo7Fwlj1cxeNJ07i+AX8lHxYT7WPK1mOrvSgGrE49WDJhRv0WOcmk3kfRpRdsCMyKWxiAxQs6RHp2GWzoICk/uuWTWGbTg0bTWSJqgZ3YjjV5EBkS986+b7tv2hFojPRLHJiNcXhtoyXXkoEBrHdRkZiEegAe5Xl12oF+9ZOWEJZnZblzGYPlsHS8EJVMrjojgOHimwIEnv0MJE0Ijj68yRZhypaFZzHHlWPh59Pg0/A/rOCZ21KMgpQcyaxO7fO7srpdhXEIGU+AjbcpAWMU+KfcTRyFBETRE/Hb97Azo3ebYPWCpKUdCRiO/KFiY3aRD1T9+AxlyK8gtqliOPymfgxygiuvsY6KBBJWdXUQYeHVZGqNvt3UIipojT/n7sKHJzcePoygkcPhyBeVOCgQC1cl/qXLm/JWx2ImZeyEORi2BIW6kBBaNTkTDN6ULILQ00nr70jmhHWWkpIudMQYhYivqnRbIwUN5tU8ci8jmx0gZRBufVrL5cMGLFsv0I3pKHDZM92+ColQa8nhKNIFcXn3aPxuP1vHTMjXDdbYfIa7Q14HQ1MDXcOfAwBmFPih8Nza6DnVdKsCPXqVuKo/PF2Hc4Fs/PFscvVdD8HOxJj0dkL5HIyHmrEfNxFjYV1KJNCU40oywnB0UzNiJJa3tNT+1oqKoFvjYOYWqOXdA/yO1qRJPciMZalCEakeOc9vWAYIQ9DZR/IscSaMWh1EnQri+1jSviUfl4+Pk0/Hj0neup7XAettu7pbjQdNiAo+KcP+9xNcOVzlbUfyx+dgsODODc5OExor7WBEyJgPOmYuw4TEUF6pWusE77lyflM9BjFBF5BQY6aFApU8j6ysCjnhLbey9Mnat5bi0KV4aifOMcRKfuQvkF9+0rlAuZCXpMVc/tkc/poTEYcfSKbbmH0aJSkSTq/0XqBYSdvDO0oxRRDndW+yR+p/IYEPK18a77Bt9pSqUpAgnPqYUxYRoSRhrwTqnjAK4aTF2Tj5WPV2DdPNtgZk3ui1dcPJ1A9rIMNCfm4039rcoY0bDS0SaOFxpoHlCXHYSM0wGmBjSpy46U45N2LVJkcNGFmpK9qJwdixiPWq85EBWxPe+uRlumHtqI8QidGIelH8Wi8DU9Qtwevyy4Kg56mpEu1kVUsmJgQr28m9xxVWyLBg/0uA+gVpjONfSsMHlUPh5+Pg0/A/nOoRkH94lzdvoSTHW1e4nz86G3zJgZO63X1ouWkyUo6IjF/Glj1JwB8vAYYbnaDIh9oMfLHrUFAOtdBXU8KZ8BHqOIyDsw0EFepha/eikR2ftKcH6AvUGu/7kW51tttczrbc2oP2VE/rZELNuwC/Xe38NkCGkQlWaEKT8VkWfzsHj6FMzZ6GpGgWaUvWdG5Len3LxDqHk6VlTuS3H4pOvZWZSK/rdTESIqIAcdWjRYRNnvuJSIVfM9q8xbWmpRtHEttl/RYc08tVmsp3Yn2kaJv5kGZ7aRJnHBVukQ9IFGi1l6DY6Wnuge1BmpxZp3S1H4wnjUvJWMadF6rDOqd4adlOdmYXdjNJK+qxUlRzScRSPE1WCi7tgrWs/PUVpY9dBpxkHZVc5da4/eyIEJF7wBrMzHCTkgY6kBr4wvxcIFfc+GNDXYk2NcKIJ7jd6Owdy8Kpi3OK67Z+Xj2efT8NPXd85J9W+w29y9NVQ35mLs6KW1hyRnNVqx2oipW9Zibn+DjS55eIwIDe7j5oir/cuT8unnMYqIvAYDHeRd/rsK/1FrxvEqUYUcYcavfqBHah9pu6l7pH5EazGWfW8SvjFrPL6ZEIfUzRko/HczztcXY8/7BuU9f7gtB/n7cruln/1YvF92CS6q7+Orgp5bjj0fmHAsLxWBpRmYE5uGQ453/GrlhU4wZj3t0FTTXrnfV+z+7sWERKyZbcbuEvsMLbZ+8o+8oEdMb8O2OAQoIp7TY9PZSdhalIu5/b2w6DHrSiqm3vZFlq1SFTJzkkOzcA2iZuihcQrqKALGYOrKPFSYSrDnhUAcWa+H7uUSNDkFO6ZuyMPWGWZsWu75dLJEvqkFFnf7gItWCkrw9EI85utcV7Qsp0psXeWm9DeE2IyClzJQPj8XhWmiYjN6FAIf1yIpaxvWYC9eyu995il559c1jcOYH9fR5q6l133u1tez8vHs82n46c93zja7WFN8vJvWUOL53+5XzukuW3sITSVyViNx3s8S11uD1lrRw2OE2AfcNqR0uw94Uj79O0YRkfdgoIO8ysXKEsgxHcf/kw6Pi2/n5bpa1PeRRox0c2chIh6LV+XgJ9tLUHSgCu8XlSA7frzynuZ/34tCw65u6eCH4v06LMPjDnvAKITNWI7CDwxIGV2KF3NKbrZOqDluRJO46N8+z7F1xCQsltPDmktQ5nYMilGYmZCIT98y2savULp8aG8NWOaOPUCxvwQVFVWoPZiJBOeBzTwxdhKmPhftkLQIud0/ppxC74K4eNuudyiL8YhINogLKjMOnnQz3klgKGJW5qNi/xI8cjgd2YedWsIEjEPCa/lIERWoxS+L8uZggTRs1aLJRZe4puYK4Olgp1Yb7Sgzin0vUVTEXDbX6DkIqcdazPjADCTMiO5+DgiIwNTZGjQdMKFGzXKl5qKLQMOlZpR3uxvcjE97bGsrmuUUsG7vRntWPp59Pg0//fjOtZnwjhycc77OdWso50FIHXU24+j6eEzbAaSUGLE1fjBbGHl4jGhu6d7KUmppVqZhDwtx14XGk/LpzzGKiLwJAx3kPbpqcfxXcgTrWMzXOZ4kl+CNI2fxvlMqelmnPDvib5xqs2PGQRk3LjIRyfHx0EaG4uER7bBNjKLFcvn7v83Hd+RiTC7eU97PYFsebkZqkbQ0Gjh8VrkYsDX7bkbM5pJb8+nfTPlYOdaxxUZPmil6rBptwL7SVrWffB8Dlkn2AMXkUASN9q4wU+Vv89Ck24hjPcqiAoUrg93PNKPSTE5EyhTg6NkGNceBKPsNb2di6qkMxK1ksIOGoUfHY/JYUUlvcA4YtqL+jKXnOD2WKnxYAiQ5ByPsXAxC6rFOt/eCba5cc3O3eAwivyY+r7pnX/2WhlpYxPEtUgYawidhrhwv4xPbczeJCmL1KWDuRBdzUHhUPh5+Pg0//fzOWcwVOIRETI92fR52PwhpKw69rMeLVxJx7N0B3qhwx8NjRNjEeGW8jHrn8+ifzqIc8Zgcri478qR8+nuMIiKvwkAHeY3PTHnI/zPw2MJk/GO/O1c7CHCa96XJgNVzdUgrMuO6moUGM34nfoSNH4eHbDk2bpsP+yoLmv9gBsZ+Sak4KM2+O3SYNSMUgbLpdrcUjVn/HGy7s+muUh4QgbkvaHF031pkD7SfvLewVOCgwYKY2XEI61EWozA1To+QC0aU9dai3XIBNR8DIV9y870aq8ebby9ByPEMLNtudt/slsgnRSBmYTDKxTGlWwWl8RiKTKFI0HW/c2ypMKFAVFqe1bren2RwtSYpETMH0mUtyFahKTruNLuUxYwj71mg0U9BpJrlTA7WHHJKHAvkXWC7zkYceceEsH/W2X4vcApmzAYKjpi6vb8yaKPYptlTXLVM9Kx8PPp8Gn769Z2zoPy4AYiPRpSr3UsZG6fW5TndcjIP/3JiDt58LRFhvXVTHRDP9oHAKTrMxH4cOdltS1FWvF9sUyymuroQ8ah8+neMIiLvwkAHeYdrJuS/Xqo8DPn7YKcJas14z2k8DZkKP3S8quvF303C18WV3nlDDg7LW17XzNiVk4uL0GK2fRyKprOokj+Dg/GwkuF7Kncm4sUtBhw6WYFyJZlQtCUZSwuAmDS9uBhWm4XrYjHdzR3AyNgliHQzjaxdiJxq1ize/9GB9JN3r+XcKXW9b6VKx5ljLlT1eL7c3NztAqY/2o4bbUGf59w0eY2IRcqEZuz4tawYmbEzIR3ZhpJbny1+P3tJqrhg6n1gVc3kdLy9RYem3clYYXTTFYbIR0XqVyPmXBa+v9GAyvPtaGkswabvZ6EtJQspTrtNTZURmKDFOFeVFksFit5qQcKMAQ7wGxCBpA1ydqk0LBTrUt7YjPrTJdi+JBm7r+jwylI3rUikCXqsmVEr1jsDBaeb0XapEYeyV2NT2xJsTbJvxCjMTF6OEPH+i3NFpelSO5pO77IN2pixWg3OOE1/KXhUPh59Pg0/nnzn7Gpx+j3xfZs0zuXNCWVsnCt6zHq6515Q85ERlq+GIsjSjrYrzmmgZ+BbPNoHRsfihZVjUbA6GduPN6LlSjMqd6VhxXvReGWNPTjjvH95Vj79OUYRkXdhoIO8gKgm7svCQbczophx3Gk8DWVMjVO2SuH5C67ngsd/5GDDGh2+OVePXUrnajN2vZ6OzT9IxK+agMcTkzHqXXVQ0/XblK4bM5500XzYV2gsaDiRixeTk7FYppUbUdCsxasHTdgzX1Tmr5zAeyVAzOxp7ptihk5BwgQLio730vpAXnCkBGPmqsT+95PvRU1+um29HdKOUw5jXxze1uP5xTsqevbZ9Ug7yo6Iwugl6CNHa5/67QhYjKWoFIWhudGAstxb67h0swFNkzJRbMrrc2DVEH0uClPGomx9KrJP3/6FIdE9Q07pejAPMVfysDg2GtGLDLi6MB+Fa5wDFram4viabbpIZ5aK0gEOQnpLYGwmTAc3IqohD0tnxSFuWQ7Kg1ej8EgeEsaqL3JpDObuLMaeGS3YsSwOWt0i7GvTo7AgHVEOd7g12jQcKFqL4JNrEaeLRtxLVQjLMvY+xbRH5ePZ59Pw4/F37lIDajqAqeEOg5DfZEF5qW1gcZeDkFrEfnkqC3Oio6HtkXJRqb5swDzaBzSIWrUfB9KDUb4+HtHRc7CiKhSvFuX2uu96VD4eH6OIyNv4Kf+vq7Zat7BxozexWq3Kz66uLiV1dnairq4OEydOVPK91R+bLsL6xWPqkmc++zADCT823uxW8szLJmTHubiLXpODb6zZCyw04P0UZRSOHi6/Ly50f2JSl4RALWbE6zF/5jhU5RhxaVQJDp8CwhbkIjtFh/Z347Fst2wZosHDMZnITY/HYwMI//ndfxFPhPRvu4mIaDC041BaNPZFH8OBxF6CBkTUf1dKsCLagGdLDUjqa8wtomHizJkzCA8PR0BAAPz9/ZUk+fnZqtZ0d/mtrwG2TvBjiw666x76hwiEIRTJyUvUnIF7+Ms6hMngRmIm3tgjZ1oxYMPzeoz/Oy0Wb8vEmhV5yN5pQt7/o8PD4tv/+MISdXDTKhStG1iQg4iI7qLbGYSUiHrlfhBSIiLvxhYdXmo4teiQTZLP/uc1jL/PoLTYkC06fvhALjb8Sk406+BaM+qb2iGn7gz7O+cGg/FY/bNkjJcPu0S6VIr895vx6JPj8Vj3AT96ut6MunPNeOwbafjH/63m9RNbdBARERER+T626PBu9hYdDHR4qeEV6FCpXVOUQAc2IuE1hy4ofZJT0KbbAh2SvZtLP3xn+1ksH+BuwEAHEREREZHvY6DDu7HrCnm1h+Py1C4lMlVgc4xTC46QJXjjPfvzMjkEORyELcjBT7Lz1bQW/ygzw5dgw828fGxYwGGziYiIiIiIfAUDHeTlLDh/aC2yy4BnEpfgGZHzzMLleKZlL3641YiLsptKL+rfTccPNySraRt+JzPr9iL7Zl4yst+tVV5LRERERERE9z4GOsh7dbXj7DvJWPFzEzBlI37wFPB7mf/3evzg+zrgVAaW/SAHv7+svNol2Q3mVqsPA74jM5/ORNHNvLMoelm8FxEREREREfkEBjrIO7VWoHDjN7A634zrIUvwk3V6PHaf+hwewGNxufjJwlBcb9iLDUv12F5ixmUXrTsuf3IK5soKNVXhosy82uCQJ9InLcpriYiIiIiI6N7HQAd5n+unULg+GfmV7Rgxbjl+8tN0jH9AfU64fK1N/K/B+BQj8pK1GHGtFof//SzabU93w64rREREREREwwsDHeR9RkzB4nVrMeP5fPziZ2nQPqTmq+o/lYEOSYOw7xpQ9NO1WPydOXjcxbe5e9cV14ldV4iIiIiIiHwHAx3kncYlY0NiNB724Bv6UEQykp8dpS6pItOVIEZ23Bg1wz37DC8DnVqWiIiIiIiIvAcDHeQ9+gpOqM+/n6JVM4iIiIiIiIi6Y6CDBpWfn/hK+fUx56uvEdurbDcRERERERHddayd0aAacf/94v/rtoVh47q63URERERERHS3MdBBg2rUQw/A/74OdWl4kNsrt5uIiIiIiIjuPgY6aFCNenAk7ruvS3yzhkmwQ2yn3F653URERERERHT3MdBBg+6RMX8L//vafT/YIbZPbqfcXiIiIiIiIvIODHTQoBtx/33433/3vzBC0wH/+y8Dftd8Z4BSuR1ie+R2ye1TtlNsLxEREREREXkHP+X/ddVW65ZI5SF5B6vVqvzs6upSUmdnJ+rq6jBx4kQl/17R/nkH2j+7hutffCG26d4PdsjZVeTAo3JMDnZXISIiIiIaXs6cOYPw8HAEBATA399fSZKfn61qTXeX3/oaYOsE9a/BQIfX8ZVABxERERERka9goMO72QMd7LpCRERERERERD6DgQ4iIiIiIiIi8hkMdBARERERERGRz2Cgg4iIiIiIiIh8BgMdREREREREROQzGOggIiIiIiIiIp/BQAcRERERERER+QwGOoiIiIiIiIjIZzDQQUREREREREQ+w0/5f1211bolUnlI3sFqtSo/u7q6lNTZ2Ym6ujpMnDhRyb/T/th0UX1ERERERETkW54IeUx91LszZ84gPDwcAQEB8Pf3V5Lk52erWtPd5be+Btg6Qf1rMNDhdbwt0EFERERERDTcMdDh3eyBDnZdISIiIiIiIiKfwUAHEREREREREfkMBjqIiIiIiIiIyGcw0EFEREREREREPoOBDiIiIiIiIiLyGQx0EBEREREREZHPYKCDiIiIiIiIiHwGAx1ERERERERE5DMY6CAiIiIiIiIin8FABxERERERERH5DAY6iIiIiIiIiMhnMNBBRERERERERD6DgQ4iIiIiIiIi8hkMdBARERERERGRz2Cgg4iIiIiIiIh8BgMdREREREREROQzGOggIiIiIiIiIp/BQAcRERERERER+QwGOoiIiIiIiIjIZzDQQUREREREREQ+g4EOIiIiIiIiIvIZDHQQERERERERkc9goIOIiIiIiIiIfAYDHfcQf39/XLt2TV0iIiIiIiKiO+Wvf/2rUicj78e/0j1Eo9EoOxcRERERERHdWfKms6yTkfdjoOMe4efnh1GjRqG1tRVWq1XNJSIiIiIioqEm62CyLibrZLJuRt6NgQ4vZd955E/7Y7lTyR3sz3/+s7JMREREREREQ+/SpUtKXUzWySTHepr9J3kPBjruEfYdKSgoCH/5y1/w3//932zZQURERERENIRknUvWvS5fvqzUxRwDHOS9GOi4B9h3JjnwjewT9uijj+Kzzz5DfX29ssNx3A4iIiIiIqLBI+tYsq5VV1en1L1kHUzWxWSdjMEO72f766yrtlq3RCoPyXvYW2zIn11dXUrq7Oy8+bi9vR2ff/45rl+/riwTERERERHR7ZMBjREjRuDBBx9UuqvIZZkCAgJuPrYHOxj08B5+62uArRPUvwgDHV5LBjnsyR7gcEz25+yvJSIiIiIiooFzDGDIZA9sOCb7c/bXkndgoOMe4RjEkMlVkMOe7K8jIiIiIiKi/rMHLhwDGTK5CnLYX0feg4GOe4hjEEMmxyCH/bH9eSIiIiIiIho4xyCGY2CDQQ7vx0DHPcYxmOEq2Z8jIiIiIiKigXMMZLhK9ufI+zDQcQ9yDmgwyEFERERERDT4HAMazsENBjm8FwMd9yjHgIa7x0RERERERDRwjsEMd4/J+zDQcY9jYIOIiIiIiOjOYIDj3mAPdPiry3SPkTuaYyIiIiIiIqLBwfrWvY0tOoiIiIiIiIjonscWHURERERERETkcxjoICIiIiIiIiKfwUAHEREREREREfkMBjqIiIiIiIiIyGcw0EFEREREREREPoOBDiIiIiIiIiLyGQx0EBEREREREZHPYKCDiIiIiIiIiHwGAx1ERERERERE5DMY6CAiIiIiIiIin8FABxERERERERH5DAY6iIiIiIiIiMhnMNBBRERERERERD6DgQ4iIiIiIiIi8hkMdBARERERERGRz2Cgg4iIiIiIiIh8BgMdREREREREROQz/JT/11VbrVsilYdERERERERE5H3+pwMwN1tRexE4cwGo+9SKS1eBq38FOr4AbnQBXSL5+wP3iTTyfuBLfwM8+iUg/BE/TBwLRDwGaIP98Lcj1Tf1IX7ra4CtE/wY6CAiIiIiIiLyQn/9Ani/Fjhc3YUT54CLbVY8OMIPFpF/7Yb6IlhFslXtXbv1/AP3AZr7gc+vW/FYoB+mPQnMnuCPb0QAfyPy73UMdBARERERERF5IWOVFfs+BE7UWzFKA1ztEJl+fQU0+ku8n9UPXxoJtFuAaWF+eP5ZQD9pMD/jzmKgg4iIiIiIiMhL/LHViv/3P4C95Val24nsjqLENWR8Y6ipnyO7ucjuL0um+uH/+TrwxJh7K+hhD3RwMFIiIiIiIiKiu+TsRSv+z94uTM7uwq7/sOJzi9UW5JDuRJBDUj9Hfq78fLkecn3kesn1u9cw0EFERERERER0h33aDnzfYIVuuxW/rgJudPqJJJ+5260obOsh10eul1w/uZ5yfe8VDHQQERERERER3UFvnrBi/OYu/PIjK67fHFTUO8n1k+sp11eu972AgQ4iIiIiIiKiO0B2A4nZbkX2YVsAQWnB4e2xA7F+cj3l+sr1luvv7d1ZGOggIiIiIiIiGmL5H1rxbI4VlX+SY3Dce+NeSHK95frL7ZDb460Y6CAiIiIiIiIaQnKMi4yDVnR1qRn3OLkdcnvkdnkjBjqIiIiIiIiIhsCVDitmvGbFe/8JtF1TM32E3B65XXL75HZ6EwY6iIiIiIiIiAbZH1sB3TZbV4/Prt2bXVX6Irer8k9dynbK7fUWDHQQERERERERDaI//NmKb/y0E+f/AnT5Zozjpi6rn7KdcnvldnsDBjqIiIiIiIiIBols2fDNN7rw6Wd+gPg3LIjtlNsrt9sbWnYw0EFEREREREQ0CORYFXN3dqGl3W/YxDjs5PbK7Zbbf7fH7GCgg4iIiIiIiGgQ6POApiuikj/cohx2YrubrtjK4W5ioIOIiIiIiIjoNsmpVv/rz7YxK4YzOSaJLIe7OfUsAx1EREREREREtyH/QysO/afvzq7SX7IcZHnIcrkbGOggIiIiIiIiGqCzF6146VdWtF1TM0ghy0OWiyyfO42BDiIiIiIiIqIB+r4B6OpSF6gbWS6yfO40BjqIiIiIiIiIBuDNE1Y0tKgL5JIsH1lOdxIDHURERERERET99Gk7kHHIiqt/5bgcvZHlI8tJltedwkAHERERERERUT9tLrYqM4xQ32Q5yfK6UxjoICIiIiIiIuoHOcBmUaUVN7xwbI6/f9iWvIksJ1led2pgUtsEv+uqrdYtkcpDIiIiIiIiInLv/+ztwq+r1IW7ZHG0H/5xHPD1cFu13lVw40+XgfOXbcEFw++B/6izKnl3y7cnAf/fkqFrb+G3vgbYOsGPgQ4iIiIiIiIiD/2x1YrJ2V240WmrTt9J62f5KQGO22mx8R/1VvyuDij8/Z0PetwXYMXpDf54YszQlJ090MGuK0REREREREQe+n//Q/5/Z4Mcbyb6oS3XH+tn316QQ/p6mJ/yPtWb/JX3vbPdXPzU8htaDHQQEREREREReWhvuRU3Ou/MWBOyBYcMcMhWHENBvq8MeMjPuRMBD1lusvyGGgMdRERERERERB4wVllxn1KLHtoWHTLo8Jsf2Fpe3Anyc95cfCeCHX5K+clyHEoMdBARERERERF5YN+HwNW/qgtDRHYtka0s5M87yf65Q9V6xE6WnyzHocRABxEREREREVEf/voFcKLeOqSNOWSwQbbkuJvkuB1DGuwQby3LUZbnUGGgg4iIiIiIiKgP79cCozTiwRD1uvCGIIfdkA5SKspPlqMsz6HCQAcRERERERFRHw5Xd+Fqh7owyOxjcngT2Y1lqIIdshxleQ4VBjqIiIiIiIiI+nDinPjPb2iac8iBQL3RkK2XKEelPIcIAx1EREREREREvfifDuBimwxyDH7FX07teqcHHvWUXC+5foPPTylPWa5DgYEOIiIiIiIiol6Ym614cMTgV/hl15A7NYXsQMn1G4ouLLI8ZbkOBQY6iIiIiIiIiHpRexGwDMEsIYuf8e4gh91QrKcsT1muQ4GBDiIiIiIiIqJenLkAXLuhLgyiIZ3GdRD9Y7j6YBDJ8pTlOhQY6CAiIiIiIiLqRd2ng9/FQnYHGapZTQabHKtjKNZ1KMpVYqCDiIiIiIiIqBeXrsr/B7dSfq90W7Eb/PW1quU6+Gxruq7a+kXml5WHRERERERERHRL6EZ//M9f1YVB8mai3z3TdUUqrLBihWFwgz1/+zdAY1aXunT77s/4A7B1gt/NQMcflmqUh0RERERERER0y9Q3n8AXnYMblPjND7x3WllX/qPeim/9bHADHfcHWFG+4o/q0u378h5L90CHdUuk8pCIiIiIiIiIbvnbl7rQNXgNDxTVm/zvmTE6pD9dBia8MriF4O8P/M9PB29EDb/1NUqgg2N0EBEREREREfVisIMc0r0U5JCGYn2HolwlBjqIiIiIiIiIeiFbHgw22ULiXjIU6zsU5Sox0EFERERERETUi/uGoOZ8/vLQTK06VIZifYeiXCUGOoiIiIiIiIh6MfJ+9cEg+tNf1Af3iKFY36EoV4mBDiIiIiIiIqJefOlv/v/27gcsqjLvG/h30GkJM8gcTOANfAUNYRH/i7Soiy+PNunawxUPq1mm+SfSNd2UjeVd4om1NXu1Hs38k6y7Ri/Zw8qlTfJSJE2i+AdFAnkSSmhlXBkfGnKdtWaN975nDjIMAwzKKNL3c10jcw6HmfvcM55z37/zu+8j/+3ejAYOXWlS6rX7MdBBRERERERE1IEHvOW/3Xsr2EPVypM7RNax7h66olLqtfsx0EFERERERETUgRDf7g1ySJ9VN90xWR2ynO4oqzvqVWKgg4iIiIiIiKgDP/UHPPsqC90o6+idMSGpO8op61PWqzsw0EFERERERETUgdDBwE/cMHHmK3k9P6tDlk+Ws7vJ+pT16g4MdBARERERERF1IDJAhSvfuyf7oqdndbirfLI+Zb26AwMdRERERERERB3w8QIG3ys75d3f6e/JWR3uyuaQ9SjrU9arOzDQQURERERERNSJycPEP03uyUB4ZNMPPTLYIcvlFqIerfXpJgx0EBEREREREXViRrgHvN2UgdCcOdGTgh3aTe4rj6xHWZ/uwkAHERERERERUSemhQKXvxNP3JPUYZ0L47OqnjFfhwxyyNvfuoWoP1mPsj7dhYEOIiIiIiIiok7crQYmB4tees+IRbiNW4McknhpWY+yPt2FgQ4iIiIiIiIiFzw5CfC+W1lwgwfvV57cBjK4EZ7+g3uDHIKsP1mP7sRABxEREREREZEL4kep8E/r/JzdHwx4cADwM5kxchu8cqDJrXNytGiy1p+sR3dioIOIiIiIiIjIRfOjVOjb5/YEJLqbnBdEZnG45xaybcl6k/Xnbgx0EBEREREREblo8c/kv90fGJg7/tYFT2QGhwxwPPvurb7TS5NSf+7FQAcRERERERGRi4YMVGFmRPcHJeZOcP01ZaBCBinkTzmnhny0F7CQ62XmhtxeBjfuXWHL4Li1AQ4bWW+y/tzN9g6/KW9qeiXM+pSIiIiIiIiI2nfmQhNi/k8Tvv+nWOiG5A45P0d5Wsd5CDJYcehL28+OyNeSbkcgo10q4K6+gP7XKowY7L5Ah+rFCuAP4SpmdBARERERERF1geysJ4xWoW839ajbG7Zin4khf3YW5JBkgKNHBTkEWU+yvtwZ5LDHjA4iIiIiIiKiLqq/DIx46QdbVsdNenG6ypqJYQ1SfAN8VnV7hpa4i8zmOPOSB3z7KyvchBkdRERERERERDdIdtpfnqWC9903n6Ug58ywzrkhfsqsjd4U5JD1I+vJ3UEOewx0EBEREREREd2AZyerMFSjLJBTsn5kPd1KDHQQERERERER3aAtc0THmj1rp2S9yPq51fhxEBEREREREd0gOcHmxsdVuNdTWUFWsj5kvdyqCUjtMdBBREREZMek34A58zag8E4eH302+87fByKiO8jTk1SYNVKFezxvfae+J5L1IOtD1svtYHtXd9515ZoZVYV/xjsHL8DiYYGlTyi0CxMxJUCtbNCBa0aUvr8be8obxYL42wFRmL9wJsK8bb/ujOlMDjZWjkR6fLCyxjXm2mLszd2Hoq/U8PE0oh4ahGmXYWVMy+CrquxFKArdgvkjO9qPamS9ZoD2hRj4KGscycZUUtkkvL1sIryUda01ovC1F7DH5AcfGZb6wYS6i4B/eBQejY/HJCf1aCrPwzt7D+DM333gc9UIU/9ATElcjoRw5R0a9Hg1E1jcQbms2+T7YU2i87ozndVDd6AApV+ZoPb2gemSCT6BoYjW/hLa8NYfkOloJl7V1SpLQqMBdfCDv91mQdpVWDzBxQ+WiH60zIYyHMr/FIWnqmERxx51owkWv1CMi5mBR8cHwquPsqGLTNUFyM0pwKFyA8wQx/zACMQlPonZDscxq2uNqNj/Z+zKL0HdZcDLbwymzo5HQpSf+Es74rhbmpeNPQfLUNNgAfr7YcT46XgiIQZBzg/0Lc7tx/O/y0G9NhXvtnP8tbpahl3LNyB/5NJ2zx91+RlYvdsLi99YhSnK/fTvVFXZ85GmUxbaFdFt+2o9N+8Q58keWncWYyUO6j4W/w+U75iV/P5G4enVCzBOfn1loONlQ6/4/ImI7iQ/39CEk1834YfO7wLba3momjD6QQ98surWBzma77ri5kCHRTROMrB30DKsmaoECcyVyErPgWZFKuL8bKucumZE4RubUTc9GXNHKE24i6LznV6LuA3zENlBWpBsAOT/5WMYPSzI7z+r48aiA4toGKR9oMHiRbEIap4V9poF9Y0W+A5oaUpaG10FolG1VjQg2p18prNAhxH5r+xGqWghj1/QXkNEBjp2Ag6/N5/T452tefBZlI6E4JYmdr1onL1eOw3PJ0bAt3m1pRH1Zi/4eisrbibQIT6X45mbsbdPDJ6eGYMQjV3z/rIBpfmZ2H4hBi89GwPfdjocsgG5HQuxJoaBDSJy0bVGlL63CXuvRuEJrTj2DLI79ohjXN3nevzxvRqMX74Uca4E0qXqHDyVXoCgh2fhX6ID4S2OtzUF+5B1wojIRWvFMcru4G49J6Vge2UgtPNmIVIcj+uO5SDroAFhrbZtxOENK7CtNgJx8dPEdmpYGk5j7+48VA2YjvT0RIS0d/6S77FxNbafFs87C3QItkBGIxL+fT1mD1FWNrtcgs2rNqE6NhXrxeu4WCM9lvl8Jc6ZlAWhsSwbmw8MxNzkaQhS1smOvmZ4cMu57yb02ECHvHik24CM96th6R+MSQ+HYtiQEfC11OKs0YT6MyaMfm4pJskyuyvQcbEEu7KPY9g85X2IiKiVb8xNiFnfhNr/Fgs/xuSOJiDwfkC/WoX7vG5foMO9Q1fO5WH71XisbA5ySF6hmLt0JD4qqETzNQhnzMeycTB8SUuQQxoUg2XzTNhbZFRWtFW1LwPbjlkQOW855k/uKJLiTC10bxnxqH2QQ+qjbhXkaKadGQLdn/Sov6as6KraYnwUMAPzo9U4eKr9fXLGa0gMFi+NwuH8MpiVdTCXYM/eECyeYxfkkNTeLUGOm2JB6e40HAxcgvQFsa2DHFJ/P0TGp+KliBNI2VbSUi4ioptxzYjDb23CsaHKscc+yCGJY5z/6JlITZsBc9YG5J7r6OxixzMIS17bgvQl0zEpPBRh4ROhXZGKZRPksa4AVXbHdnlO2n5Kg4TUVMyNiRDbRiBuQSpWxkJsm4Pjl5UNBe/oVLy1YZWyXSgiYxKRnhIPX0Me9h6TGYrOmU/k4I9GP/gry53xj5mFOE8j9uToYRcDsKo5mIPDVyMwO+7OD3JIXgHy82l5jAiQgXINhtmtCwvvniBHz2VB1fsZSHu/FmHz0vH2JvFdnROPuCj5HZuOhPhELPvftyD40FiF/BNmfK8sEhFRa7Jzv+85D2j6N8k+/4+K3F+533L/b0eQw55bAx01n59G9OSIto2sIRGIPnkCFe22Rc2oOAX8S1TbQIXXyEnQfFqGOmXZUcgsceLXRsDfWR5vpyy4ckkjPhxlsTMPzcTq8SfwuryyoqzqippTRxA2SjTMwsfB54Ni1CjrXfZgMMYdqWqpi6tXYPb3hk8XU7ddZTmbgyzzQiyLc0jTduAbsxzLvHKw9+yN1AoRUWv1+t04FLEEiyfYguaWi2XIfSMNSYvmY868RUh6eSsOXxS/8ArG7BWzcOWdfahy5fATMAaTBinPr/PCiIgIcTw1oO56TKIRx4pKgAmzEBeorLJSI3LqLPheLcbRM82hXW+ETQhuO4RmSCjGiR+lhnaC2pdLkPn2l4h7KhGRyqpOeUZgykxxnjy9Hzr7422DHnveN8A3Pp5DFnoReQ5+U2dAyLx0rBFfxK4O0yIioltnyEDgw195wPce0fX/sUQ7xH7K/ZX7Lff/dnNjoMOImopABAUoi634IWhkNerbS2K4VouzfxuBQGcBB6/BGAYDjG7pQ3tDE1yNcwZl0QW+0fMQZ9iNPV3t1F+rRlF+BKJD1UD/CEwYqkfpOeV3rvrOjG+GaFrGZvfXwPerWtRcVZa7lQUVh0sQPWNMO3OJ2BON/0kROHj0xgJARETXWSrxYfFIzI1Wghxns5HywiYc6x+DxSnrsWVdMhZP9sHfmzMqPEPx2DQD3tF3LUvO3vfXbEeuu5o7kuZqlJ8GRoQNbXv8Cwi2BjCOn+/kxKG8ptpZlFgOWdmxFdVTFyDBPovRBUFT4zHJ0wjdviNKVoc4Vut2oxRjkBDbHJWpRta8+XhV3wjLeT12vbwCT4nlp1ZsQO4ZJZrTUIncN1LwjFg/Z9EKvJpd5pCtKIdRit9lV4undtsmZWCX3mA71ptrUbgrQwlAJSFtW4Hd+Uj5+5X7nQb1zUe3ir/JQL4MWN0kOc9W1vVAmNzPNGzMLkads3OjnHdFtxVpKxYp225A1klj+9kKyvYZyUnW7eV+rl63FbrmeuxI7X6sFn+Tlu/wXWkoxquirKv32c1l1YYZx/PzUD8wHk/HdjVbFTCV78dGpcxPrbD7zOyJz+9w9iakKHUxJykFG3MrYbr+PbB9j+a8nCeel2H7Clv9znmtbUYREREBwwep8PHKPtZhHHLOit7MQ2UbriL3V+53T+DGQEcj6up94OP00r8a/TxrYfy7suio0Yi6B3xwn7LYWj/cda8RJrs04e6jwdRfBuOjNzJtVwdd0UeDKUnxsLy+CYe7MLO5pfIISuOiEGJtSHshctxQ7D0qGpBdYKk6A8PY4JY0Z3UoHkk0YvP6/ajq9nEjtThbNAYhDyqLnQkIQWSVAfXKIhHRjbCcOYH66LHwl8dKSzX2vJUHr3npWLsgFpFDNPDxC7YODYmzm87Ca+xkDDklOmjKcteYUV1RCQSPRHDzNEImE2TXNGCAk1mN+gyE/whRtMvmjgO7X1fjuDj3TR3eKiXEqr5oN/54MRbP/Wtoh9lyTvUfg0ftszoMeuzJt8D/8VmY5HCx4PvzB7B5ZzX8tEuxZuUCxA2sxJ5X1iH3ZDE2p2ajPjwRK5OTsWy6RnTmN2B9rpNg9eUTyHp9HzB+nth2KeYONyN/Rxq2HSlDbvo6HPKZhudWJGPN/LEwH9qNtC3FyufgjfHRY4BLzoL6ZpQeLwYmTMPDbTJsuqb+0Cb8KnUrDl4NRcKzyfit2J8lcYNhLNiK1WnZqLIPdljnXXkBv8+9AE3cQuu2axJH4Ju/pGG97oKykZ2r4vuXZtveJ+ZJ6/a/XSkzcMqQ9coLeLWz4FrgdCye7Yeq9/fZDXWyoHTfTpQOiMdz2rbfjevEd//sUXGanxCKoC5lclhQl78BKTpRvfOWizIvhXZgrfUzyzpt/+k2onCL+BzL1YhOXGXdt2WxXijNWSf2t/l74Icpcp/niM8RgdAm2er3t7NDRcuMiIickZkNcq4KOTFnb70bi9yv0Q+qrPvZEzI5mrl3jg45jEJ56kjjF6E8a8cA73YyB7zh7zRLpHuohyVi7fJglG9agYzcStR32HJVeEZg7vN++GCXq/N1iEadvgzRI1saNV6jJ2FqwZEOhvPYkZOjludgXa4Xnm6dRw3fmFV4LR5478U0bNfXwtxeeb7Iwau/S0NKe48NOahQNrUyN6J+sOhUuNrA8vLGfeeMYk+JiG7clUYj/B9QIg61p5F/KRaPTe3kirY6EEEy809Z7Ip6/VZsO+oH7S9j4Kusw9+N1iwE9d3OwhB3iV+IH5dMuGJb0ZboIGdtzcE3o+bhEZnFZ0dmqKzfcQlxC+Pbn6S0E9ezOvILoMsVnXnPiUiY2rbTfOagBVOTFyBudCjCRsdg7urliPM0YM/GnbhnSSoWx9rmFJkUn4yVMUBd3gnUOJ5D9NXQLErG7Cg5J8ZEaJctw/xgCw5v2YBTsalInT3R+hqRsQvw/JxAWE4dRqlyEcBr7DTrnCKFpx0yFxpO4JDoxE8aF9HOed9FDXrs2laC+7SpeCs5EVPkfsr90S7F2rULEGnIw5t5Le9tKtptnXdFu1oOebWVOyxqOpalJyO6zbfHgqrcbci9GIrFa9Nbtpf1mPwGfjvDB6U7snG4w4swaoRoF0A7oBhZOlvwQA5H2VWgQULSzI4DGJdN1gsHYX52c565pBL5hrF46YWZ1+ehSbB+7hbkF9nN8SX0G5+Mt9KXQmv9bO2/B6eVLBwv+MvXGCrLINpiw23bhQVruh6gIyL6EZFzVci7j8weCdx7g+f6nkruj9wvuX+3e04OR+4NdNyh1AExWJz+Cp4YcASvr8hQbm/bMRkgWRwsGlEFLox7uVyGQ1UxiLTPjlDL2yPqcfyMs0hHJfZsUAIQKxbhmZQN2FM7AstSnTeMfUbMROqGVYhuyMavUjJRWOsk3DA8Hmv+PR1r23usiker+/BYLAxaENEtZzK1XFk3GWpF51CNfu7oVcm7WezLwOodlxC9bCXmDuumN7lYjO1pGci/Jx7pSQ53ozLqsXF9ATSLbvL9mrM6jmYj64gF/jNnYJyToZ/q2KjWdyzzDETQcPFz4CxMCbd/f7VY7zhPiWJkDMbbx5n6+GGIfA2MaTOvlv/QUPFvGeou2ZbleW6KVoP6T8taBVDqT+lR6hmLqaNvKsyBuhMF1iE7j2mdTMCqiUJcrHgv3QlUWVcYUSo6+nLelccc675PICZNl2W3Y6lEkc4IX228kzutqRE2ZTqCUIJDpztpL3gGI+Gp6YAuGwfP10K3Mw/qx5dgdgfJHDcrbrrD984zFJHR4qf5it0QHW/RBgl1mPej+XtQi7ouZKwSEZFzW+ao8PIvVPDoJT1wuR9yf+R+9UTureZvLe1e4TIaRAOjI1fbSwNuRN155WmXVUPnmLkgHjpnI0b6eCEoZgHWvjYPPoW/6zwlVQjSrsTU8m3I6mS+jvpjH6N2aoTD1Rs1ho2KwcHPnN2tJBQJq5QAxBs78Pa6ZCzThnacXdHHG2Gzk/F28ljU7VjXaZk65T0Q/ueMdmN1O9F4CXUj/dDVa09ERPZ8fAYD/1SeD5QdaXFe6fRwJjpwV7oQODCLc8NrLyAtT42EtNTrk55e56Fu23G+TrzXt+KHn6ZNBmP9kUykpO5EzfClWJ8yE0H2QQaZ5fFaJoyx8qr5zR8pbVkd4olnLOY6ZPo1a5sNoGRIdmUS6wC/Nvtpy9B0bSLvoJGi031pH4q+VFbAgNJPq+GrjUFYFz4yZ8wNtWL/xXnHaTnU8AsMtXbajdZYhGhLnBFrBw90mkVyVx+HwigZFX4D28lTHeRnvThQcbHztoJ6RDzmx9YiKz0De9DJkBUHBlNXB2RFwP8B5el1cviw+HHaIevpmhl15XrocrKxeZ1oHyUnIWlHJ201IiLqkqcnqXB4jW2oh/fdd+ZQFlluWX65H3J/eio3BjrEifRyex1jM0wNofB3PgmHaKj0g9cFE75RFlszwVQnGjLNY6e7JBhax8wF8dDaje1uwysQcUuWw39vDo53ltIg5+uYPwN1O3NQ0e6EoEaUHjJAfUI0gB0CLml7qtHv9HGUduf8IwMiMHdVLOreyuv6XV1a8cOwqBJUuRhksvy1CsZhge0OXSIicoVPYAjOnlWGGwSFYIpnAfIPddKZbKhGqfi7IGWxQxf12PhCBgoHJGL9hmRxPnDS7R2gsXZi6/7m5Gr9tUYYz4miDbQ7KYkOY0VOGlZnGhC58jWsXTCx9RV1wXRsH3QG8Zq6DOvEoLaJLeUjAzq5gVgvl+UEoi7pH4xwmVkxPLB1QKWnGTIRjwRbkH9UucX8uRJ8eC4Yj0R1U0rDPXd1EJSSvFpNCHuf09lh2+fVyfauvl6//hpYrooaEI0Zl/JYBgRi2ECZ/VLtnrmvjMXYuDwJq7fk4exlNXzHzsDcecuxcrZDZgsREd20EYNVKPy1CikzgLv6An1lG6GnxzxE+WQ5ZXlluWX55X70ZG4MdMg7q7TTMb5mwNnaEQhq7yKWvLPKP87A2YgLNNTibEgIhrh69ak7qDXw9zfjiit3MxkwESufAnZtaWe+jnPF+BDxWO0k4CIfa7Rf4/8d6/yKUJcM8IP/pSvtZMi4yguR0RH44GCZC6/TiKK8ylZzkBAR3ZDAiYiuPGCbvNFrDGY/NQZnM1OQ9q4eFYZGmBsMqNBno/B6Zp4FVfl5oqPmwsSel0uwOTUThphUrF0UA//2AgRKJ7P0Kzl0xsF52ySjYUEtwzZqdBn4fZ43nl6bioQRzqPy/UJn2SZybPNItN7FBRMSrcuPhd7ccI6eR4OH48bAoj8BmWhYc1qcK4OjEHmTk5BKXuJzwqUaGJxeLLDAUFsJDPSHxlqlavSTgYPzl5wOy7xy1SHA1N/HOmdL9YV2zs8XxfdQ/Age1Hl2jpyXY3sukLByKSZ9kYldLt0hKBDjZgSLAmTjw1aTiHaPqoKdOG6JxZoNa7FyfjwSYm1zkATy9sRERG7z7GQVzrzkgcSxKmsAoSeT5ZPllOWV5b4TuDWjI2xsBIqOtJ213VJ+BBWi09z+1TY/RE6+hIMn2l7JqjtxRLR1Q127AtJtZGqyly3V0wUyLXWxXwF2FbWdr0M26gLjolomuXMQFDUd+LQMdcpyt7CYYRnYr/NGfyfU4dPxREM2th3puFFWf3An8gMWoAvZuERE7dBg6uMa7N1hCx77Prwc/5GxEMOMediYvALPyFtlngJ8lA6Z7ET+sUF01FrNOeFcTUE2Dg9OxPOPO5nToRXRyZzmBxR8jKJWhz8LSg/uQ73fLEQPVVZdLsbe9w2Y8uxyJ3M5tFBrgm0TObZ5BNvODwNtvw/R3OyRu+fxCh+HcVflnFRl1nkvxnVwTuwK/5ExCEEJ9ioTfbZiPIL8AiDk0YlK2yMQYRNE3R45gEOOp2pzGT5632HCVDmPVpwa9bocFLY5BVpQUZiHGlfmGblajT0784DZ4hw5eiIS5kSgNHO3k9dsyz8mEVo/C/I3ZyDrpIuZPi5phNEgamywHzT27ZxrBpTqK5UFR5Wo57wdREQ3zbe/be4O/a9VeGyUzJposmV44HbfjtZWDlkeWS5ZPllOWd47hVvn6FCHTofWsLv1CVmmCb+vbn23EHMJtielQWeX/eEbnQj/fNFhtkvrMJ/JxpvlUUgY29KQMJ/IxDOped0TGGgsg66guvWdVixGVOTsRtGEGRjncnRFjZDHlyCyaDfylTVWlkoU5kcgzq78bQwai6n35uF4m9vvuaBaj9yThtZ3Wrlci8Jd+/D93FjX0rg7Yr2V7hIEfJyGtJwy1DlcNbMYq5GfmYE3L0zDmk47DkRErlEHx+P56Gq8+VYBasQpwStwIuauWIu3d+/Cu7u3YP2KREQOAEwndyPtAw2eWzDGhWC4ETWVond5v3hWWYmKcieP8y3nH/9Y0TH1K8P2tHXI0peJ3xdDtyUDGws00C6c3jLn0l9rcBx+uMtc3fb1rA+Hc8yPUf8xiIsDDr6bLeoqtuNzYlcMisVziyJQr8vAs+uyUXjSVueHdVuRkpKJilEL8Jxd9CkkbiEiPauxKy0N2wvkZ1opOvbZyHjxY6inOg7ZUCPs8WRoB4jvQEoaNuuKbZ/nST2y1q3A7w+ooV2d2Mk8IxZU/GUbdN9Px3xlwlTfmETMDxav+ScX7trmGYy5KaugHWSAbuMKPJO+FVk6PUqt5c7DHjm3xstbu3SrextvBI8MBs6JNlZmgfX1Kk4WiO/6NpzVOBm6MjgI48S+6Pbtt25bWFByg7dyJiKiZnIYyJ/me6AkxQNLfqZCv5/IOTyUX96qBArlfeT7yveX5ZDlkeXq6cNUnLE1zR5Oeumlad1xPcWBRz8EjQ+H+aMt+I//W4DCTwuhv/A/8G/LZiGk+YOTLBdQkv9XDP75wwi6R1nXdwAiJmrwX+++gR179da/LWuajKULxrca62wxnMKBvw5C3M8C297H/b/LkXPBD/HhLuZeqj1hqSlA7q5MbP3Pz0TjKBu5x4y4b8pCPOtwc/+G8lzUDZ6NCNFIdsqjP4Y+5IOqz4ExUYGQF0kslXl46+4oPDOyo/J4wlf1BXZ++QCmi78HvkPN4VPAqCgE2deZM15qNBzbh3f/nImdHxTho7/koPDLHzDsFwsRP8KuIfmPWhSJlxwzyVYup+Q2X/ZHtGPd9fXBQw9PxbDvyrH3vd3Y9af3UXgsH1miviq/8cDwaU/iyZgAeHYQQrtaewQlGI3oQBdTZIjoR69fwChMGHQee7dsQ8Hf1OjXzwv39lXBYjLg7OfF2JOZCf3dM7DySXGOuEv5ow5dQNF2PaoM5SgqKsJnzh6eo1rOH/KcFD0K95tOIe8DHT769AwaHhiLJ5YnQTukpXdrqsyH7mQ1vixx8nrWhwkP/ryj43kDPhfnvKphMa6fu6zkuSJPHFtHQdvm2G57zctjZrQ57spzWeG3bf9GHqd1J8V5YkZzWZXXv7dtuWzb9sfUfw2XcaMW8hysr8awyY7nyj7wvVeFT/cdA34xH0+GdX02p/bes19gFKZG9Ie5shgf7MvDJ6LOyxsGYfwvl+KF+JGtJ129OwDRk4fDs+ELFOzTiW1PocYjEI88Mx/R10447L8gvwM/i8ZQj69QXJCH/R/r8VnpV8D/fBTP/noJYgPsX7wty+l3kfznLzAtaTXimrcVbYUHA67h+HvvoWpANKKHtGnJtOY5CBGTp2GMnwe+rfsvFH8i2kdiH4tOluPrby34YeBDiJ4wHPfLr6S1/i+33geF9XOvCr5ef/0CR+KhPn/Dyc/ykPdJEUoueSH6yecQe7f4vjvWw08CMNT/MqoO6rD/k2P48v4ozIgcxIsbRETdQN6idVqoCi/8LxUCxQH6W7MKX39ju43rd/JCiUpmenRn0EG8XpMK3qKraLkGTAlRIXmGCjuf9LCWo6fdMtYV6QVG4NCWdFvJf1Pe1PRKq5uJEhER9TzXLDBdrEbpqTOot86b1A++Q0Ix4qeB8GVP685xbj+e/50eUzLWu/XWqkRERHe6f1iAjyuBA+U/4NOzwIVvm9DvLpU18HFVuTOdbahLR0GJlt979gV+ItpMV75vwuB7VZg8DJgRLgMbwN29oC2lerEC+EO4ioEOIiIiuoUsqNidhN9/lYjX02K7ZX4OIiKiHwuTGSg934TKC8DndUBVfRPkjeEa/wGYLcA/fwB+EA8PD6CveHipbcNRHvAGQnxV+Kk/EDoYiAxQwaebRo/2JAx0EBER0a13uRgbk3ZCvewNLJvQC1tYREREdNs0BzrcOhkpERERkVR1JA+lcpLLdTtROmpeq4nFiYiIiLoTAx1ERETkfoYcvLoxG6UD4pGeFNNqYnEiIiKi7sShK0RERERERER0x+PQFSIiIiIiIiLqdRjoICIiIiIiIqJeg4EOIiIiIiIiIuo1GOggIiIiIiIiol6DgQ4iIiIiIiIi6jUY6CAiIiIiIiKiXoOBDiIiIiIiIiLqNRjoICIiIiIiIqJeg4EOIiIiIiIiIuo1GOggIiIiIiIiol6DgQ4iIiIiIiIi6jUY6CAiIiIiIiKiXoOBDiIiIiIiIiLqNRjoICIiIiIiIqJeg4EOIiIiIiIiIuo1VNZ/f1PeZP1JRERERERERHSn+kO4Lc5BRERERERERHTnA/4/LkhZNFmqsn0AAAAASUVORK5CYII=;" vertex="1" parent="1">
          <mxGeometry x="30" y="1400" width="1082" height="1154" as="geometry" />
        </mxCell>
        <mxCell id="uIYsc5EEo-gaZTBiMCS1-22" value="7" style="whiteSpace=wrap;html=1;aspect=fixed;fillColor=#dae8fc;strokeColor=#6c8ebf;" vertex="1" parent="1">
          <mxGeometry x="130" y="2020" width="20" height="20" as="geometry" />
        </mxCell>
        <mxCell id="uIYsc5EEo-gaZTBiMCS1-23" value="" style="rounded=0;whiteSpace=wrap;html=1;fillColor=#dae8fc;strokeColor=#6c8ebf;opacity=30;" vertex="1" parent="1">
          <mxGeometry x="138" y="1623" width="868" height="377" as="geometry" />
        </mxCell>
        <mxCell id="uIYsc5EEo-gaZTBiMCS1-24" value="&lt;font style=&quot;vertical-align: inherit;&quot;&gt;&lt;font style=&quot;vertical-align: inherit;&quot;&gt;1&lt;/font&gt;&lt;/font&gt;" style="whiteSpace=wrap;html=1;aspect=fixed;fillColor=#dae8fc;strokeColor=#6c8ebf;" vertex="1" parent="1">
          <mxGeometry x="130" y="1620" width="20" height="20" as="geometry" />
        </mxCell>
        <mxCell id="uIYsc5EEo-gaZTBiMCS1-25" value="" style="rounded=0;whiteSpace=wrap;html=1;fillColor=#fff2cc;strokeColor=#d6b656;opacity=30;" vertex="1" parent="1">
          <mxGeometry x="158" y="1690" width="828" height="146" as="geometry" />
        </mxCell>
        <mxCell id="uIYsc5EEo-gaZTBiMCS1-26" value="&lt;font style=&quot;vertical-align: inherit;&quot;&gt;&lt;font style=&quot;vertical-align: inherit;&quot;&gt;2&lt;/font&gt;&lt;/font&gt;" style="whiteSpace=wrap;html=1;aspect=fixed;fillColor=#fff2cc;strokeColor=#d6b656;" vertex="1" parent="1">
          <mxGeometry x="150" y="1690" width="20" height="20" as="geometry" />
        </mxCell>
        <mxCell id="uIYsc5EEo-gaZTBiMCS1-27" value="&lt;font style=&quot;vertical-align: inherit;&quot;&gt;&lt;font style=&quot;vertical-align: inherit;&quot;&gt;3&lt;/font&gt;&lt;/font&gt;" style="whiteSpace=wrap;html=1;aspect=fixed;fillColor=#e1d5e7;strokeColor=#9673a6;" vertex="1" parent="1">
          <mxGeometry x="150" y="1720" width="20" height="20" as="geometry" />
        </mxCell>
        <mxCell id="uIYsc5EEo-gaZTBiMCS1-28" value="5" style="whiteSpace=wrap;html=1;aspect=fixed;fillColor=#e1d5e7;strokeColor=#9673a6;" vertex="1" parent="1">
          <mxGeometry x="180" y="1750" width="20" height="20" as="geometry" />
        </mxCell>
        <mxCell id="uIYsc5EEo-gaZTBiMCS1-29" value="6" style="whiteSpace=wrap;html=1;aspect=fixed;fillColor=#e1d5e7;strokeColor=#9673a6;" vertex="1" parent="1">
          <mxGeometry x="180" y="1780" width="20" height="20" as="geometry" />
        </mxCell>
        <mxCell id="uIYsc5EEo-gaZTBiMCS1-30" value="&lt;font style=&quot;vertical-align: inherit;&quot;&gt;&lt;font style=&quot;vertical-align: inherit;&quot;&gt;4&lt;/font&gt;&lt;/font&gt;" style="whiteSpace=wrap;html=1;aspect=fixed;fillColor=#e1d5e7;strokeColor=#9673a6;" vertex="1" parent="1">
          <mxGeometry x="230" y="1700" width="20" height="20" as="geometry" />
        </mxCell>
        <mxCell id="uIYsc5EEo-gaZTBiMCS1-31" value="" style="rounded=0;whiteSpace=wrap;html=1;fillColor=#dae8fc;strokeColor=#6c8ebf;opacity=30;" vertex="1" parent="1">
          <mxGeometry x="138" y="2020" width="868" height="399" as="geometry" />
        </mxCell>
        <mxCell id="uIYsc5EEo-gaZTBiMCS1-32" value="" style="rounded=0;whiteSpace=wrap;html=1;fillColor=#fff2cc;strokeColor=#d6b656;opacity=30;" vertex="1" parent="1">
          <mxGeometry x="160" y="2147" width="828" height="60" as="geometry" />
        </mxCell>
        <mxCell id="uIYsc5EEo-gaZTBiMCS1-33" value="8" style="whiteSpace=wrap;html=1;aspect=fixed;fillColor=#fff2cc;strokeColor=#d6b656;" vertex="1" parent="1">
          <mxGeometry x="150" y="2130" width="20" height="20" as="geometry" />
        </mxCell>
        <mxCell id="uIYsc5EEo-gaZTBiMCS1-34" value="10" style="whiteSpace=wrap;html=1;aspect=fixed;fillColor=#e1d5e7;strokeColor=#9673a6;" vertex="1" parent="1">
          <mxGeometry x="270" y="2140" width="20" height="20" as="geometry" />
        </mxCell>
        <mxCell id="uIYsc5EEo-gaZTBiMCS1-35" value="11" style="whiteSpace=wrap;html=1;aspect=fixed;fillColor=#e1d5e7;strokeColor=#9673a6;" vertex="1" parent="1">
          <mxGeometry x="530" y="2140" width="20" height="20" as="geometry" />
        </mxCell>
        <mxCell id="uIYsc5EEo-gaZTBiMCS1-36" value="12" style="whiteSpace=wrap;html=1;aspect=fixed;fillColor=#e1d5e7;strokeColor=#9673a6;" vertex="1" parent="1">
          <mxGeometry x="760" y="2140" width="20" height="20" as="geometry" />
        </mxCell>
        <mxCell id="uIYsc5EEo-gaZTBiMCS1-37" value="9" style="whiteSpace=wrap;html=1;aspect=fixed;fillColor=#e1d5e7;strokeColor=#9673a6;" vertex="1" parent="1">
          <mxGeometry x="160" y="2160" width="20" height="20" as="geometry" />
        </mxCell>
      </root>
    </mxGraphModel>
  </diagram>
</mxfile>
